<svg xmlns="http://www.w3.org/2000/svg" xmlns:xlink="http://www.w3.org/1999/xlink" width="500" zoomAndPan="magnify" viewBox="0 0 375 374.999991" height="500" preserveAspectRatio="xMidYMid meet" version="1.0"><defs><clipPath id="5d74b60a82"><path d="M 10 9.164062 L 254 9.164062 L 254 146 L 10 146 Z M 10 9.164062 " clip-rule="nonzero"/></clipPath><clipPath id="997fed5cc2"><path d="M 161 212 L 367.589844 212 L 367.589844 366 L 161 366 Z M 161 212 " clip-rule="nonzero"/></clipPath></defs><path fill="#fb452f" d="M 160.617188 316.582031 L 160.617188 309.320312 C 151.171875 302.679688 142.449219 292.695312 134.929688 279.695312 C 131.515625 273.792969 128.453125 267.4375 125.75 260.71875 C 143.398438 256.414062 162.46875 253.867188 182.386719 253.410156 C 184.90625 249.417969 188.671875 246.28125 193.144531 244.582031 L 193.320312 186.433594 L 266.132812 186.433594 C 265.726562 208.855469 262.265625 230.335938 256.09375 249.425781 C 259.746094 253.007812 262.15625 257.855469 262.597656 263.25 L 272.207031 263.25 L 272.207031 257.242188 C 269.410156 256.324219 266.578125 255.453125 263.714844 254.628906 C 270.683594 234.035156 274.589844 210.738281 275.011719 186.433594 L 325.675781 186.433594 C 325.152344 202.769531 321.757812 218.386719 315.972656 232.804688 L 325.496094 232.804688 C 331.402344 216.976562 334.636719 199.855469 334.636719 181.992188 C 334.636719 101.621094 269.25 36.238281 188.882812 36.238281 C 177.035156 36.238281 165.519531 37.667969 154.484375 40.347656 L 155.554688 53.59375 L 162.199219 53.59375 C 169.292969 48.925781 176.773438 46.132812 184.441406 45.351562 L 184.441406 54.070312 C 188.039062 55.054688 191.121094 57.519531 192.835938 60.953125 L 193.320312 61.921875 L 193.320312 45.351562 C 209.5 46.996094 224.84375 57.613281 237.484375 75.847656 C 241.375 75.148438 245.296875 75.601562 248.832031 77.011719 C 242.054688 65.914062 234.371094 56.929688 226.046875 50.246094 C 251.128906 57.332031 273.304688 71.402344 290.339844 90.214844 C 281.347656 94.273438 271.695312 97.804688 261.503906 100.738281 C 260.722656 105.507812 257.523438 109.574219 255.152344 111.734375 C 261.914062 131.519531 265.707031 154.015625 266.132812 177.554688 L 193.320312 177.554688 L 193.320312 152.296875 C 190.050781 151.121094 187.050781 149.378906 184.441406 147.175781 L 184.441406 177.554688 L 111.632812 177.554688 C 111.773438 169.679688 112.289062 161.917969 113.171875 154.339844 C 110.175781 153.878906 107.273438 153.082031 104.519531 151.964844 C 103.5 160.316406 102.902344 168.871094 102.75 177.554688 L 52.085938 177.554688 C 52.347656 169.332031 53.339844 161.292969 54.996094 153.492188 C 52 152.929688 49.160156 151.910156 46.5625 150.496094 C 44.320312 160.644531 43.125 171.179688 43.125 181.992188 C 43.125 253.949219 95.539062 313.882812 164.1875 325.648438 C 161.929688 323.21875 160.617188 319.996094 160.617188 316.582031 Z M 263.714844 109.355469 C 275.160156 106.070312 286.070312 102.019531 296.285156 97.238281 C 313.875 119.480469 324.707031 147.292969 325.675781 177.554688 L 275.011719 177.554688 C 274.589844 153.25 270.683594 129.953125 263.714844 109.355469 Z M 184.441406 186.433594 L 184.441406 244.480469 C 162.96875 244.804688 142.121094 247.492188 122.636719 252.332031 C 115.859375 232.527344 112.058594 210 111.632812 186.433594 Z M 81.480469 266.75 C 63.890625 244.507812 53.054688 216.695312 52.085938 186.433594 L 102.75 186.433594 C 103.175781 210.738281 107.078125 234.035156 114.046875 254.628906 C 102.605469 257.917969 91.691406 261.96875 81.480469 266.75 Z M 87.421875 273.769531 C 96.667969 269.601562 106.601562 265.984375 117.109375 263 C 120.066406 270.5 123.445312 277.578125 127.242188 284.140625 C 134.421875 296.550781 142.695312 306.496094 151.714844 313.738281 C 126.632812 306.65625 104.457031 292.585938 87.421875 273.769531 Z M 87.421875 273.769531 " fill-opacity="1" fill-rule="nonzero"/><g clip-path="url(#5d74b60a82)"><path fill="#fb452f" d="M 60.355469 145.117188 C 71.222656 145.117188 80.09375 136.429688 80.398438 125.636719 L 90.636719 125.636719 C 94.683594 137.421875 105.871094 145.921875 119.011719 145.921875 L 144.40625 145.921875 C 157.550781 145.921875 168.738281 137.421875 172.785156 125.636719 L 183.023438 125.636719 C 183.328125 136.429688 192.199219 145.117188 203.066406 145.117188 C 214.128906 145.117188 223.125 136.121094 223.125 125.058594 C 223.125 122.222656 222.53125 119.527344 221.464844 117.078125 L 245.601562 107.40625 C 248.664062 106.179688 256.011719 100.574219 251.910156 91.121094 C 249.460938 86.066406 243.730469 83.378906 238.277344 84.734375 L 195.1875 95.457031 L 173.277344 95.457031 C 172.78125 93.324219 172.121094 91.25 171.316406 89.253906 L 189.875 89.253906 C 194.765625 88.570312 194.535156 84.203125 193.84375 82.824219 L 184.894531 64.925781 C 184.144531 63.421875 182.605469 62.472656 180.921875 62.472656 L 147.363281 62.472656 L 143.972656 20.464844 C 143.460938 14.121094 138.074219 9.152344 131.710938 9.152344 C 125.347656 9.152344 119.960938 14.121094 119.449219 20.464844 L 116.058594 62.472656 L 82.496094 62.472656 C 80.816406 62.472656 79.277344 63.421875 78.527344 64.925781 L 69.578125 82.828125 C 68.886719 84.203125 68.6875 88.796875 73.546875 89.253906 L 92.105469 89.253906 C 91.300781 91.25 90.640625 93.324219 90.144531 95.457031 L 68.234375 95.457031 L 25.144531 84.738281 C 19.695312 83.382812 13.960938 86.066406 11.511719 91.121094 C 7.664062 100.910156 14.757812 106.179688 17.820312 107.40625 L 41.957031 117.078125 C 40.890625 119.527344 40.296875 122.222656 40.296875 125.058594 C 40.296875 136.121094 49.292969 145.117188 60.355469 145.117188 Z M 203.066406 136.238281 C 196.902344 136.238281 191.886719 131.222656 191.886719 125.058594 C 191.886719 118.894531 196.902344 113.878906 203.066406 113.878906 C 209.230469 113.878906 214.246094 118.894531 214.246094 125.058594 C 214.246094 131.222656 209.230469 136.238281 203.066406 136.238281 Z M 174.382812 104.339844 L 195.734375 104.339844 C 196.09375 104.339844 240.421875 93.355469 240.421875 93.355469 C 241.828125 93.003906 243.261719 93.78125 243.914062 94.988281 C 244.792969 96.871094 243.09375 98.84375 242.300781 99.164062 L 215.964844 109.714844 C 212.476562 106.777344 207.976562 105 203.066406 105 C 194.96875 105 187.980469 109.828125 184.816406 116.753906 L 174.382812 116.753906 C 174.390625 116.480469 174.390625 104.613281 174.382812 104.339844 Z M 144.410156 137.042969 L 119.011719 137.042969 C 107.367188 137.042969 97.898438 127.570312 97.898438 115.925781 C 97.898438 115.925781 97.898438 104.652344 97.90625 104.390625 L 116.648438 115.273438 C 125.941406 120.667969 137.480469 120.667969 146.773438 115.273438 L 165.515625 104.390625 C 165.523438 104.648438 165.523438 115.925781 165.523438 115.925781 C 165.523438 127.570312 156.050781 137.042969 144.410156 137.042969 Z M 178.179688 71.351562 L 182.6875 80.371094 L 166.433594 80.371094 C 163.988281 76.957031 161.054688 73.914062 157.730469 71.351562 Z M 128.300781 21.179688 C 128.441406 19.414062 129.941406 18.035156 131.710938 18.035156 C 133.480469 18.035156 134.976562 19.414062 135.121094 21.179688 L 138.496094 63.019531 C 136.285156 62.664062 134.019531 62.472656 131.710938 62.472656 C 129.402344 62.472656 127.136719 62.664062 124.921875 63.019531 Z M 131.710938 71.351562 C 146.824219 71.351562 159.648438 81.316406 163.96875 95.023438 L 142.3125 107.59375 C 135.773438 111.390625 127.648438 111.394531 121.109375 107.59375 L 99.453125 95.023438 C 103.773438 81.316406 116.597656 71.351562 131.710938 71.351562 Z M 80.730469 80.371094 L 85.242188 71.351562 L 105.691406 71.351562 C 102.367188 73.914062 99.433594 76.957031 96.988281 80.371094 Z M 60.355469 136.238281 C 54.191406 136.238281 49.175781 131.222656 49.175781 125.058594 C 49.175781 118.894531 54.191406 113.878906 60.355469 113.878906 C 66.519531 113.878906 71.535156 118.894531 71.535156 125.058594 C 71.535156 131.222656 66.519531 136.238281 60.355469 136.238281 Z M 21.125 99.164062 C 20.324219 98.847656 18.546875 97.320312 19.503906 94.992188 C 20.132812 93.695312 21.601562 93.007812 23 93.355469 C 23 93.355469 67.328125 104.339844 67.6875 104.339844 L 89.039062 104.339844 C 89.039062 104.34375 89.03125 116.480469 89.039062 116.753906 L 78.605469 116.753906 C 75.441406 109.828125 68.453125 105 60.355469 105 C 55.445312 105 50.945312 106.777344 47.457031 109.714844 Z M 21.125 99.164062 " fill-opacity="1" fill-rule="nonzero"/></g><path fill="#fb452f" d="M 114.761719 84.746094 L 148.660156 84.746094 L 148.660156 93.628906 L 114.761719 93.628906 Z M 114.761719 84.746094 " fill-opacity="1" fill-rule="nonzero"/><path fill="#fb452f" d="M 269.445312 285.859375 L 278.324219 285.859375 L 278.324219 297.734375 L 269.445312 297.734375 Z M 269.445312 285.859375 " fill-opacity="1" fill-rule="nonzero"/><path fill="#fb452f" d="M 281.085938 285.859375 L 289.96875 285.859375 L 289.96875 297.734375 L 281.085938 297.734375 Z M 281.085938 285.859375 " fill-opacity="1" fill-rule="nonzero"/><path fill="#fb452f" d="M 292.730469 285.859375 L 301.609375 285.859375 L 301.609375 297.734375 L 292.730469 297.734375 Z M 292.730469 285.859375 " fill-opacity="1" fill-rule="nonzero"/><path fill="#fb452f" d="M 315.4375 285.859375 L 324.320312 285.859375 L 324.320312 297.734375 L 315.4375 297.734375 Z M 315.4375 285.859375 " fill-opacity="1" fill-rule="nonzero"/><path fill="#fb452f" d="M 327.082031 285.859375 L 335.964844 285.859375 L 335.964844 297.734375 L 327.082031 297.734375 Z M 327.082031 285.859375 " fill-opacity="1" fill-rule="nonzero"/><path fill="#fb452f" d="M 338.726562 285.859375 L 347.605469 285.859375 L 347.605469 297.734375 L 338.726562 297.734375 Z M 338.726562 285.859375 " fill-opacity="1" fill-rule="nonzero"/><path fill="#fb452f" d="M 292.441406 255.410156 L 301.324219 255.410156 L 301.324219 267.285156 L 292.441406 267.285156 Z M 292.441406 255.410156 " fill-opacity="1" fill-rule="nonzero"/><path fill="#fb452f" d="M 304.085938 255.410156 L 312.964844 255.410156 L 312.964844 267.285156 L 304.085938 267.285156 Z M 304.085938 255.410156 " fill-opacity="1" fill-rule="nonzero"/><path fill="#fb452f" d="M 315.726562 255.410156 L 324.609375 255.410156 L 324.609375 267.285156 L 315.726562 267.285156 Z M 315.726562 255.410156 " fill-opacity="1" fill-rule="nonzero"/><g clip-path="url(#997fed5cc2)"><path fill="#fb452f" d="M 367.445312 330.988281 L 367.445312 307.019531 C 367.445312 304.566406 365.457031 302.578125 363.003906 302.578125 L 358.960938 302.578125 L 358.960938 276.570312 C 358.960938 274.121094 356.972656 272.132812 354.519531 272.132812 L 335.960938 272.132812 L 335.960938 246.125 C 335.960938 243.671875 333.976562 241.683594 331.523438 241.683594 L 285.527344 241.683594 C 283.074219 241.683594 281.085938 243.671875 281.085938 246.125 L 281.085938 272.132812 L 262.53125 272.132812 C 260.078125 272.132812 258.089844 274.121094 258.089844 276.570312 L 258.089844 302.578125 L 253.789062 302.578125 L 253.789062 265.371094 C 253.789062 258.023438 247.8125 252.050781 240.46875 252.050781 L 228 252.050781 L 228 216.972656 C 228 214.519531 226.011719 212.53125 223.5625 212.53125 L 206.464844 212.53125 C 204.011719 212.53125 202.027344 214.519531 202.027344 216.972656 L 202.027344 252.050781 L 201.21875 252.050781 C 193.875 252.050781 187.898438 258.023438 187.898438 265.371094 L 187.898438 287.03125 L 173.9375 287.03125 C 171.488281 287.03125 169.5 289.019531 169.5 291.472656 L 169.5 316.582031 C 169.5 318.1875 170.367188 319.667969 171.765625 320.453125 L 181.453125 325.898438 C 189.898438 330.640625 195.140625 339.605469 195.140625 349.289062 L 195.140625 350.96875 C 194.050781 351.8125 193.121094 352.699219 192.292969 353.492188 C 190.28125 355.984375 184.894531 360.023438 178.714844 353.492188 C 176.089844 350.980469 172.496094 347.542969 165.78125 347.542969 L 161.34375 347.542969 L 161.34375 356.421875 L 165.78125 356.421875 C 168.929688 356.421875 170.300781 357.734375 172.574219 359.90625 C 175.199219 362.417969 178.792969 365.859375 185.503906 365.859375 C 192.214844 365.859375 195.808594 362.417969 198.433594 359.90625 C 200.703125 357.734375 202.074219 356.421875 205.222656 356.421875 C 208.371094 356.421875 209.742188 357.734375 212.011719 359.90625 C 214.636719 362.417969 218.230469 365.859375 224.941406 365.859375 C 231.652344 365.859375 235.246094 362.417969 237.871094 359.90625 C 240.144531 357.734375 241.515625 356.421875 244.660156 356.421875 C 247.808594 356.421875 249.183594 357.734375 251.453125 359.90625 C 254.078125 362.417969 257.671875 365.859375 264.382812 365.859375 C 271.097656 365.859375 274.691406 362.417969 277.316406 359.90625 C 279.585938 357.734375 280.957031 356.421875 284.105469 356.421875 C 287.253906 356.421875 288.625 357.734375 290.898438 359.90625 C 293.523438 362.417969 297.117188 365.859375 303.828125 365.859375 C 310.542969 365.859375 314.136719 362.417969 316.761719 359.90625 C 319.03125 357.734375 320.402344 356.421875 323.554688 356.421875 C 326.703125 356.421875 328.074219 357.734375 330.347656 359.90625 C 332.972656 362.417969 336.566406 365.859375 343.28125 365.859375 C 349.992188 365.859375 353.585938 362.417969 356.210938 359.910156 C 358.484375 357.734375 359.855469 356.421875 363.003906 356.421875 L 367.445312 356.421875 L 367.445312 347.542969 L 363.003906 347.542969 C 356.292969 347.542969 352.695312 350.980469 350.070312 353.492188 C 349.488281 354.050781 348.96875 354.546875 348.457031 354.984375 L 366.390625 333.863281 C 367.070312 333.058594 367.445312 332.042969 367.445312 330.988281 Z M 350.082031 281.011719 L 350.082031 302.578125 L 312.964844 302.578125 L 312.964844 281.011719 Z M 289.96875 250.5625 L 327.082031 250.5625 L 327.082031 272.132812 L 289.96875 272.132812 Z M 266.96875 281.011719 L 304.085938 281.011719 L 304.085938 302.578125 L 266.96875 302.578125 Z M 210.90625 221.414062 L 219.121094 221.414062 L 219.121094 252.050781 L 210.90625 252.050781 Z M 196.777344 265.371094 C 196.777344 262.921875 198.769531 260.929688 201.21875 260.929688 L 240.46875 260.929688 C 242.914062 260.929688 244.90625 262.921875 244.90625 265.371094 L 244.90625 270.359375 L 196.777344 270.359375 Z M 196.777344 279.238281 L 244.90625 279.238281 L 244.90625 302.578125 L 239.152344 302.578125 L 222.453125 288.117188 C 221.648438 287.417969 220.617188 287.03125 219.546875 287.03125 L 196.777344 287.03125 Z M 358.566406 329.359375 L 337.367188 354.328125 C 333.632812 350.9375 330.265625 347.542969 323.554688 347.542969 C 316.839844 347.542969 313.246094 350.980469 310.621094 353.492188 C 308.894531 355.144531 307.6875 356.292969 305.828125 356.753906 L 301.832031 356.753906 C 299.972656 356.292969 298.761719 355.144531 297.039062 353.492188 C 294.414062 350.980469 290.820312 347.542969 284.105469 347.542969 C 277.394531 347.542969 273.800781 350.980469 271.175781 353.492188 C 269.449219 355.144531 268.238281 356.292969 266.378906 356.753906 L 262.386719 356.753906 C 260.527344 356.292969 259.316406 355.144531 257.59375 353.492188 C 254.96875 350.980469 251.375 347.542969 244.660156 347.542969 C 237.949219 347.542969 234.355469 350.980469 231.730469 353.492188 C 230.007812 355.144531 228.796875 356.292969 226.9375 356.753906 L 222.945312 356.753906 C 221.085938 356.292969 219.875 355.144531 218.152344 353.492188 C 215.527344 350.980469 211.816406 347.125 203.964844 347.585938 C 203.378906 335.355469 196.542969 324.1875 185.800781 318.15625 L 178.378906 313.984375 L 178.378906 313.007812 L 210.199219 313.007812 L 226.898438 327.472656 C 227.703125 328.167969 228.738281 328.554688 229.804688 328.554688 L 358.566406 328.554688 Z M 358.566406 319.675781 L 231.460938 319.675781 L 214.761719 305.210938 C 213.953125 304.511719 212.921875 304.128906 211.855469 304.128906 L 178.378906 304.128906 L 178.378906 295.910156 L 217.894531 295.910156 L 234.589844 310.375 C 235.398438 311.074219 236.429688 311.460938 237.496094 311.460938 L 358.566406 311.460938 Z M 358.566406 319.675781 " fill-opacity="1" fill-rule="nonzero"/></g></svg>