<svg xmlns="http://www.w3.org/2000/svg" xmlns:xlink="http://www.w3.org/1999/xlink" width="500" zoomAndPan="magnify" viewBox="0 0 375 374.999991" height="500" preserveAspectRatio="xMidYMid meet" version="1.0"><defs><clipPath id="0ec4a0a09b"><path d="M 16.113281 221 L 175 221 L 175 277 L 16.113281 277 Z M 16.113281 221 " clip-rule="nonzero"/></clipPath><clipPath id="62a2d88478"><path d="M 198 24.253906 L 263 24.253906 L 263 157 L 198 157 Z M 198 24.253906 " clip-rule="nonzero"/></clipPath><clipPath id="69ef3376b0"><path d="M 142 108 L 358.863281 108 L 358.863281 350.503906 L 142 350.503906 Z M 142 108 " clip-rule="nonzero"/></clipPath></defs><g clip-path="url(#0ec4a0a09b)"><path fill="#ffffff" d="M 18.734375 264.90625 C 19.570312 263.261719 21.089844 261.972656 23.019531 261.492188 C 26.558594 260.609375 30.140625 262.761719 31.023438 266.300781 C 31.507812 268.230469 31.082031 270.171875 30.027344 271.683594 C 30.722656 270.316406 30.949219 268.699219 30.546875 267.089844 C 29.664062 263.554688 26.078125 261.402344 22.539062 262.285156 C 20.933594 262.6875 19.617188 263.648438 18.734375 264.90625 Z M 27.402344 274.765625 L 27.527344 274.75 L 27.621094 274.773438 C 27.546875 274.769531 27.472656 274.769531 27.402344 274.765625 Z M 37.082031 271.730469 C 37.082031 271.730469 38.511719 271.574219 41.015625 271.300781 C 41.644531 271.230469 42.335938 271.15625 43.089844 271.074219 C 43.464844 271.03125 43.859375 270.992188 44.265625 270.941406 C 44.671875 270.890625 45.09375 270.839844 45.53125 270.785156 C 46.402344 270.679688 47.328125 270.5625 48.300781 270.441406 C 48.789062 270.378906 49.292969 270.316406 49.804688 270.253906 C 50.316406 270.191406 50.839844 270.128906 51.375 270.050781 C 52.441406 269.898438 53.554688 269.742188 54.707031 269.582031 C 55.859375 269.421875 57.050781 269.261719 58.269531 269.0625 C 59.492188 268.875 60.746094 268.679688 62.027344 268.480469 C 62.671875 268.382812 63.316406 268.269531 63.96875 268.15625 C 64.621094 268.046875 65.28125 267.933594 65.945312 267.820312 C 66.609375 267.707031 67.277344 267.589844 67.953125 267.476562 C 68.628906 267.359375 69.300781 267.222656 69.984375 267.097656 C 70.667969 266.96875 71.351562 266.839844 72.042969 266.710938 C 72.730469 266.578125 73.421875 266.457031 74.117188 266.308594 C 75.5 266.023438 76.898438 265.734375 78.296875 265.445312 C 79.695312 265.136719 81.097656 264.824219 82.5 264.511719 C 83.894531 264.175781 85.289062 263.839844 86.679688 263.503906 C 88.0625 263.144531 89.445312 262.796875 90.808594 262.425781 C 91.488281 262.238281 92.164062 262.050781 92.839844 261.863281 C 93.175781 261.769531 93.515625 261.675781 93.851562 261.582031 C 94.183594 261.484375 94.515625 261.386719 94.847656 261.289062 C 95.507812 261.089844 96.167969 260.894531 96.820312 260.699219 C 97.472656 260.496094 98.117188 260.289062 98.757812 260.089844 C 99.078125 259.988281 99.398438 259.886719 99.714844 259.785156 C 100.027344 259.679688 100.34375 259.574219 100.652344 259.46875 C 101.277344 259.253906 101.898438 259.054688 102.503906 258.839844 C 103.109375 258.621094 103.707031 258.40625 104.300781 258.195312 C 104.894531 257.96875 105.480469 257.746094 106.054688 257.527344 C 108.269531 256.691406 110.171875 255.484375 111.710938 254.128906 C 112.484375 253.453125 113.152344 252.734375 113.742188 252.015625 C 114.046875 251.660156 114.304688 251.289062 114.566406 250.933594 C 114.808594 250.566406 115.054688 250.21875 115.261719 249.855469 C 116.089844 248.5 116.65625 247.035156 117.125 245.902344 C 117.59375 244.753906 117.9375 243.839844 118.167969 243.214844 C 118.394531 242.585938 118.503906 242.261719 118.503906 242.261719 L 118.515625 242.230469 C 118.738281 241.628906 119.40625 241.320312 120.011719 241.542969 C 120.617188 241.765625 120.925781 242.433594 120.703125 243.039062 L 120.699219 243.046875 C 120.699219 243.046875 120.570312 243.398438 120.320312 244.035156 C 120.066406 244.671875 119.691406 245.597656 119.183594 246.769531 C 118.925781 247.355469 118.636719 248 118.308594 248.699219 L 118.277344 248.765625 L 118.234375 248.851562 L 118.167969 248.980469 C 118.125 249.066406 118.082031 249.15625 118.039062 249.242188 C 117.996094 249.332031 117.949219 249.417969 117.902344 249.507812 L 117.832031 249.648438 L 117.753906 249.792969 C 117.644531 249.984375 117.53125 250.183594 117.421875 250.382812 C 117.308594 250.585938 117.179688 250.769531 117.058594 250.964844 C 116.820312 251.363281 116.539062 251.746094 116.253906 252.152344 C 115.953125 252.539062 115.652344 252.945312 115.304688 253.332031 C 114.632812 254.113281 113.867188 254.894531 112.992188 255.617188 C 112.121094 256.347656 111.15625 257.03125 110.09375 257.640625 C 109.039062 258.25 107.882812 258.78125 106.671875 259.210938 C 106.085938 259.414062 105.496094 259.621094 104.894531 259.832031 C 104.285156 260.03125 103.671875 260.234375 103.046875 260.441406 C 102.425781 260.644531 101.792969 260.832031 101.15625 261.03125 C 100.839844 261.132812 100.519531 261.230469 100.195312 261.328125 C 99.875 261.421875 99.550781 261.515625 99.222656 261.613281 C 98.570312 261.800781 97.917969 261.988281 97.253906 262.179688 C 96.589844 262.359375 95.921875 262.539062 95.25 262.722656 C 94.910156 262.8125 94.574219 262.902344 94.234375 262.996094 C 93.894531 263.078125 93.554688 263.164062 93.214844 263.253906 C 92.53125 263.421875 91.84375 263.59375 91.15625 263.765625 C 89.769531 264.105469 88.375 264.417969 86.976562 264.746094 C 85.570312 265.046875 84.15625 265.347656 82.746094 265.648438 C 81.332031 265.925781 79.917969 266.203125 78.507812 266.484375 C 77.09375 266.734375 75.6875 266.988281 74.289062 267.238281 C 73.59375 267.371094 72.894531 267.476562 72.199219 267.589844 C 71.507812 267.703125 70.816406 267.816406 70.128906 267.925781 C 69.441406 268.035156 68.761719 268.152344 68.082031 268.253906 C 67.40625 268.351562 66.730469 268.449219 66.058594 268.546875 C 65.394531 268.644531 64.730469 268.742188 64.074219 268.839844 C 63.417969 268.933594 62.769531 269.03125 62.121094 269.109375 C 60.832031 269.277344 59.570312 269.441406 58.34375 269.601562 C 57.121094 269.765625 55.921875 269.898438 54.765625 270.027344 C 53.609375 270.160156 52.488281 270.289062 51.417969 270.410156 C 50.882812 270.472656 50.355469 270.527344 49.839844 270.578125 C 49.324219 270.628906 48.824219 270.675781 48.335938 270.722656 C 47.355469 270.820312 46.425781 270.914062 45.554688 271 C 45.117188 271.042969 44.695312 271.082031 44.285156 271.125 C 43.878906 271.164062 43.484375 271.191406 43.105469 271.226562 C 42.351562 271.289062 41.652344 271.347656 41.027344 271.398438 C 38.515625 271.609375 37.082031 271.730469 37.082031 271.730469 Z M 124.785156 236.894531 C 124.316406 235.023438 125.457031 233.125 127.332031 232.65625 C 129.207031 232.1875 131.105469 233.324219 131.574219 235.199219 C 132.039062 237.074219 130.898438 238.972656 129.027344 239.4375 C 127.152344 239.90625 125.253906 238.765625 124.785156 236.894531 Z M 143.75 238.925781 C 142.871094 235.40625 145.011719 231.839844 148.53125 230.960938 C 152.050781 230.082031 155.617188 232.222656 156.496094 235.742188 C 157.375 239.261719 155.234375 242.828125 151.71875 243.707031 C 148.195312 244.585938 144.628906 242.445312 143.75 238.925781 Z M 17.378906 269.703125 L 17.355469 269.699219 L 17.382812 269.71875 C 19.726562 276.894531 31.207031 276.078125 37.15625 276.363281 C 38.210938 276.414062 39.265625 276.4375 40.320312 276.46875 C 41.375 276.484375 42.433594 276.503906 43.488281 276.503906 C 45.597656 276.511719 47.710938 276.484375 49.820312 276.414062 C 51.929688 276.347656 54.042969 276.257812 56.152344 276.132812 C 58.257812 276.007812 60.367188 275.863281 62.472656 275.6875 C 64.578125 275.511719 66.679688 275.320312 68.785156 275.101562 C 77.1875 274.234375 85.558594 273.046875 93.894531 271.632812 C 98.0625 270.925781 102.21875 270.160156 106.371094 269.339844 C 111.566406 268.3125 117.222656 268.113281 121.425781 264.636719 C 125.015625 261.667969 127.488281 257.152344 130.265625 253.695312 C 131.796875 251.796875 133.941406 250.484375 136.332031 249.996094 C 139.003906 249.449219 141.789062 249.964844 144.085938 251.4375 L 154.511719 258.117188 L 157.78125 260.210938 C 159.382812 261.234375 161.523438 260.558594 162.242188 258.800781 L 163.925781 254.691406 L 164.179688 254.070312 C 164.273438 253.839844 164.222656 253.574219 164.046875 253.398438 L 162.074219 251.359375 C 160.800781 250.050781 160.433594 248.101562 161.140625 246.410156 L 165.601562 235.777344 C 166.628906 233.332031 169.511719 232.269531 171.878906 233.46875 C 172.207031 233.632812 172.605469 233.484375 172.746094 233.148438 L 174.625 228.554688 C 175.28125 226.953125 174.46875 225.125 172.832031 224.539062 L 166.625 222.316406 C 162.976562 221.011719 159.015625 220.863281 155.285156 221.902344 L 127.050781 229.742188 C 122.28125 231.066406 118.429688 234.585938 116.683594 239.214844 L 114.296875 245.546875 C 112.316406 250.785156 108.078125 254.855469 102.757812 256.601562 C 88.71875 261.214844 59.480469 269.660156 32.179688 270.25 C 32.84375 268.628906 32.976562 266.773438 32.417969 264.945312 C 31.234375 261.074219 27.238281 258.714844 23.273438 259.542969 C 18.867188 260.460938 16.144531 264.847656 17.226562 269.179688 C 17.269531 269.355469 17.324219 269.53125 17.378906 269.703125 " fill-opacity="1" fill-rule="nonzero"/></g><path fill="#ffffff" d="M 48.464844 151.261719 C 47.707031 151.296875 47.003906 151.761719 46.695312 152.511719 L 46.484375 153.019531 L 43.363281 152.265625 C 42.996094 152.179688 42.621094 152.371094 42.476562 152.71875 C 42.332031 153.070312 42.464844 153.46875 42.785156 153.664062 L 45.535156 155.328125 L 45.324219 155.839844 C 45.015625 156.585938 45.191406 157.414062 45.699219 157.972656 L 48.464844 151.261719 " fill-opacity="1" fill-rule="nonzero"/><path fill="#ffffff" d="M 157.03125 197.488281 L 151.617188 195.257812 L 151.941406 194.476562 L 157.351562 196.703125 Z M 154.128906 204.535156 L 148.714844 202.304688 L 150.472656 198.035156 L 155.886719 200.261719 Z M 153.359375 206.40625 L 147.945312 204.179688 L 148.265625 203.394531 L 153.679688 205.625 Z M 112.585938 188.703125 L 125.824219 194.152344 L 125.5 194.9375 L 112.261719 189.488281 Z M 114.792969 183.34375 L 128.03125 188.792969 L 126.269531 193.0625 L 113.035156 187.613281 Z M 134.183594 188.082031 L 131.574219 187.003906 L 131.894531 186.222656 L 134.507812 187.296875 Z M 139.195312 190.144531 L 136.582031 189.070312 L 136.90625 188.285156 L 139.519531 189.359375 Z M 144.207031 192.207031 L 141.59375 191.132812 L 141.917969 190.347656 L 144.53125 191.421875 Z M 146.605469 193.195312 L 146.929688 192.410156 L 149.539062 193.488281 L 149.21875 194.269531 Z M 143.703125 200.242188 L 145.460938 195.972656 L 148.074219 197.046875 L 146.316406 201.316406 Z M 143.253906 201.332031 L 145.867188 202.40625 L 145.546875 203.191406 L 142.933594 202.113281 Z M 138.246094 199.269531 L 140.859375 200.34375 L 140.535156 201.128906 L 137.921875 200.050781 Z M 133.234375 197.203125 L 135.847656 198.28125 L 135.523438 199.0625 L 132.910156 197.988281 Z M 130.835938 196.21875 L 130.511719 197 L 127.902344 195.925781 L 128.222656 195.140625 Z M 131.28125 195.128906 L 128.671875 194.050781 L 130.429688 189.78125 L 133.042969 190.855469 Z M 140.449219 193.90625 L 143.066406 194.984375 L 141.304688 199.253906 L 138.691406 198.179688 Z M 136.292969 197.191406 L 133.683594 196.117188 L 135.441406 191.84375 L 138.054688 192.917969 Z M 116.257812 179.78125 L 129.496094 185.234375 L 129.171875 186.015625 L 115.9375 180.566406 Z M 113.90625 182.132812 L 109.777344 192.164062 L 122.871094 197.554688 C 123.1875 197.683594 123.539062 197.691406 123.859375 197.578125 L 125.570312 196.964844 C 126.105469 196.773438 126.699219 196.984375 126.996094 197.46875 L 127.839844 198.835938 C 128.179688 199.390625 128.863281 199.632812 129.476562 199.414062 L 130.566406 199.023438 C 131.101562 198.832031 131.695312 199.039062 131.992188 199.523438 L 132.832031 200.894531 C 133.175781 201.449219 133.859375 201.691406 134.472656 201.46875 L 135.5625 201.082031 C 136.097656 200.886719 136.691406 201.097656 136.988281 201.582031 L 137.832031 202.953125 C 138.171875 203.507812 138.855469 203.746094 139.46875 203.527344 L 140.5625 203.136719 C 141.09375 202.945312 141.691406 203.15625 141.984375 203.636719 L 142.828125 205.007812 C 143.167969 205.5625 143.855469 205.804688 144.46875 205.585938 L 145.554688 205.195312 C 146.09375 205.003906 146.683594 205.210938 146.984375 205.695312 L 148.039062 207.414062 L 154.613281 207.296875 L 160.527344 192.921875 L 155.945312 188.210938 L 153.984375 188.6875 C 153.4375 188.820312 152.867188 188.550781 152.621094 188.039062 L 152.121094 186.996094 C 151.839844 186.40625 151.1875 186.09375 150.550781 186.25 L 148.988281 186.628906 C 148.4375 186.765625 147.867188 186.492188 147.625 185.984375 L 147.125 184.9375 C 146.84375 184.347656 146.1875 184.039062 145.554688 184.191406 L 143.992188 184.570312 C 143.441406 184.707031 142.871094 184.4375 142.628906 183.921875 L 142.128906 182.878906 C 141.847656 182.292969 141.191406 181.980469 140.558594 182.132812 L 138.996094 182.515625 C 138.445312 182.648438 137.875 182.378906 137.632812 181.867188 L 137.132812 180.820312 C 136.851562 180.234375 136.195312 179.921875 135.5625 180.078125 L 134 180.457031 C 133.449219 180.59375 132.878906 180.320312 132.632812 179.8125 L 131.851562 178.171875 C 131.703125 177.863281 131.449219 177.621094 131.132812 177.488281 L 118.039062 172.097656 L 113.90625 182.132812 " fill-opacity="1" fill-rule="nonzero"/><path fill="#ffffff" d="M 174.472656 205.433594 L 172.476562 204.613281 L 172.789062 203.855469 L 174.785156 204.679688 Z M 172.800781 209.503906 L 170.800781 208.683594 L 171.972656 205.835938 L 173.972656 206.660156 Z M 172.351562 210.589844 L 170.355469 209.769531 L 170.5625 209.261719 L 172.558594 210.082031 Z M 157.617188 203.933594 L 162.074219 205.769531 L 161.867188 206.273438 L 157.410156 204.4375 Z M 159.027344 200.507812 L 163.484375 202.34375 L 162.3125 205.1875 L 157.855469 203.355469 Z M 166.230469 202.042969 L 164.605469 201.371094 L 164.914062 200.613281 L 166.542969 201.285156 Z M 170.378906 203.75 L 166.730469 202.246094 L 167.039062 201.488281 L 170.691406 202.992188 Z M 170.878906 203.957031 L 171.1875 203.199219 L 172.289062 203.648438 L 171.976562 204.40625 Z M 169.199219 208.023438 L 170.375 205.179688 L 171.472656 205.628906 L 170.300781 208.476562 Z M 168.753906 209.113281 L 168.964844 208.605469 L 170.0625 209.058594 L 169.851562 209.566406 Z M 164.316406 206.691406 L 164.105469 207.199219 L 162.480469 206.527344 L 162.691406 206.019531 Z M 164.554688 206.109375 L 162.929688 205.441406 L 164.101562 202.59375 L 165.726562 203.265625 Z M 165.054688 206.316406 L 166.226562 203.472656 L 169.875 204.972656 L 168.703125 207.816406 Z M 164.609375 207.40625 L 164.816406 206.898438 L 168.464844 208.398438 L 168.253906 208.90625 Z M 159.84375 198.527344 L 164.300781 200.363281 L 163.988281 201.117188 L 159.53125 199.28125 Z M 166.738281 197.851562 C 166.40625 197.214844 165.855469 196.714844 165.1875 196.441406 L 160.539062 194.527344 L 158.140625 200.347656 L 158.117188 200.40625 L 158.089844 200.472656 L 155.695312 206.292969 L 160.34375 208.207031 C 161.007812 208.480469 161.75 208.511719 162.4375 208.292969 L 163.921875 207.824219 L 168.183594 209.578125 L 168.5625 211.058594 C 168.65625 211.421875 168.949219 211.695312 169.3125 211.769531 L 171.304688 212.148438 C 172.292969 212.339844 173.273438 211.808594 173.660156 210.875 L 175.089844 207.398438 L 176.523438 203.917969 C 176.90625 202.988281 176.582031 201.917969 175.746094 201.355469 L 174.066406 200.226562 C 173.757812 200.015625 173.355469 200.007812 173.035156 200.199219 L 171.722656 200.984375 L 167.460938 199.230469 L 166.738281 197.851562 " fill-opacity="1" fill-rule="nonzero"/><path fill="#ffffff" d="M 89.148438 167.464844 L 88.25 169.648438 L 86.914062 169.101562 L 87.8125 166.914062 Z M 87.441406 171.609375 L 87.074219 172.503906 L 85.738281 171.953125 L 86.105469 171.0625 Z M 86.363281 174.230469 L 82.84375 182.78125 L 81.507812 182.230469 L 85.027344 173.679688 Z M 82.273438 184.164062 L 81.90625 185.054688 L 80.570312 184.503906 L 80.9375 183.609375 Z M 91.789062 155.457031 L 79.417969 185.496094 C 79.109375 186.25 79.46875 187.109375 80.222656 187.421875 C 80.972656 187.730469 81.835938 187.371094 82.144531 186.617188 L 94.515625 156.578125 C 94.824219 155.828125 94.464844 154.964844 93.710938 154.65625 C 92.960938 154.34375 92.097656 154.707031 91.789062 155.457031 " fill-opacity="1" fill-rule="nonzero"/><path fill="#ffffff" d="M 96.519531 170.5 L 95.621094 172.683594 L 90.859375 170.726562 L 91.757812 168.539062 Z M 94.445312 175.539062 L 89.683594 173.578125 L 90.050781 172.683594 L 94.8125 174.644531 Z M 90.214844 185.816406 L 85.453125 183.855469 L 88.972656 175.304688 L 93.734375 177.265625 Z M 89.277344 188.089844 L 84.515625 186.128906 L 84.882812 185.234375 L 89.644531 187.199219 Z M 82.453125 188.339844 L 89.421875 191.210938 L 102.914062 158.445312 L 95.941406 155.574219 L 82.453125 188.339844 " fill-opacity="1" fill-rule="nonzero"/><path fill="#ffffff" d="M 100.082031 176.609375 L 99.714844 177.503906 L 97.335938 176.523438 L 97.703125 175.628906 Z M 99.007812 179.230469 L 95.484375 187.777344 L 93.101562 186.796875 L 96.625 178.25 Z M 90.96875 189.65625 L 94.988281 191.3125 L 106.9375 162.292969 L 102.917969 160.636719 L 90.96875 189.65625 " fill-opacity="1" fill-rule="nonzero"/><path fill="#ffffff" d="M 116.269531 165.035156 C 116.390625 165.125 116.507812 165.246094 116.605469 165.398438 C 116.8125 165.6875 116.949219 166.101562 116.894531 166.558594 C 116.890625 166.613281 116.878906 166.679688 116.867188 166.726562 L 116.851562 166.804688 L 116.847656 166.816406 L 116.84375 166.832031 L 116.839844 166.851562 L 116.828125 166.890625 C 116.800781 166.992188 116.769531 167.097656 116.742188 167.207031 C 116.679688 167.421875 116.617188 167.644531 116.550781 167.875 C 116.421875 168.335938 116.289062 168.816406 116.136719 169.316406 C 116.101562 169.441406 116.0625 169.570312 116.027344 169.695312 C 115.980469 169.835938 115.925781 169.972656 115.855469 170.105469 C 115.714844 170.371094 115.515625 170.609375 115.265625 170.792969 L 115.167969 170.859375 L 115.125 170.886719 L 115.097656 170.90625 L 115.070312 170.917969 C 115.007812 170.957031 114.9375 170.992188 114.871094 171.027344 C 114.730469 171.089844 114.585938 171.140625 114.4375 171.179688 C 114.132812 171.25 113.808594 171.257812 113.5 171.183594 L 113.378906 171.152344 L 113.320312 171.132812 L 113.222656 171.09375 L 113.167969 171.074219 L 113.070312 171.03125 C 112.945312 170.976562 112.816406 170.925781 112.6875 170.871094 C 112.433594 170.765625 112.179688 170.660156 111.929688 170.554688 C 111.421875 170.347656 110.929688 170.128906 110.453125 169.921875 C 110.214844 169.824219 109.980469 169.722656 109.753906 169.621094 C 109.636719 169.570312 109.523438 169.519531 109.414062 169.46875 C 109.355469 169.445312 109.300781 169.421875 109.246094 169.394531 C 109.183594 169.367188 109.125 169.335938 109.066406 169.304688 C 108.839844 169.171875 108.644531 168.996094 108.5 168.796875 C 108.355469 168.601562 108.253906 168.386719 108.1875 168.171875 C 108.0625 167.738281 108.101562 167.320312 108.210938 166.984375 C 108.238281 166.898438 108.269531 166.820312 108.304688 166.742188 L 108.359375 166.636719 L 108.386719 166.585938 L 108.414062 166.539062 C 108.488281 166.414062 108.554688 166.296875 108.617188 166.191406 C 108.738281 165.980469 108.839844 165.816406 108.90625 165.703125 C 108.972656 165.59375 109.007812 165.53125 109.007812 165.53125 C 109.007812 165.53125 108.976562 165.597656 108.929688 165.714844 C 108.875 165.835938 108.804688 166.011719 108.703125 166.234375 C 108.65625 166.347656 108.601562 166.46875 108.542969 166.601562 L 108.519531 166.652344 L 108.5 166.703125 L 108.460938 166.808594 C 108.433594 166.878906 108.414062 166.953125 108.394531 167.03125 C 108.324219 167.347656 108.328125 167.722656 108.460938 168.082031 C 108.59375 168.441406 108.867188 168.785156 109.246094 168.980469 L 109.390625 169.042969 C 109.445312 169.066406 109.503906 169.085938 109.558594 169.109375 C 109.675781 169.152344 109.789062 169.199219 109.90625 169.242188 C 110.140625 169.328125 110.378906 169.425781 110.621094 169.519531 C 111.105469 169.710938 111.605469 169.902344 112.109375 170.109375 C 112.363281 170.214844 112.617188 170.316406 112.875 170.417969 C 113 170.46875 113.128906 170.523438 113.257812 170.574219 L 113.355469 170.613281 L 113.394531 170.632812 L 113.445312 170.648438 L 113.492188 170.664062 L 113.53125 170.675781 L 113.617188 170.699219 C 113.84375 170.753906 114.089844 170.753906 114.324219 170.699219 C 114.558594 170.648438 114.789062 170.539062 114.980469 170.402344 C 115.171875 170.261719 115.332031 170.085938 115.449219 169.878906 C 115.507812 169.777344 115.558594 169.667969 115.597656 169.558594 C 115.636719 169.433594 115.679688 169.308594 115.71875 169.1875 C 115.882812 168.691406 116.042969 168.214844 116.199219 167.765625 C 116.277344 167.539062 116.351562 167.324219 116.421875 167.109375 C 116.460938 167.003906 116.496094 166.898438 116.535156 166.796875 L 116.554688 166.726562 L 116.578125 166.652344 C 116.597656 166.597656 116.605469 166.554688 116.613281 166.511719 C 116.683594 166.140625 116.601562 165.773438 116.445312 165.496094 C 116.371094 165.359375 116.273438 165.242188 116.175781 165.140625 C 116.078125 165.042969 115.96875 164.96875 115.867188 164.90625 C 115.765625 164.851562 115.667969 164.804688 115.582031 164.761719 C 115.496094 164.71875 115.425781 164.683594 115.367188 164.65625 C 115.25 164.597656 115.1875 164.566406 115.1875 164.566406 C 115.1875 164.566406 115.253906 164.589844 115.378906 164.628906 C 115.441406 164.648438 115.515625 164.675781 115.605469 164.707031 C 115.695312 164.734375 115.796875 164.769531 115.914062 164.816406 C 116.027344 164.871094 116.152344 164.9375 116.269531 165.035156 Z M 112.25 173.425781 C 113.265625 173.84375 113.75 175.007812 113.332031 176.019531 L 109.121094 186.246094 C 108.703125 187.261719 107.542969 187.746094 106.527344 187.328125 L 102.542969 185.6875 C 101.53125 185.269531 101.046875 184.109375 101.464844 183.09375 L 105.675781 172.867188 C 106.09375 171.855469 107.253906 171.367188 108.269531 171.785156 Z M 105.539062 189.722656 C 106.085938 189.949219 106.457031 190.433594 106.609375 191.023438 C 106.726562 191.476562 106.65625 191.960938 106.441406 192.378906 L 105.078125 195.011719 C 104.691406 195.753906 103.804688 196.078125 103.03125 195.757812 L 99.117188 194.148438 C 98.339844 193.828125 97.9375 192.964844 98.195312 192.160156 L 99.109375 189.3125 C 99.324219 188.644531 99.871094 188.125 100.558594 187.992188 C 100.890625 187.925781 101.234375 187.953125 101.558594 188.082031 Z M 110.726562 161.167969 L 109.328125 161.589844 C 108.492188 161.847656 107.808594 162.464844 107.476562 163.277344 L 96.140625 190.804688 C 95.804688 191.617188 95.851562 192.535156 96.273438 193.308594 L 96.964844 194.589844 C 97.28125 195.183594 97.800781 195.648438 98.421875 195.90625 L 99.46875 196.335938 L 101.320312 197.097656 L 102.367188 197.527344 C 102.992188 197.785156 103.683594 197.820312 104.328125 197.625 L 105.722656 197.199219 C 106.5625 196.945312 107.242188 196.328125 107.578125 195.515625 L 118.910156 167.988281 C 119.246094 167.175781 119.199219 166.257812 118.78125 165.484375 L 118.089844 164.203125 C 117.769531 163.609375 117.253906 163.144531 116.628906 162.886719 L 115.585938 162.457031 L 113.730469 161.695312 L 112.683594 161.261719 C 112.0625 161.007812 111.367188 160.972656 110.726562 161.167969 " fill-opacity="1" fill-rule="nonzero"/><path fill="#ffffff" d="M 48.136719 143.054688 C 48.550781 143.238281 48.917969 143.421875 49.25 143.582031 C 49.582031 143.742188 49.867188 143.882812 50.101562 144 C 50.335938 144.117188 50.519531 144.214844 50.648438 144.277344 C 50.769531 144.34375 50.835938 144.378906 50.835938 144.378906 C 50.835938 144.378906 50.765625 144.359375 50.632812 144.316406 C 50.496094 144.273438 50.296875 144.214844 50.050781 144.128906 C 49.800781 144.046875 49.492188 143.949219 49.148438 143.828125 C 48.800781 143.710938 48.410156 143.574219 47.988281 143.425781 C 47.578125 143.28125 47.117188 143.175781 46.625 143.125 C 46.136719 143.078125 45.613281 143.085938 45.089844 143.175781 C 44.5625 143.261719 44.03125 143.421875 43.527344 143.660156 C 43.023438 143.898438 42.546875 144.210938 42.125 144.589844 C 41.914062 144.777344 41.71875 144.980469 41.539062 145.195312 C 41.359375 145.414062 41.195312 145.640625 41.050781 145.878906 C 40.980469 146 40.910156 146.117188 40.847656 146.238281 C 40.789062 146.347656 40.722656 146.5 40.667969 146.613281 C 40.554688 146.878906 40.4375 147.140625 40.324219 147.398438 C 40.101562 147.914062 39.875 148.410156 39.664062 148.878906 C 39.453125 149.351562 39.246094 149.792969 39.054688 150.203125 C 38.867188 150.609375 38.683594 150.980469 38.523438 151.3125 C 38.367188 151.640625 38.222656 151.925781 38.105469 152.160156 C 37.988281 152.398438 37.890625 152.582031 37.828125 152.707031 C 37.761719 152.832031 37.730469 152.898438 37.730469 152.898438 C 37.730469 152.898438 37.75 152.828125 37.792969 152.691406 C 37.835938 152.558594 37.894531 152.359375 37.976562 152.109375 C 38.058594 151.859375 38.160156 151.554688 38.28125 151.210938 C 38.398438 150.863281 38.53125 150.472656 38.683594 150.046875 C 38.835938 149.625 39 149.164062 39.183594 148.683594 C 39.363281 148.199219 39.550781 147.6875 39.753906 147.164062 C 39.855469 146.902344 39.960938 146.636719 40.066406 146.363281 C 40.128906 146.214844 40.171875 146.097656 40.25 145.949219 C 40.316406 145.800781 40.394531 145.667969 40.46875 145.53125 C 40.628906 145.265625 40.804688 145 41.003906 144.757812 C 41.207031 144.511719 41.425781 144.28125 41.660156 144.066406 C 41.898438 143.859375 42.152344 143.664062 42.417969 143.492188 C 42.679688 143.316406 42.960938 143.171875 43.246094 143.042969 C 43.527344 142.914062 43.824219 142.8125 44.117188 142.734375 C 44.410156 142.652344 44.710938 142.597656 45.003906 142.5625 C 45.59375 142.488281 46.167969 142.519531 46.695312 142.609375 C 47.230469 142.695312 47.714844 142.859375 48.136719 143.054688 Z M 53.953125 152.488281 L 53.226562 154.25 L 52.230469 153.839844 L 52.953125 152.078125 Z M 56.089844 153.371094 L 55.367188 155.128906 L 54.386719 154.726562 L 55.109375 152.964844 Z M 58.230469 154.25 L 57.507812 156.011719 L 56.523438 155.609375 L 57.25 153.847656 Z M 60.371094 155.132812 L 59.648438 156.894531 L 58.667969 156.492188 L 59.390625 154.726562 Z M 62.511719 156.011719 L 61.789062 157.773438 L 60.808594 157.371094 L 61.53125 155.609375 Z M 64.652344 156.894531 L 63.929688 158.65625 L 62.945312 158.253906 L 63.671875 156.492188 Z M 66.792969 157.773438 L 66.070312 159.539062 L 65.089844 159.136719 L 65.816406 157.371094 Z M 68.933594 158.65625 L 68.207031 160.417969 L 67.230469 160.015625 L 67.953125 158.253906 Z M 71.078125 159.539062 L 70.351562 161.300781 L 69.371094 160.898438 L 70.09375 159.136719 Z M 73.214844 160.417969 L 72.492188 162.183594 L 71.511719 161.777344 L 72.238281 160.019531 Z M 75.355469 161.300781 L 74.632812 163.066406 L 73.652344 162.660156 L 74.375 160.898438 Z M 77.5 162.183594 L 76.773438 163.945312 L 75.792969 163.542969 L 76.519531 161.78125 Z M 79.636719 163.066406 L 78.910156 164.828125 L 77.933594 164.421875 L 78.660156 162.664062 Z M 81.78125 163.945312 L 81.054688 165.707031 L 80.074219 165.304688 L 80.796875 163.542969 Z M 83.921875 164.828125 L 83.195312 166.589844 L 82.214844 166.183594 L 82.941406 164.425781 Z M 85.335938 165.410156 L 84.609375 167.171875 L 84.355469 167.066406 L 85.078125 165.304688 Z M 52.355469 156.363281 L 52.054688 157.089844 L 51.0625 156.679688 L 51.359375 155.953125 Z M 54.496094 157.246094 L 54.195312 157.96875 L 53.214844 157.566406 L 53.515625 156.839844 Z M 56.636719 158.125 L 56.335938 158.851562 L 55.359375 158.449219 L 55.65625 157.722656 Z M 58.777344 159.007812 L 58.476562 159.734375 L 57.5 159.328125 L 57.796875 158.605469 Z M 60.917969 159.890625 L 60.621094 160.613281 L 59.636719 160.210938 L 59.9375 159.484375 Z M 63.058594 160.769531 L 62.757812 161.496094 L 61.78125 161.089844 L 62.078125 160.367188 Z M 65.199219 161.652344 L 64.898438 162.375 L 63.917969 161.972656 L 64.21875 161.246094 Z M 67.339844 162.535156 L 67.042969 163.257812 L 66.058594 162.855469 L 66.359375 162.128906 Z M 69.480469 163.414062 L 69.179688 164.140625 L 68.203125 163.734375 L 68.5 163.011719 Z M 71.621094 164.296875 L 71.324219 165.019531 L 70.339844 164.617188 L 70.640625 163.890625 Z M 73.761719 165.175781 L 73.464844 165.902344 L 72.484375 165.496094 L 72.78125 164.773438 Z M 75.902344 166.058594 L 75.601562 166.785156 L 74.625 166.378906 L 74.921875 165.65625 Z M 78.042969 166.941406 L 77.746094 167.664062 L 76.761719 167.261719 L 77.0625 166.535156 Z M 80.183594 167.820312 L 79.886719 168.546875 L 78.90625 168.144531 L 79.203125 167.417969 Z M 82.324219 168.703125 L 82.027344 169.425781 L 81.042969 169.023438 L 81.34375 168.300781 Z M 83.738281 169.285156 L 83.4375 170.011719 L 83.1875 169.90625 L 83.484375 169.179688 Z M 51.140625 159.308594 L 49.175781 164.085938 L 48.179688 163.675781 L 50.144531 158.898438 Z M 53.28125 160.191406 L 51.316406 164.96875 L 50.335938 164.5625 L 52.300781 159.785156 Z M 55.425781 161.074219 L 53.457031 165.847656 L 52.476562 165.445312 L 54.441406 160.667969 Z M 57.5625 161.953125 L 55.597656 166.730469 L 54.617188 166.324219 L 56.582031 161.546875 Z M 59.703125 162.835938 L 57.738281 167.613281 L 56.757812 167.207031 L 58.722656 162.429688 Z M 61.84375 163.714844 L 59.878906 168.492188 L 58.898438 168.089844 L 60.867188 163.3125 Z M 63.984375 164.597656 L 62.019531 169.375 L 61.039062 168.96875 L 63.003906 164.191406 Z M 66.128906 165.480469 L 64.160156 170.257812 L 63.179688 169.851562 L 65.144531 165.074219 Z M 68.265625 166.359375 L 66.300781 171.136719 L 65.320312 170.730469 L 67.289062 165.957031 Z M 70.40625 167.242188 L 68.441406 172.019531 L 67.460938 171.613281 L 69.425781 166.835938 Z M 72.550781 168.121094 L 70.582031 172.898438 L 69.601562 172.496094 L 71.566406 167.71875 Z M 74.6875 169.003906 L 72.722656 173.78125 L 71.742188 173.378906 L 73.710938 168.601562 Z M 76.832031 169.886719 L 74.863281 174.660156 L 73.882812 174.257812 L 75.847656 169.480469 Z M 78.972656 170.765625 L 77.003906 175.542969 L 76.023438 175.140625 L 77.992188 170.363281 Z M 81.109375 171.648438 L 79.144531 176.425781 L 78.164062 176.023438 L 80.132812 171.246094 Z M 82.527344 172.230469 L 80.558594 177.007812 L 80.304688 176.902344 L 82.269531 172.128906 Z M 48.433594 165.890625 L 48.132812 166.613281 L 47.136719 166.203125 L 47.4375 165.480469 Z M 50.574219 166.769531 L 50.273438 167.496094 L 49.292969 167.09375 L 49.59375 166.367188 Z M 52.710938 167.652344 L 52.414062 168.378906 L 51.433594 167.976562 L 51.734375 167.25 Z M 54.855469 168.535156 L 54.554688 169.257812 L 53.574219 168.855469 L 53.875 168.132812 Z M 56.996094 169.414062 L 56.695312 170.140625 L 55.714844 169.738281 L 56.015625 169.011719 Z M 59.136719 170.296875 L 58.835938 171.023438 L 57.859375 170.617188 L 58.152344 169.894531 Z M 61.277344 171.179688 L 60.976562 171.902344 L 59.996094 171.5 L 60.296875 170.777344 Z M 63.414062 172.058594 L 63.121094 172.785156 L 62.136719 172.378906 L 62.4375 171.65625 Z M 65.558594 172.941406 L 65.257812 173.667969 L 64.28125 173.261719 L 64.578125 172.539062 Z M 67.699219 173.824219 L 67.398438 174.546875 L 66.417969 174.144531 L 66.71875 173.417969 Z M 69.839844 174.703125 L 69.542969 175.429688 L 68.558594 175.023438 L 68.859375 174.300781 Z M 71.980469 175.585938 L 71.679688 176.3125 L 70.699219 175.90625 L 71 175.183594 Z M 74.121094 176.46875 L 73.824219 177.191406 L 72.839844 176.785156 L 73.140625 176.0625 Z M 76.261719 177.347656 L 75.960938 178.074219 L 74.984375 177.667969 L 75.28125 176.945312 Z M 78.402344 178.230469 L 78.101562 178.953125 L 77.121094 178.550781 L 77.421875 177.824219 Z M 79.816406 178.8125 L 79.515625 179.539062 L 79.261719 179.429688 L 79.5625 178.707031 Z M 59.054688 144.765625 C 58.5625 144.566406 57.789062 145.226562 57.101562 146.355469 C 57.40625 145.070312 57.324219 144.054688 56.832031 143.851562 C 56.773438 143.828125 56.71875 143.820312 56.65625 143.816406 L 54.945312 144.433594 L 54.257812 144.148438 L 50.859375 142.75 L 48.617188 141.828125 C 44.96875 140.324219 40.792969 142.066406 39.292969 145.714844 L 36.628906 152.171875 C 36.394531 152.746094 36.667969 153.402344 37.242188 153.636719 L 38.953125 154.34375 C 39.527344 154.578125 40.183594 154.304688 40.417969 153.730469 L 43.074219 147.273438 C 43.71875 145.714844 45.503906 144.972656 47.058594 145.613281 L 50.535156 147.042969 L 47.367188 154.734375 L 42.667969 166.148438 L 45.453125 167.292969 L 46.277344 169.027344 C 46.320312 169.070312 46.371094 169.101562 46.425781 169.125 C 46.921875 169.328125 47.691406 168.664062 48.378906 167.539062 C 48.074219 168.820312 48.152344 169.835938 48.648438 170.039062 C 49.144531 170.242188 49.917969 169.578125 50.601562 168.453125 C 50.300781 169.738281 50.378906 170.753906 50.875 170.957031 C 51.371094 171.160156 52.140625 170.496094 52.828125 169.371094 C 52.523438 170.652344 52.605469 171.667969 53.101562 171.871094 C 53.59375 172.078125 54.367188 171.414062 55.054688 170.285156 C 54.75 171.570312 54.832031 172.585938 55.324219 172.789062 C 55.820312 172.992188 56.589844 172.328125 57.28125 171.199219 C 56.976562 172.488281 57.054688 173.5 57.550781 173.707031 C 58.046875 173.90625 58.816406 173.246094 59.503906 172.117188 C 59.203125 173.402344 59.28125 174.417969 59.777344 174.621094 C 60.273438 174.824219 61.042969 174.160156 61.730469 173.035156 C 61.425781 174.320312 61.507812 175.332031 62 175.535156 C 62.496094 175.742188 63.269531 175.078125 63.957031 173.953125 C 63.652344 175.234375 63.734375 176.25 64.226562 176.453125 C 64.722656 176.65625 65.492188 175.992188 66.183594 174.867188 C 65.875 176.148438 65.957031 177.164062 66.449219 177.371094 C 66.949219 177.574219 67.71875 176.910156 68.40625 175.78125 C 68.101562 177.066406 68.179688 178.082031 68.675781 178.285156 C 69.171875 178.488281 69.945312 177.824219 70.628906 176.699219 C 70.328125 177.984375 70.40625 178.996094 70.902344 179.203125 C 71.398438 179.40625 72.167969 178.742188 72.855469 177.617188 C 72.550781 178.902344 72.632812 179.914062 73.128906 180.117188 C 73.621094 180.320312 74.394531 179.660156 75.082031 178.53125 C 74.777344 179.816406 74.859375 180.832031 75.351562 181.035156 C 75.847656 181.238281 76.617188 180.574219 77.308594 179.449219 C 77.003906 180.730469 77.082031 181.746094 77.578125 181.949219 C 78.074219 182.15625 78.84375 181.492188 79.53125 180.363281 C 79.261719 181.511719 79.296875 182.445312 79.660156 182.773438 L 81.082031 179.324219 L 82.5 175.875 L 87.199219 164.460938 L 90.042969 157.5625 C 89.550781 157.539062 88.871094 158.175781 88.253906 159.179688 C 88.558594 157.898438 88.480469 156.882812 87.984375 156.679688 C 87.488281 156.472656 86.71875 157.136719 86.03125 158.265625 C 86.332031 156.980469 86.253906 155.964844 85.757812 155.761719 C 85.261719 155.558594 84.492188 156.222656 83.804688 157.351562 C 84.109375 156.066406 84.027344 155.050781 83.53125 154.847656 C 83.039062 154.644531 82.265625 155.308594 81.578125 156.433594 C 81.882812 155.148438 81.800781 154.136719 81.308594 153.929688 C 80.8125 153.726562 80.042969 154.390625 79.351562 155.515625 C 79.660156 154.230469 79.578125 153.21875 79.082031 153.015625 C 78.589844 152.808594 77.816406 153.472656 77.128906 154.597656 C 77.433594 153.316406 77.351562 152.300781 76.859375 152.097656 C 76.363281 151.894531 75.589844 152.558594 74.902344 153.683594 C 75.207031 152.402344 75.128906 151.386719 74.632812 151.183594 C 74.136719 150.976562 73.363281 151.640625 72.679688 152.769531 C 72.980469 151.484375 72.902344 150.46875 72.40625 150.265625 C 71.914062 150.0625 71.140625 150.726562 70.453125 151.851562 C 70.757812 150.566406 70.675781 149.554688 70.183594 149.347656 C 69.6875 149.144531 68.914062 149.808594 68.226562 150.933594 C 68.53125 149.652344 68.449219 148.636719 67.957031 148.433594 C 67.460938 148.230469 66.691406 148.890625 66.003906 150.019531 C 66.304688 148.734375 66.226562 147.71875 65.730469 147.519531 C 65.234375 147.3125 64.464844 147.976562 63.777344 149.101562 C 64.082031 147.820312 64 146.804688 63.503906 146.601562 C 63.011719 146.398438 62.238281 147.0625 61.550781 148.1875 C 61.855469 146.902344 61.773438 145.890625 61.28125 145.683594 C 60.789062 145.480469 60.015625 146.144531 59.324219 147.269531 C 59.632812 145.984375 59.550781 144.972656 59.054688 144.765625 " fill-opacity="1" fill-rule="nonzero"/><path fill="#ffffff" d="M 135.261719 71.90625 C 135 72.140625 134.726562 72.386719 134.445312 72.636719 L 117.792969 53.886719 L 117.804688 53.882812 C 118.558594 53.710938 119.34375 53.980469 119.855469 54.558594 Z M 128.054688 78.265625 C 127.621094 78.652344 127.128906 79.09375 126.59375 79.570312 L 109.640625 60.480469 L 111.105469 59.183594 Z M 125.296875 80.730469 C 125.148438 80.863281 125 80.996094 124.847656 81.132812 L 107.890625 62.035156 L 108.339844 61.636719 Z M 123.652344 82.195312 C 122.03125 83.648438 120.273438 85.214844 118.597656 86.703125 L 101.628906 67.59375 L 106.695312 63.097656 Z M 115.589844 89.378906 C 115.304688 89.628906 115.03125 89.871094 114.769531 90.105469 L 99.363281 72.757812 C 98.851562 72.179688 98.675781 71.371094 98.933594 70.644531 L 98.9375 70.628906 Z M 115.25 53.53125 L 99.054688 67.914062 C 97.421875 69.363281 97.273438 71.863281 98.722656 73.496094 L 114.953125 91.773438 L 137.066406 72.136719 L 120.835938 53.859375 C 119.386719 52.226562 116.886719 52.078125 115.25 53.53125 Z M 148.355469 121.621094 L 158.621094 104.75 C 158.746094 104.542969 159.015625 104.476562 159.226562 104.605469 C 159.433594 104.730469 159.5 105.003906 159.375 105.210938 L 149.109375 122.082031 L 149.023438 122.183594 C 148.882812 122.308594 148.671875 122.332031 148.503906 122.230469 C 148.296875 122.101562 148.230469 121.832031 148.355469 121.621094 Z M 148.113281 125.710938 C 149.375 126.476562 151.019531 126.074219 151.785156 124.808594 L 162.601562 106.949219 C 163.367188 105.683594 162.964844 104.039062 161.699219 103.273438 C 160.4375 102.507812 158.792969 102.914062 158.027344 104.175781 L 147.210938 122.039062 C 146.445312 123.300781 146.847656 124.945312 148.113281 125.710938 Z M 134.746094 78.234375 L 124.484375 95.101562 L 124.402344 95.203125 C 124.257812 95.332031 124.050781 95.355469 123.878906 95.25 C 123.671875 95.125 123.605469 94.851562 123.730469 94.644531 L 133.996094 77.777344 C 134.121094 77.566406 134.394531 77.5 134.601562 77.625 C 134.808594 77.753906 134.875 78.027344 134.746094 78.234375 Z M 133.46875 76.527344 L 122.65625 94.386719 C 121.890625 95.652344 122.292969 97.296875 123.558594 98.058594 C 124.820312 98.824219 126.464844 98.421875 127.230469 97.160156 L 138.046875 79.296875 C 138.8125 78.03125 138.410156 76.386719 137.144531 75.621094 C 135.878906 74.859375 134.234375 75.261719 133.46875 76.527344 Z M 95.882812 51.328125 C 96.664062 49.246094 98.984375 48.195312 101.066406 48.976562 C 101.761719 49.238281 102.339844 49.667969 102.773438 50.207031 C 102.4375 49.902344 102.035156 49.652344 101.585938 49.480469 C 99.652344 48.753906 97.5 49.730469 96.769531 51.660156 C 96.042969 53.59375 97.019531 55.746094 98.953125 56.472656 C 99.40625 56.644531 99.871094 56.722656 100.328125 56.714844 C 99.648438 56.832031 98.925781 56.773438 98.230469 56.511719 C 96.152344 55.730469 95.101562 53.40625 95.882812 51.328125 Z M 102.347656 55.308594 C 101.109375 56.410156 99.214844 56.296875 98.113281 55.058594 C 97.015625 53.820312 97.128906 51.925781 98.367188 50.824219 C 99.605469 49.726562 101.5 49.839844 102.601562 51.078125 C 103.699219 52.316406 103.585938 54.210938 102.347656 55.308594 Z M 101.578125 59.617188 L 103.5 61.785156 L 108.636719 57.21875 L 106.714844 55.054688 C 107.386719 52.898438 106.945312 50.457031 105.335938 48.648438 C 102.894531 45.894531 98.6875 45.644531 95.9375 48.089844 C 93.1875 50.53125 92.933594 54.742188 95.378906 57.492188 C 96.984375 59.300781 99.359375 60.027344 101.578125 59.617188 Z M 177.152344 142.289062 L 181.539062 147.226562 L 179.226562 149.28125 L 174.839844 144.339844 Z M 177.917969 141.609375 L 178.222656 141.335938 L 182.609375 146.277344 L 182.304688 146.546875 Z M 179.117188 140.542969 L 179.90625 139.839844 L 184.292969 144.78125 L 183.503906 145.480469 Z M 185.460938 134.90625 L 185.765625 134.640625 L 190.152344 139.578125 L 189.847656 139.847656 Z M 176.660156 151.558594 L 175.960938 152.183594 L 171.574219 147.242188 L 172.273438 146.621094 Z M 167.339844 142.804688 C 167.199219 142.929688 166.988281 142.957031 166.816406 142.851562 C 166.609375 142.726562 166.542969 142.453125 166.671875 142.246094 L 176.933594 125.375 C 177.0625 125.167969 177.332031 125.101562 177.539062 125.230469 C 177.75 125.355469 177.8125 125.625 177.6875 125.832031 L 167.425781 142.707031 Z M 181.019531 127.6875 C 181.785156 126.421875 181.378906 124.777344 180.113281 124.011719 C 178.855469 123.246094 177.207031 123.652344 176.441406 124.914062 L 165.625 142.773438 C 164.890625 143.988281 165.234375 145.550781 166.378906 146.351562 L 166.324219 146.402344 L 168.160156 148.46875 C 168.65625 149.023438 169.507812 149.074219 170.066406 148.582031 L 170.75 147.972656 L 175.644531 153.480469 L 191.167969 139.691406 L 186.277344 134.183594 L 186.964844 133.574219 C 187.519531 133.078125 187.570312 132.226562 187.078125 131.671875 L 185.242188 129.601562 L 173.59375 139.945312 Z M 130.039062 101 L 140.304688 84.128906 C 140.429688 83.921875 140.703125 83.851562 140.910156 83.980469 C 141.117188 84.109375 141.183594 84.378906 141.058594 84.585938 L 130.792969 101.457031 L 130.710938 101.558594 C 130.566406 101.683594 130.355469 101.710938 130.1875 101.605469 C 129.980469 101.476562 129.914062 101.207031 130.039062 101 Z M 129.695312 104.972656 C 130.957031 105.738281 132.605469 105.335938 133.371094 104.070312 L 144.183594 86.210938 C 144.953125 84.945312 144.546875 83.300781 143.285156 82.535156 C 142.019531 81.773438 140.375 82.175781 139.609375 83.4375 L 128.792969 101.300781 C 128.027344 102.5625 128.433594 104.210938 129.695312 104.972656 Z M 142.207031 114.699219 L 152.46875 97.828125 C 152.597656 97.621094 152.867188 97.554688 153.078125 97.679688 C 153.285156 97.808594 153.351562 98.078125 153.222656 98.289062 L 142.960938 115.160156 L 142.875 115.257812 C 142.734375 115.382812 142.523438 115.410156 142.355469 115.304688 C 142.148438 115.179688 142.082031 114.90625 142.207031 114.699219 Z M 141.972656 118.800781 C 143.238281 119.566406 144.882812 119.160156 145.644531 117.898438 L 156.464844 100.035156 C 157.230469 98.769531 156.824219 97.128906 155.5625 96.363281 C 154.296875 95.59375 152.652344 96 151.886719 97.261719 L 141.070312 115.125 C 140.304688 116.390625 140.710938 118.035156 141.972656 118.800781 Z M 160.523438 135.324219 L 170.785156 118.453125 C 170.914062 118.246094 171.183594 118.179688 171.390625 118.304688 C 171.597656 118.433594 171.667969 118.703125 171.539062 118.910156 L 161.277344 135.78125 L 161.191406 135.882812 C 161.050781 136.007812 160.839844 136.03125 160.667969 135.929688 C 160.460938 135.804688 160.394531 135.53125 160.523438 135.324219 Z M 160.390625 139.539062 C 161.65625 140.304688 163.296875 139.898438 164.0625 138.632812 L 174.878906 120.773438 C 175.644531 119.511719 175.242188 117.863281 173.976562 117.101562 C 172.714844 116.335938 171.070312 116.738281 170.304688 118.003906 L 159.488281 135.863281 C 158.722656 137.128906 159.128906 138.773438 160.390625 139.539062 Z M 136.125 107.847656 L 146.386719 90.980469 C 146.515625 90.773438 146.785156 90.707031 146.992188 90.832031 C 147.203125 90.957031 147.269531 91.230469 147.140625 91.4375 L 136.875 108.308594 L 136.792969 108.40625 C 136.652344 108.535156 136.441406 108.558594 136.269531 108.457031 C 136.0625 108.328125 135.996094 108.058594 136.125 107.847656 Z M 135.835938 111.886719 C 137.097656 112.652344 138.742188 112.246094 139.507812 110.984375 L 150.324219 93.121094 C 151.089844 91.859375 150.683594 90.214844 149.421875 89.449219 C 148.15625 88.683594 146.511719 89.085938 145.746094 90.351562 L 134.933594 108.210938 C 134.167969 109.476562 134.570312 111.121094 135.835938 111.886719 Z M 205.695312 166.785156 C 206.230469 168.941406 204.910156 171.125 202.75 171.65625 C 200.59375 172.1875 198.410156 170.867188 197.878906 168.710938 C 197.703125 167.988281 197.730469 167.265625 197.925781 166.605469 C 197.867188 167.058594 197.886719 167.527344 198.003906 168 C 198.496094 170 200.519531 171.226562 202.523438 170.734375 C 204.527344 170.242188 205.75 168.214844 205.257812 166.210938 C 205.140625 165.742188 204.941406 165.316406 204.679688 164.945312 C 205.160156 165.4375 205.519531 166.066406 205.695312 166.785156 Z M 199.59375 164.8125 C 200.863281 163.683594 202.804688 163.800781 203.929688 165.070312 C 205.058594 166.339844 204.941406 168.28125 203.675781 169.40625 C 202.402344 170.535156 200.460938 170.417969 199.335938 169.148438 C 198.207031 167.878906 198.324219 165.9375 199.59375 164.8125 Z M 200.382812 160.402344 L 198.414062 158.183594 L 193.148438 162.859375 L 195.121094 165.078125 C 194.433594 167.285156 194.886719 169.785156 196.53125 171.640625 C 199.03125 174.457031 203.34375 174.710938 206.164062 172.210938 C 208.980469 169.710938 209.238281 165.398438 206.734375 162.578125 C 205.085938 160.726562 202.65625 159.980469 200.382812 160.402344 Z M 154.441406 128.472656 L 164.703125 111.605469 C 164.832031 111.394531 165.101562 111.328125 165.308594 111.453125 C 165.515625 111.582031 165.582031 111.851562 165.457031 112.0625 L 155.191406 128.929688 L 155.109375 129.03125 C 154.964844 129.160156 154.753906 129.179688 154.585938 129.078125 C 154.378906 128.953125 154.3125 128.679688 154.441406 128.472656 Z M 154.25 132.625 C 155.515625 133.390625 157.160156 132.988281 157.925781 131.722656 L 168.742188 113.859375 C 169.507812 112.597656 169.101562 110.949219 167.839844 110.1875 C 166.574219 109.421875 164.929688 109.824219 164.167969 111.089844 L 153.347656 128.953125 C 152.582031 130.214844 152.988281 131.859375 154.25 132.625 Z M 180.078125 154.671875 L 180.664062 154.152344 L 189.4375 164.03125 L 189.429688 164.035156 C 188.9375 164.195312 188.390625 164.035156 188.046875 163.648438 Z M 182.816406 152.238281 L 184.753906 150.519531 L 193.664062 160.554688 L 191.726562 162.273438 Z M 185.394531 149.949219 L 185.652344 149.722656 L 194.5625 159.757812 L 194.304688 159.984375 Z M 186.402344 149.058594 L 187.0625 148.46875 L 195.972656 158.503906 L 195.3125 159.089844 Z M 191.722656 144.332031 L 191.976562 144.109375 L 199.992188 153.136719 C 200.183594 153.347656 200.277344 153.632812 200.234375 153.914062 L 200.234375 153.917969 Z M 179.183594 154.851562 L 187.070312 163.734375 C 188.019531 164.800781 189.65625 164.902344 190.726562 163.949219 L 199.785156 155.90625 C 200.851562 154.957031 200.949219 153.320312 200 152.25 L 192.113281 143.371094 C 192.699219 142.523438 192.652344 141.363281 191.941406 140.558594 L 176.414062 154.347656 C 177.125 155.152344 178.273438 155.332031 179.183594 154.851562 " fill-opacity="1" fill-rule="nonzero"/><path fill="#ffffff" d="M 145.21875 108.277344 L 142.800781 105.550781 L 141.851562 107.117188 L 144.269531 109.84375 L 145.21875 108.277344 " fill-opacity="1" fill-rule="nonzero"/><path fill="#ffffff" d="M 153.648438 121.730469 L 153.171875 122.523438 L 155.589844 125.246094 L 156.070312 124.457031 L 153.648438 121.730469 " fill-opacity="1" fill-rule="nonzero"/><path fill="#ffffff" d="M 158.695312 113.398438 L 157.292969 115.714844 L 159.714844 118.441406 L 161.117188 116.125 L 158.695312 113.398438 " fill-opacity="1" fill-rule="nonzero"/><path fill="#ffffff" d="M 151.359375 115.191406 L 148.9375 112.464844 L 147.988281 114.03125 L 150.410156 116.753906 L 151.359375 115.191406 " fill-opacity="1" fill-rule="nonzero"/><path fill="#ffffff" d="M 145.015625 101.886719 L 147.4375 104.613281 L 148.835938 102.296875 L 146.417969 99.574219 L 145.015625 101.886719 " fill-opacity="1" fill-rule="nonzero"/><path fill="#ffffff" d="M 138.128906 102.929688 L 139.078125 101.363281 L 136.660156 98.640625 L 135.710938 100.203125 L 138.128906 102.929688 " fill-opacity="1" fill-rule="nonzero"/><path fill="#ffffff" d="M 141.371094 107.90625 L 140.890625 108.699219 L 143.3125 111.425781 L 143.792969 110.632812 L 141.371094 107.90625 " fill-opacity="1" fill-rule="nonzero"/><path fill="#ffffff" d="M 141.300781 97.703125 L 142.699219 95.386719 L 140.277344 92.660156 L 138.878906 94.976562 L 141.300781 97.703125 " fill-opacity="1" fill-rule="nonzero"/><path fill="#ffffff" d="M 151.15625 108.800781 L 153.574219 111.527344 L 154.976562 109.210938 L 152.558594 106.488281 L 151.15625 108.800781 " fill-opacity="1" fill-rule="nonzero"/><path fill="#ffffff" d="M 147.507812 114.820312 L 147.03125 115.609375 L 149.453125 118.335938 L 149.929688 117.546875 L 147.507812 114.820312 " fill-opacity="1" fill-rule="nonzero"/><path fill="#ffffff" d="M 158.933594 113.003906 L 161.355469 115.726562 L 161.992188 114.679688 L 159.570312 111.953125 L 158.933594 113.003906 " fill-opacity="1" fill-rule="nonzero"/><path fill="#ffffff" d="M 140.519531 92.265625 L 142.941406 94.992188 L 143.574219 93.941406 L 141.15625 91.214844 L 140.519531 92.265625 " fill-opacity="1" fill-rule="nonzero"/><path fill="#ffffff" d="M 152.796875 106.089844 L 155.214844 108.816406 L 155.851562 107.765625 L 153.433594 105.042969 L 152.796875 106.089844 " fill-opacity="1" fill-rule="nonzero"/><path fill="#ffffff" d="M 146.65625 99.179688 L 149.078125 101.90625 L 149.714844 100.851562 L 147.292969 98.128906 L 146.65625 99.179688 " fill-opacity="1" fill-rule="nonzero"/><path fill="#ffffff" d="M 157.496094 122.101562 L 155.078125 119.378906 L 154.128906 120.941406 L 156.550781 123.667969 L 157.496094 122.101562 " fill-opacity="1" fill-rule="nonzero"/><path fill="#ffffff" d="M 175.710938 136.453125 L 176.511719 137.355469 L 178.445312 135.636719 L 177.113281 134.136719 L 175.710938 136.453125 " fill-opacity="1" fill-rule="nonzero"/><path fill="#ffffff" d="M 135.234375 100.996094 L 134.753906 101.785156 L 137.175781 104.511719 L 137.65625 103.71875 L 135.234375 100.996094 " fill-opacity="1" fill-rule="nonzero"/><path fill="#ffffff" d="M 131.035156 97.597656 L 131.515625 96.804688 L 129.140625 94.132812 L 129.796875 93.546875 L 131.992188 96.019531 L 132.941406 94.449219 L 131.105469 92.386719 L 134.164062 89.667969 L 135.160156 90.789062 L 136.5625 88.472656 L 136.097656 87.949219 L 136.425781 87.660156 L 136.800781 88.078125 L 137.4375 87.027344 L 137.304688 86.878906 L 137.785156 86.453125 L 138.527344 85.226562 L 138.015625 84.648438 L 136.496094 85.996094 L 135.003906 84.320312 L 132.453125 88.535156 L 132.957031 89.105469 L 132.578125 89.445312 L 132.175781 88.992188 L 131.839844 89.546875 L 132.117188 89.851562 L 131.117188 90.738281 L 128.613281 94.875 L 131.035156 97.597656 " fill-opacity="1" fill-rule="nonzero"/><path fill="#ffffff" d="M 168.128906 121.589844 L 165.710938 118.863281 L 165.074219 119.917969 L 167.492188 122.640625 L 168.128906 121.589844 " fill-opacity="1" fill-rule="nonzero"/><path fill="#ffffff" d="M 165.929688 135.558594 L 165.449219 136.347656 L 167.867188 139.074219 L 168.347656 138.28125 L 165.929688 135.558594 " fill-opacity="1" fill-rule="nonzero"/><path fill="#ffffff" d="M 172.941406 123.976562 L 172.574219 124.578125 L 174.996094 127.300781 L 175.359375 126.703125 L 172.941406 123.976562 " fill-opacity="1" fill-rule="nonzero"/><path fill="#ffffff" d="M 171.851562 125.777344 L 171.214844 126.828125 L 173.632812 129.554688 L 174.269531 128.503906 L 171.851562 125.777344 " fill-opacity="1" fill-rule="nonzero"/><path fill="#ffffff" d="M 169.570312 129.539062 L 171.992188 132.265625 L 173.394531 129.949219 L 170.972656 127.222656 L 169.570312 129.539062 " fill-opacity="1" fill-rule="nonzero"/><path fill="#ffffff" d="M 177.351562 133.742188 L 178.777344 135.34375 L 179.652344 134.566406 L 177.988281 132.691406 L 177.351562 133.742188 " fill-opacity="1" fill-rule="nonzero"/><path fill="#ffffff" d="M 178.714844 131.488281 L 180.65625 133.671875 L 181.160156 133.230469 L 179.078125 130.890625 L 178.714844 131.488281 " fill-opacity="1" fill-rule="nonzero"/><path fill="#ffffff" d="M 127.015625 87.1875 L 123.972656 83.765625 L 122.570312 85.007812 L 125.996094 88.863281 L 127.015625 87.1875 " fill-opacity="1" fill-rule="nonzero"/><path fill="#ffffff" d="M 125.503906 82.40625 L 128.125 85.355469 L 128.457031 84.808594 L 125.964844 82 L 125.503906 82.40625 " fill-opacity="1" fill-rule="nonzero"/><path fill="#ffffff" d="M 128.734375 84.351562 L 131.289062 80.132812 L 129.863281 78.53125 L 126.34375 81.660156 L 128.734375 84.351562 " fill-opacity="1" fill-rule="nonzero"/><path fill="#ffffff" d="M 169.773438 135.929688 L 167.351562 133.203125 L 166.40625 134.765625 L 168.828125 137.492188 L 169.773438 135.929688 " fill-opacity="1" fill-rule="nonzero"/><path fill="#ffffff" d="M 168.859375 120.390625 L 169.222656 119.789062 L 166.800781 117.0625 L 166.4375 117.664062 L 168.859375 120.390625 " fill-opacity="1" fill-rule="nonzero"/><path fill="#ffffff" d="M 162.71875 113.476562 L 163.082031 112.875 L 160.664062 110.152344 L 160.300781 110.75 L 162.71875 113.476562 " fill-opacity="1" fill-rule="nonzero"/><path fill="#ffffff" d="M 156.582031 106.566406 L 156.945312 105.960938 L 154.523438 103.238281 L 154.160156 103.839844 L 156.582031 106.566406 " fill-opacity="1" fill-rule="nonzero"/><path fill="#ffffff" d="M 164.835938 120.3125 L 163.433594 122.625 L 165.851562 125.351562 L 167.253906 123.039062 L 164.835938 120.3125 " fill-opacity="1" fill-rule="nonzero"/><path fill="#ffffff" d="M 163.636719 129.015625 L 161.214844 126.289062 L 160.265625 127.855469 L 162.6875 130.582031 L 163.636719 129.015625 " fill-opacity="1" fill-rule="nonzero"/><path fill="#ffffff" d="M 159.789062 128.644531 L 159.308594 129.4375 L 161.726562 132.160156 L 162.207031 131.367188 L 159.789062 128.644531 " fill-opacity="1" fill-rule="nonzero"/><path fill="#ffffff" d="M 144.300781 92.738281 L 144.667969 92.136719 L 142.246094 89.410156 L 141.882812 90.015625 L 144.300781 92.738281 " fill-opacity="1" fill-rule="nonzero"/><path fill="#ffffff" d="M 150.441406 99.652344 L 150.804688 99.050781 L 148.386719 96.324219 L 148.023438 96.925781 L 150.441406 99.652344 " fill-opacity="1" fill-rule="nonzero"/><path fill="#ffffff" d="M 236.695312 57.039062 C 236.324219 55.183594 234.328125 54.839844 234.328125 54.839844 L 237.351562 70.058594 C 237.351562 70.058594 238.292969 70 239.289062 70.082031 L 236.695312 57.039062 " fill-opacity="1" fill-rule="nonzero"/><path fill="#ffffff" d="M 214.8125 61.386719 C 214.445312 59.53125 216.15625 58.453125 216.15625 58.453125 L 219.183594 73.671875 C 219.183594 73.671875 218.292969 73.976562 217.40625 74.433594 L 214.8125 61.386719 " fill-opacity="1" fill-rule="nonzero"/><g clip-path="url(#62a2d88478)"><path fill="#ffffff" d="M 241.75 33.632812 C 241.75 33.632812 240.671875 33.203125 239.59375 33.359375 L 239.289062 31.839844 C 239.289062 31.839844 240.691406 31.714844 241.453125 32.128906 Z M 228.664062 35.097656 L 227.652344 35.300781 L 227.210938 33.09375 L 228.226562 32.890625 Z M 225.296875 35.519531 C 225.296875 35.519531 221.515625 36.136719 217.171875 37.136719 L 216.824219 35.371094 C 216.824219 35.371094 221.523438 34.183594 224.945312 33.757812 Z M 214.65625 37.882812 L 213.644531 38.085938 L 213.207031 35.875 L 214.21875 35.675781 Z M 203.152344 40.601562 C 202.09375 40.871094 201.261719 41.679688 201.261719 41.679688 L 200.960938 40.175781 C 201.507812 39.5 202.851562 39.082031 202.851562 39.082031 Z M 240.605469 31.109375 C 236.273438 31.34375 229.328125 31.976562 220.816406 33.667969 L 220.609375 33.710938 C 212.097656 35.398438 205.4375 37.46875 201.34375 38.914062 C 200.601562 39.175781 199.996094 39.699219 199.617188 40.355469 L 200.152344 43.042969 C 200.609375 42.628906 201.148438 42.300781 201.75 42.085938 C 205.890625 40.628906 212.628906 38.535156 221.222656 36.828125 L 221.441406 36.785156 C 230.035156 35.074219 237.0625 34.433594 241.445312 34.199219 C 242.082031 34.164062 242.707031 34.257812 243.285156 34.457031 L 242.753906 31.769531 C 242.152344 31.3125 241.398438 31.066406 240.605469 31.109375 Z M 227.609375 156.554688 L 231.0625 155.871094 L 230.746094 154.265625 L 227.292969 154.949219 Z M 240.835938 29.023438 C 240.835938 29.023438 239.394531 28.699219 238.726562 29.003906 L 238.054688 25.628906 C 238.054688 25.628906 239.460938 25.527344 240.414062 26.914062 Z M 227.585938 29.683594 L 226.574219 29.886719 L 225.960938 26.804688 L 226.976562 26.605469 Z M 224.269531 30.34375 C 224.269531 30.34375 220.464844 30.851562 216.148438 31.957031 L 215.5 28.710938 C 215.5 28.710938 220.160156 27.316406 223.625 27.097656 Z M 213.582031 32.46875 L 212.570312 32.671875 L 211.957031 29.589844 L 212.96875 29.390625 Z M 202.285156 36.25 C 201.550781 36.21875 200.347656 37.074219 200.347656 37.074219 L 199.925781 34.964844 C 200.277344 33.3125 201.617188 32.871094 201.617188 32.871094 Z M 238.015625 24.429688 C 234.277344 24.628906 227.585938 25.207031 219.351562 26.851562 C 211.117188 28.480469 204.714844 30.507812 201.183594 31.75 C 199.425781 32.371094 198.390625 34.183594 198.753906 36.011719 L 199.226562 38.40625 C 199.6875 37.996094 200.226562 37.664062 200.828125 37.453125 C 204.972656 35.992188 211.707031 33.898438 220.308594 32.191406 C 220.375 32.175781 220.445312 32.164062 220.515625 32.148438 C 229.113281 30.4375 236.140625 29.796875 240.523438 29.5625 C 241.164062 29.527344 241.785156 29.621094 242.363281 29.824219 L 241.890625 27.4375 C 241.527344 25.609375 239.875 24.328125 238.015625 24.429688 Z M 230.605469 83.457031 C 229.027344 83.769531 228 85.308594 228.3125 86.886719 L 233.140625 111.171875 C 233.453125 112.746094 234.992188 113.773438 236.570312 113.460938 C 238.144531 113.148438 239.175781 111.609375 238.859375 110.035156 L 234.03125 85.75 C 233.71875 84.171875 232.183594 83.144531 230.605469 83.457031 Z M 239.875 109.832031 C 240.296875 111.964844 238.90625 114.050781 236.769531 114.476562 C 234.632812 114.898438 232.550781 113.507812 232.128906 111.371094 L 227.300781 87.085938 C 226.875 84.953125 228.265625 82.871094 230.402344 82.445312 C 232.539062 82.019531 234.621094 83.414062 235.046875 85.546875 Z M 231.441406 116.792969 C 231.449219 117.054688 231.457031 117.441406 231.425781 117.929688 C 231.371094 118.902344 231.203125 120.316406 230.648438 121.925781 C 230.375 122.730469 230.003906 123.585938 229.488281 124.429688 C 228.976562 125.269531 228.335938 126.109375 227.542969 126.847656 C 227.148438 127.222656 226.71875 127.570312 226.261719 127.894531 C 226.035156 128.054688 225.796875 128.207031 225.558594 128.355469 C 225.3125 128.5 225.066406 128.632812 224.835938 128.761719 C 224.367188 129.019531 223.960938 129.289062 223.746094 129.628906 C 223.527344 129.960938 223.46875 130.425781 223.5 130.929688 C 223.523438 131.425781 223.632812 131.945312 223.738281 132.496094 C 223.84375 133.042969 223.949219 133.582031 224.054688 134.121094 C 224.265625 135.191406 224.445312 136.257812 224.636719 137.277344 C 225.007812 139.332031 225.332031 141.25 225.589844 142.898438 C 226.121094 146.195312 226.382812 148.40625 226.382812 148.40625 C 226.382812 148.40625 225.78125 146.261719 225.007812 143.015625 C 224.617188 141.390625 224.1875 139.492188 223.742188 137.457031 C 223.527344 136.4375 223.289062 135.386719 223.074219 134.316406 C 222.964844 133.777344 222.855469 133.238281 222.742188 132.695312 C 222.636719 132.164062 222.503906 131.59375 222.46875 130.976562 C 222.457031 130.675781 222.460938 130.359375 222.523438 130.03125 C 222.585938 129.707031 222.699219 129.371094 222.894531 129.074219 C 223.292969 128.476562 223.875 128.15625 224.355469 127.890625 C 224.851562 127.625 225.285156 127.390625 225.722656 127.101562 C 226.152344 126.820312 226.554688 126.511719 226.929688 126.179688 C 227.675781 125.515625 228.320312 124.777344 228.839844 124.015625 C 229.359375 123.246094 229.773438 122.464844 230.097656 121.714844 C 230.742188 120.210938 231.050781 118.855469 231.222656 117.902344 C 231.304688 117.429688 231.359375 117.050781 231.386719 116.789062 C 231.414062 116.535156 231.421875 116.375 231.429688 116.40625 C 231.421875 116.378906 231.433594 116.535156 231.441406 116.792969 Z M 255.582031 120.957031 L 255.28125 119.433594 L 251.828125 120.121094 L 251.910156 120.542969 C 247.835938 119.433594 244.601562 116.101562 243.746094 111.777344 L 243.167969 108.839844 L 237.4375 79.828125 C 236.996094 77.585938 236.921875 75.304688 237.191406 73.066406 C 234.371094 73.140625 231.554688 73.457031 228.785156 74.003906 L 228.785156 74 L 228.757812 74.007812 L 228.726562 74.011719 L 228.726562 74.015625 C 225.960938 74.566406 223.238281 75.355469 220.601562 76.363281 C 221.707031 78.328125 222.511719 80.460938 222.964844 82.707031 L 228.761719 111.703125 L 229.347656 114.640625 C 230.21875 118.984375 228.480469 123.320312 225.105469 125.898438 L 225.015625 125.449219 L 221.566406 126.136719 L 221.871094 127.671875 C 221.152344 128.105469 220.761719 128.949219 220.929688 129.796875 L 225.679688 153.695312 L 226.183594 153.59375 L 226.230469 153.824219 C 226.347656 154.410156 226.917969 154.792969 227.503906 154.675781 L 230.441406 154.089844 C 231.027344 153.972656 231.410156 153.40625 231.292969 152.816406 L 231.222656 152.46875 C 232.238281 152.019531 233.089844 151.246094 233.628906 150.253906 C 230.640625 148.230469 228.410156 145.078125 227.652344 141.257812 C 226.125 133.5625 231.113281 126.089844 238.800781 124.542969 C 246.496094 123.03125 253.964844 128.027344 255.496094 135.722656 C 256.253906 139.542969 255.402344 143.308594 253.410156 146.324219 C 254.273438 147.023438 255.332031 147.40625 256.421875 147.445312 L 256.492188 147.808594 C 256.609375 148.394531 257.179688 148.777344 257.769531 148.660156 L 260.703125 148.078125 C 261.289062 147.960938 261.671875 147.390625 261.558594 146.804688 L 261.511719 146.570312 L 262.070312 146.460938 L 257.324219 122.5625 C 257.148438 121.695312 256.4375 121.058594 255.582031 120.957031 Z M 242.6875 38.335938 C 242.6875 38.335938 241.605469 37.90625 240.527344 38.0625 L 240.226562 36.542969 C 240.226562 36.542969 241.625 36.417969 242.386719 36.832031 Z M 229.550781 39.558594 L 228.539062 39.757812 L 228.097656 37.550781 L 229.113281 37.351562 Z M 226.199219 40.050781 C 226.199219 40.050781 222.414062 40.667969 218.074219 41.664062 L 217.726562 39.902344 C 217.726562 39.902344 222.425781 38.714844 225.847656 38.285156 Z M 215.542969 42.34375 L 214.53125 42.542969 L 214.09375 40.335938 L 215.105469 40.132812 Z M 204.085938 45.304688 C 203.027344 45.574219 202.195312 46.382812 202.195312 46.382812 L 201.898438 44.878906 C 202.441406 44.207031 203.785156 43.789062 203.785156 43.789062 Z M 241.527344 35.746094 C 237.195312 35.980469 230.25 36.609375 221.742188 38.300781 L 221.527344 38.347656 C 213.019531 40.039062 206.359375 42.109375 202.265625 43.550781 C 201.519531 43.8125 200.917969 44.332031 200.539062 44.992188 L 201.070312 47.675781 C 201.53125 47.265625 202.070312 46.933594 202.671875 46.722656 C 206.816406 45.265625 213.554688 43.167969 222.144531 41.460938 L 222.363281 41.417969 C 230.957031 39.710938 237.980469 39.070312 242.367188 38.832031 C 243.003906 38.796875 243.628906 38.894531 244.207031 39.09375 L 243.675781 36.40625 C 243.074219 35.949219 242.320312 35.703125 241.527344 35.746094 Z M 243.34375 147.546875 C 238.34375 148.542969 233.484375 145.292969 232.492188 140.292969 C 231.496094 135.292969 234.746094 130.433594 239.746094 129.4375 C 244.746094 128.445312 249.605469 131.691406 250.597656 136.695312 C 251.59375 141.695312 248.34375 146.554688 243.34375 147.546875 Z M 243.5 149.609375 C 237.386719 150.828125 231.449219 146.855469 230.230469 140.742188 C 229.015625 134.628906 232.988281 128.691406 239.097656 127.476562 C 239.199219 127.457031 239.300781 127.441406 239.398438 127.421875 C 233.457031 128.769531 229.632812 134.609375 230.828125 140.625 C 232.023438 146.636719 237.789062 150.574219 243.796875 149.542969 C 243.695312 149.566406 243.597656 149.589844 243.5 149.609375 Z M 239.039062 125.894531 C 232.082031 127.277344 227.558594 134.039062 228.945312 141 C 230.324219 147.960938 237.089844 152.480469 244.046875 151.09375 C 251.007812 149.710938 255.527344 142.949219 254.144531 135.988281 C 252.761719 129.03125 246 124.511719 239.039062 125.894531 Z M 248.890625 69.554688 C 249.203125 71.128906 247.066406 70.96875 247.066406 70.96875 L 241.164062 41.269531 C 242.402344 41.023438 243.34375 41.652344 243.34375 41.652344 Z M 240.074219 70.707031 C 239.945312 70.703125 239.816406 70.699219 239.683594 70.699219 C 232.023438 70.617188 224.382812 72.136719 217.335938 75.140625 C 217.214844 75.191406 217.09375 75.242188 216.976562 75.292969 L 214.179688 61.222656 C 213.851562 59.578125 214.925781 57.976562 216.570312 57.648438 L 233.703125 54.242188 C 235.347656 53.914062 236.949219 54.988281 237.277344 56.632812 Z M 215.175781 45.78125 L 216.1875 45.582031 L 218.371094 56.558594 L 217.359375 56.761719 Z M 218.8125 45.386719 C 218.8125 45.386719 222.636719 43.894531 226.9375 43.769531 L 229.058594 54.433594 L 220.933594 56.046875 Z M 229.183594 43 L 230.195312 42.796875 L 232.375 53.773438 L 231.363281 53.976562 Z M 210.628906 78.210938 C 210.628906 78.210938 208.714844 79.175781 208.402344 77.601562 L 202.855469 49.703125 C 202.855469 49.703125 203.488281 48.757812 204.722656 48.511719 Z M 242.453125 40.378906 C 238.09375 40.617188 231.117188 41.242188 222.558594 42.960938 L 222.449219 42.980469 C 213.945312 44.671875 207.285156 46.742188 203.1875 48.183594 C 202.441406 48.445312 201.839844 48.972656 201.460938 49.625 L 207.230469 78.667969 C 207.347656 79.238281 207.902344 79.613281 208.472656 79.5 L 211.261719 78.941406 C 212.351562 78.726562 213.402344 78.351562 214.378906 77.820312 C 215.066406 77.449219 216.015625 76.96875 217.203125 76.425781 C 217.320312 76.375 217.4375 76.320312 217.5625 76.265625 C 224.582031 73.140625 232.222656 71.621094 239.90625 71.824219 C 240.039062 71.828125 240.167969 71.832031 240.296875 71.835938 C 241.601562 71.878906 242.664062 71.964844 243.441406 72.046875 C 244.546875 72.160156 245.660156 72.105469 246.75 71.890625 L 249.539062 71.335938 C 250.113281 71.222656 250.480469 70.667969 250.371094 70.09375 L 244.59375 41.042969 C 243.996094 40.585938 243.242188 40.339844 242.453125 40.378906 Z M 257.875 150.539062 L 261.324219 149.851562 L 261.007812 148.25 L 257.554688 148.933594 L 257.875 150.539062 " fill-opacity="1" fill-rule="nonzero"/></g><path fill="#ffffff" d="M 228.175781 68.605469 C 228.105469 68.625 228.03125 68.648438 227.957031 68.660156 C 225.613281 69.128906 223.332031 67.605469 222.871094 65.261719 C 222.402344 62.917969 223.925781 60.640625 226.269531 60.171875 C 226.34375 60.15625 226.417969 60.148438 226.496094 60.140625 C 224.277344 60.699219 222.863281 62.902344 223.316406 65.171875 C 223.765625 67.441406 225.914062 68.933594 228.175781 68.605469 Z M 225.816406 59.378906 C 223.140625 59.914062 221.421875 62.625 221.984375 65.4375 C 222.542969 68.25 225.164062 70.097656 227.84375 69.5625 C 230.519531 69.03125 232.238281 66.320312 231.679688 63.507812 C 231.121094 60.695312 228.496094 58.847656 225.816406 59.378906 " fill-opacity="1" fill-rule="nonzero"/><path fill="#ffffff" d="M 281.09375 203.855469 C 282.210938 202.777344 283.710938 203.480469 283.710938 203.480469 L 274.578125 212.3125 C 274.578125 212.3125 273.972656 211.832031 273.265625 211.425781 L 281.09375 203.855469 " fill-opacity="1" fill-rule="nonzero"/><path fill="#ffffff" d="M 293.796875 216.988281 C 294.910156 215.910156 294.257812 214.386719 294.257812 214.386719 L 285.125 223.21875 C 285.125 223.21875 285.582031 223.839844 285.964844 224.558594 L 293.796875 216.988281 " fill-opacity="1" fill-rule="nonzero"/><path fill="#ffffff" d="M 289.511719 184.871094 C 290.21875 184.945312 291.101562 185.683594 291.101562 185.683594 L 290.1875 186.5625 C 289.535156 185.953125 288.609375 185.742188 288.609375 185.742188 Z M 298.058594 191.550781 L 298.644531 192.160156 L 297.320312 193.441406 L 296.730469 192.835938 Z M 299.859375 193.664062 C 301.964844 195.546875 304.574219 198.539062 304.574219 198.539062 L 303.515625 199.5625 C 301.0625 196.867188 298.800781 194.6875 298.800781 194.6875 Z M 306.1875 199.957031 L 306.773438 200.566406 L 305.449219 201.847656 L 304.859375 201.238281 Z M 312.25 207.554688 C 312.25 207.554688 312.957031 208.460938 313.007812 209.171875 L 312.109375 210.042969 C 312.109375 210.042969 311.925781 209.109375 311.339844 208.4375 Z M 288.804688 184.023438 L 287.1875 185.582031 C 287.675781 185.714844 288.136719 185.945312 288.550781 186.265625 C 291.390625 188.46875 295.820312 192.175781 300.808594 197.335938 L 300.933594 197.464844 C 305.921875 202.625 309.480469 207.175781 311.589844 210.089844 C 311.894531 210.511719 312.105469 210.988281 312.21875 211.480469 L 313.835938 209.917969 C 313.882812 209.300781 313.722656 208.667969 313.34375 208.140625 C 311.257812 205.261719 307.742188 200.761719 302.800781 195.652344 L 302.683594 195.53125 C 297.742188 190.421875 293.363281 186.757812 290.554688 184.578125 C 290.042969 184.179688 289.421875 183.992188 288.804688 184.023438 Z M 241.753906 274.144531 L 239.75 272.074219 L 238.789062 273.003906 L 240.792969 275.078125 Z M 292.640625 181.84375 C 293.929688 181.355469 294.828125 182.078125 294.828125 182.078125 L 292.800781 184.039062 C 292.496094 183.515625 291.375 183.066406 291.375 183.066406 Z M 301.832031 187.902344 L 302.417969 188.511719 L 300.570312 190.296875 L 299.984375 189.691406 Z M 303.855469 189.796875 C 306.089844 191.5625 308.574219 194.671875 308.574219 194.671875 L 306.625 196.558594 C 304.234375 193.800781 301.910156 191.683594 301.910156 191.683594 Z M 309.960938 196.308594 L 310.546875 196.917969 L 308.699219 198.707031 L 308.113281 198.097656 Z M 315.976562 203.949219 C 315.976562 203.949219 316.671875 204.871094 316.140625 206.144531 L 314.871094 207.371094 C 314.871094 207.371094 314.460938 206.234375 313.953125 205.910156 Z M 291.402344 181.507812 L 289.972656 182.890625 C 290.457031 183.023438 290.917969 183.253906 291.332031 183.574219 C 294.175781 185.777344 298.601562 189.488281 303.59375 194.648438 L 303.714844 194.773438 C 308.707031 199.933594 312.261719 204.484375 314.371094 207.398438 C 314.675781 207.824219 314.886719 208.296875 315.003906 208.789062 L 316.441406 207.398438 C 317.535156 206.339844 317.683594 204.632812 316.792969 203.398438 C 314.996094 200.914062 311.628906 196.5625 306.847656 191.625 C 302.070312 186.679688 297.835938 183.171875 295.414062 181.289062 C 294.207031 180.355469 292.5 180.445312 291.402344 181.507812 Z M 269.492188 224.421875 L 254.917969 238.515625 C 253.972656 239.429688 253.945312 240.945312 254.863281 241.890625 C 255.777344 242.839844 257.292969 242.863281 258.238281 241.949219 L 272.8125 227.855469 C 273.761719 226.9375 273.785156 225.425781 272.871094 224.476562 C 271.957031 223.53125 270.441406 223.503906 269.492188 224.421875 Z M 268.90625 223.8125 C 270.1875 222.574219 272.238281 222.609375 273.480469 223.890625 C 274.71875 225.171875 274.683594 227.222656 273.402344 228.460938 L 258.828125 242.554688 C 257.546875 243.792969 255.492188 243.761719 254.253906 242.480469 C 253.015625 241.199219 253.050781 239.144531 254.332031 237.90625 Z M 256.949219 246.273438 C 256.964844 246.253906 256.898438 246.367188 256.796875 246.550781 C 256.699219 246.734375 256.558594 247.015625 256.386719 247.375 C 256.058594 248.097656 255.636719 249.152344 255.371094 250.464844 C 255.234375 251.121094 255.152344 251.839844 255.140625 252.597656 C 255.136719 253.355469 255.226562 254.152344 255.417969 254.949219 C 255.515625 255.34375 255.644531 255.742188 255.800781 256.132812 C 255.960938 256.53125 256.144531 256.890625 256.355469 257.300781 C 256.554688 257.703125 256.792969 258.191406 256.785156 258.777344 C 256.78125 259.070312 256.699219 259.347656 256.589844 259.597656 C 256.476562 259.84375 256.335938 260.058594 256.183594 260.257812 C 255.871094 260.65625 255.515625 260.976562 255.195312 261.285156 C 254.867188 261.601562 254.542969 261.914062 254.21875 262.21875 C 253.574219 262.84375 252.925781 263.4375 252.304688 264.023438 C 251.054688 265.1875 249.878906 266.265625 248.859375 267.175781 C 246.828125 269 245.417969 270.164062 245.417969 270.164062 C 245.417969 270.164062 246.628906 268.796875 248.523438 266.824219 C 249.464844 265.835938 250.578125 264.699219 251.785156 263.488281 C 252.390625 262.890625 253.007812 262.257812 253.652344 261.632812 C 253.972656 261.320312 254.296875 261.003906 254.621094 260.6875 C 254.949219 260.367188 255.265625 260.066406 255.515625 259.742188 C 255.765625 259.421875 255.945312 259.082031 255.957031 258.753906 C 255.96875 258.425781 255.820312 258.058594 255.621094 257.664062 C 255.527344 257.472656 255.425781 257.265625 255.324219 257.050781 C 255.234375 256.839844 255.148438 256.628906 255.070312 256.414062 C 254.914062 255.980469 254.785156 255.546875 254.695312 255.113281 C 254.503906 254.246094 254.464844 253.378906 254.515625 252.578125 C 254.5625 251.769531 254.707031 251.019531 254.898438 250.351562 C 255.277344 249.007812 255.824219 247.980469 256.242188 247.296875 C 256.449219 246.953125 256.636719 246.699219 256.757812 246.523438 C 256.882812 246.355469 256.964844 246.253906 256.949219 246.273438 Z M 236.648438 238.335938 L 222.304688 252.207031 L 222.628906 252.542969 L 222.492188 252.679688 C 222.140625 253.019531 222.132812 253.582031 222.472656 253.933594 L 224.175781 255.695312 C 224.515625 256.046875 225.082031 256.058594 225.433594 255.71875 L 225.648438 255.507812 C 226.398438 255.988281 227.292969 256.222656 228.199219 256.152344 C 228.265625 253.195312 229.449219 250.265625 231.742188 248.046875 C 236.359375 243.582031 243.71875 243.703125 248.191406 248.308594 C 252.644531 252.933594 252.519531 260.292969 247.902344 264.757812 C 245.605469 266.976562 242.636719 268.058594 239.679688 268.027344 C 239.578125 268.945312 239.792969 269.863281 240.269531 270.640625 L 240.058594 270.839844 C 239.707031 271.183594 239.695312 271.746094 240.035156 272.097656 L 241.742188 273.859375 C 242.082031 274.210938 242.644531 274.222656 242.996094 273.882812 L 243.132812 273.746094 L 243.429688 274.050781 L 257.769531 260.179688 C 258.277344 259.6875 258.410156 258.9375 258.128906 258.3125 L 259.050781 257.421875 L 257.046875 255.351562 L 256.777344 255.613281 C 255.710938 252.300781 256.5625 248.570312 259.171875 246.050781 L 260.9375 244.347656 L 278.367188 227.539062 C 279.714844 226.234375 281.25 225.175781 282.914062 224.367188 C 281.609375 222.460938 280.144531 220.660156 278.539062 218.996094 L 278.503906 218.960938 C 276.898438 217.300781 275.144531 215.777344 273.285156 214.410156 C 272.417969 216.042969 271.3125 217.542969 269.964844 218.851562 L 252.578125 235.703125 L 250.816406 237.410156 C 248.226562 239.921875 244.496094 240.652344 241.234375 239.503906 L 241.488281 239.257812 L 239.484375 237.1875 L 238.570312 238.070312 C 237.945312 237.738281 237.167969 237.835938 236.648438 238.335938 Z M 286.6875 187.597656 C 287.394531 187.675781 288.277344 188.414062 288.277344 188.414062 L 287.367188 189.292969 C 286.710938 188.683594 285.785156 188.472656 285.785156 188.472656 Z M 295.378906 194.140625 L 295.96875 194.746094 L 294.644531 196.027344 L 294.054688 195.421875 Z M 297.140625 196.292969 C 299.246094 198.175781 301.855469 201.167969 301.855469 201.167969 L 300.796875 202.191406 C 298.34375 199.496094 296.082031 197.316406 296.082031 197.316406 Z M 303.511719 202.546875 L 304.097656 203.152344 L 302.773438 204.4375 L 302.183594 203.828125 Z M 309.425781 210.285156 C 309.425781 210.285156 310.132812 211.191406 310.1875 211.902344 L 309.285156 212.773438 C 309.285156 212.773438 309.101562 211.839844 308.515625 211.167969 Z M 286.023438 186.714844 L 284.40625 188.273438 C 284.890625 188.40625 285.351562 188.632812 285.765625 188.957031 C 288.609375 191.160156 293.039062 194.867188 298.027344 200.027344 L 298.152344 200.15625 C 303.140625 205.3125 306.695312 209.867188 308.804688 212.78125 C 309.113281 213.203125 309.320312 213.675781 309.4375 214.167969 L 311.050781 212.609375 C 311.101562 211.992188 310.9375 211.355469 310.558594 210.832031 C 308.476562 207.953125 304.960938 203.453125 300.023438 198.347656 L 299.898438 198.21875 C 294.960938 193.113281 290.582031 189.445312 287.773438 187.265625 C 287.261719 186.871094 286.636719 186.683594 286.023438 186.714844 Z M 234.582031 250.988281 C 237.585938 248.085938 242.371094 248.164062 245.273438 251.164062 C 248.175781 254.167969 248.09375 258.953125 245.09375 261.855469 C 242.09375 264.757812 237.308594 264.675781 234.40625 261.675781 C 231.503906 258.671875 231.582031 253.886719 234.582031 250.988281 Z M 233.171875 262.808594 C 236.730469 266.300781 242.449219 266.34375 246.058594 262.851562 C 249.667969 259.363281 249.816406 253.648438 246.449219 249.972656 C 246.503906 250.027344 246.566406 250.082031 246.625 250.144531 C 250.171875 253.8125 250.074219 259.664062 246.402344 263.210938 C 242.738281 266.757812 236.886719 266.660156 233.339844 262.988281 C 233.28125 262.929688 233.226562 262.867188 233.171875 262.808594 Z M 232.523438 248.855469 C 228.347656 252.894531 228.238281 259.558594 232.273438 263.734375 C 236.3125 267.910156 242.976562 268.023438 247.152344 263.984375 C 251.328125 259.941406 251.441406 253.285156 247.402344 249.105469 C 243.363281 244.929688 236.703125 244.820312 232.523438 248.855469 Z M 283.792969 190.398438 C 283.792969 190.398438 284.722656 190.414062 285.441406 191.15625 L 267.613281 208.394531 C 267.613281 208.394531 266.101562 207.503906 267.046875 206.589844 Z M 280.890625 203.308594 C 281.882812 202.355469 283.457031 202.378906 284.414062 203.371094 L 294.355469 213.648438 C 295.3125 214.640625 295.285156 216.214844 294.296875 217.171875 L 285.847656 225.339844 C 285.792969 225.25 285.738281 225.160156 285.683594 225.066406 C 282.339844 219.761719 277.902344 215.171875 272.714844 211.65625 C 272.621094 211.59375 272.535156 211.535156 272.445312 211.476562 Z M 294.242188 212.6875 L 293.652344 212.078125 L 300.242188 205.707031 L 300.828125 206.316406 Z M 292.164062 210.539062 L 287.449219 205.664062 L 293.851562 199.476562 C 296.691406 201.5625 298.566406 204.351562 298.566406 204.351562 Z M 286.113281 204.28125 L 285.523438 203.671875 L 292.113281 197.300781 L 292.699219 197.90625 Z M 306.589844 213.027344 C 307.308594 213.769531 307.292969 214.699219 307.292969 214.699219 L 290.546875 230.890625 C 289.601562 231.808594 288.761719 230.265625 288.761719 230.265625 Z M 283.238281 189.402344 L 265.800781 206.265625 C 265.457031 206.597656 265.449219 207.144531 265.78125 207.488281 L 267.398438 209.160156 C 268.03125 209.816406 268.757812 210.371094 269.554688 210.808594 C 270.113281 211.117188 270.867188 211.558594 271.765625 212.132812 C 271.855469 212.191406 271.945312 212.25 272.039062 212.308594 C 277.300781 215.753906 281.738281 220.34375 285.007812 225.71875 C 285.0625 225.816406 285.117188 225.902344 285.171875 225.996094 C 285.71875 226.914062 286.132812 227.683594 286.421875 228.253906 C 286.832031 229.0625 287.363281 229.808594 287.996094 230.460938 L 289.617188 232.136719 C 289.945312 232.476562 290.492188 232.488281 290.839844 232.15625 L 308.269531 215.300781 C 308.320312 214.683594 308.15625 214.046875 307.777344 213.523438 C 305.691406 210.640625 302.175781 206.144531 297.238281 201.039062 L 297.175781 200.972656 C 292.214844 195.828125 287.8125 192.148438 284.988281 189.957031 C 284.476562 189.558594 283.855469 189.375 283.238281 189.402344 Z M 224.191406 255.980469 L 222.1875 253.910156 L 221.222656 254.839844 L 223.226562 256.910156 L 224.191406 255.980469 " fill-opacity="1" fill-rule="nonzero"/><path fill="#ffffff" d="M 218.375 198.539062 C 218.375 198.539062 220.980469 195.546875 223.089844 193.664062 L 224.144531 194.6875 C 224.144531 194.6875 221.886719 196.867188 219.429688 199.5625 Z M 217.496094 201.847656 L 216.175781 200.566406 L 216.761719 199.957031 L 218.085938 201.238281 Z M 210.839844 210.042969 L 209.9375 209.171875 C 209.992188 208.460938 210.699219 207.554688 210.699219 207.554688 L 211.609375 208.4375 C 211.023438 209.109375 210.839844 210.042969 210.839844 210.042969 Z M 224.890625 191.550781 L 226.214844 192.835938 L 225.628906 193.441406 L 224.300781 192.160156 Z M 233.4375 184.871094 L 234.339844 185.742188 C 234.339844 185.742188 233.410156 185.953125 232.757812 186.5625 L 231.847656 185.683594 C 231.847656 185.683594 232.730469 184.945312 233.4375 184.871094 Z M 222.140625 197.335938 C 227.128906 192.175781 231.554688 188.46875 234.398438 186.265625 C 234.8125 185.945312 235.273438 185.714844 235.757812 185.582031 L 234.144531 184.023438 C 233.527344 183.992188 232.902344 184.179688 232.390625 184.578125 C 229.582031 186.757812 225.203125 190.421875 220.265625 195.53125 L 220.148438 195.652344 C 215.203125 200.761719 211.6875 205.261719 209.605469 208.140625 C 209.226562 208.667969 209.0625 209.300781 209.117188 209.917969 L 210.726562 211.480469 C 210.84375 210.988281 211.050781 210.511719 211.359375 210.089844 C 213.46875 207.175781 217.023438 202.625 222.011719 197.464844 Z M 214.375 194.671875 C 214.375 194.671875 216.859375 191.5625 219.089844 189.796875 L 221.039062 191.683594 C 221.039062 191.683594 218.714844 193.800781 216.324219 196.558594 Z M 214.25 198.707031 L 212.398438 196.917969 L 212.988281 196.308594 L 214.835938 198.097656 Z M 208.074219 207.371094 L 206.808594 206.144531 C 206.277344 204.871094 206.972656 203.949219 206.972656 203.949219 L 208.996094 205.910156 C 208.488281 206.234375 208.074219 207.371094 208.074219 207.371094 Z M 221.117188 187.902344 L 222.964844 189.691406 L 222.378906 190.296875 L 220.527344 188.511719 Z M 230.308594 181.84375 L 231.574219 183.066406 C 231.574219 183.066406 230.453125 183.515625 230.144531 184.039062 L 228.121094 182.078125 C 228.121094 182.078125 229.015625 181.355469 230.308594 181.84375 Z M 219.351562 194.648438 C 224.34375 189.488281 228.773438 185.777344 231.613281 183.574219 C 232.027344 183.253906 232.492188 183.023438 232.976562 182.890625 L 231.542969 181.507812 C 230.445312 180.445312 228.738281 180.355469 227.53125 181.289062 C 225.109375 183.171875 220.875 186.679688 216.101562 191.625 C 211.316406 196.5625 207.953125 200.914062 206.15625 203.398438 C 205.261719 204.632812 205.410156 206.339844 206.507812 207.398438 L 207.945312 208.789062 C 208.0625 208.296875 208.269531 207.824219 208.578125 207.398438 C 210.683594 204.484375 214.242188 199.933594 219.234375 194.773438 Z M 281.191406 274.144531 L 282.15625 275.078125 L 284.15625 273.003906 L 283.195312 272.074219 Z M 237.265625 225.066406 C 237.207031 225.160156 237.152344 225.25 237.09375 225.339844 L 228.652344 217.171875 C 227.660156 216.214844 227.636719 214.640625 228.589844 213.648438 L 238.535156 203.371094 C 239.488281 202.378906 241.066406 202.355469 242.054688 203.308594 L 250.5 211.476562 C 250.414062 211.535156 250.324219 211.59375 250.234375 211.65625 C 245.042969 215.171875 240.605469 219.761719 237.265625 225.066406 Z M 232.402344 230.890625 L 215.65625 214.699219 C 215.65625 214.699219 215.640625 213.769531 216.355469 213.027344 L 234.183594 230.265625 C 234.183594 230.265625 233.34375 231.808594 232.402344 230.890625 Z M 222.707031 205.707031 L 229.292969 212.078125 L 228.707031 212.6875 L 222.117188 206.316406 Z M 229.097656 199.476562 L 235.5 205.664062 L 230.785156 210.539062 L 224.382812 204.351562 C 224.382812 204.351562 226.257812 201.5625 229.097656 199.476562 Z M 230.835938 197.300781 L 237.425781 203.671875 L 236.835938 204.28125 L 230.246094 197.90625 Z M 239.152344 190.398438 L 255.898438 206.589844 C 256.84375 207.503906 255.332031 208.394531 255.332031 208.394531 L 237.507812 191.15625 C 238.222656 190.414062 239.152344 190.398438 239.152344 190.398438 Z M 250.910156 212.308594 C 251 212.25 251.089844 212.191406 251.179688 212.132812 C 252.078125 211.558594 252.832031 211.117188 253.394531 210.808594 C 254.191406 210.371094 254.917969 209.816406 255.546875 209.160156 L 257.167969 207.488281 C 257.5 207.144531 257.488281 206.597656 257.144531 206.265625 L 239.707031 189.402344 C 239.09375 189.375 238.46875 189.558594 237.957031 189.957031 C 235.136719 192.148438 230.730469 195.828125 225.769531 200.972656 L 225.707031 201.039062 C 220.773438 206.144531 217.253906 210.640625 215.171875 213.523438 C 214.789062 214.046875 214.628906 214.683594 214.679688 215.300781 L 232.109375 232.15625 C 232.453125 232.488281 233 232.476562 233.332031 232.136719 L 234.953125 230.460938 C 235.582031 229.808594 236.113281 229.0625 236.527344 228.253906 C 236.816406 227.683594 237.230469 226.914062 237.777344 225.996094 C 237.832031 225.902344 237.882812 225.816406 237.941406 225.71875 C 241.210938 220.34375 245.644531 215.753906 250.910156 212.308594 Z M 221.089844 201.167969 C 221.089844 201.167969 223.703125 198.175781 225.804688 196.292969 L 226.867188 197.316406 C 226.867188 197.316406 224.605469 199.496094 222.152344 202.191406 Z M 220.175781 204.4375 L 218.847656 203.152344 L 219.4375 202.546875 L 220.761719 203.828125 Z M 213.664062 212.773438 L 212.757812 211.902344 C 212.8125 211.191406 213.519531 210.285156 213.519531 210.285156 L 214.433594 211.167969 C 213.847656 211.839844 213.664062 212.773438 213.664062 212.773438 Z M 227.566406 194.140625 L 228.890625 195.421875 L 228.304688 196.027344 L 226.976562 194.746094 Z M 236.261719 187.597656 L 237.160156 188.472656 C 237.160156 188.472656 236.234375 188.683594 235.582031 189.292969 L 234.667969 188.414062 C 234.667969 188.414062 235.554688 187.675781 236.261719 187.597656 Z M 224.917969 200.027344 C 229.90625 194.867188 234.339844 191.160156 237.179688 188.957031 C 237.59375 188.632812 238.054688 188.40625 238.539062 188.273438 L 236.925781 186.714844 C 236.308594 186.683594 235.6875 186.871094 235.175781 187.265625 C 232.367188 189.445312 227.988281 193.113281 223.050781 198.21875 L 222.925781 198.347656 C 217.988281 203.453125 214.472656 207.953125 212.386719 210.832031 C 212.007812 211.355469 211.84375 211.992188 211.894531 212.609375 L 213.507812 214.167969 C 213.625 213.675781 213.835938 213.203125 214.144531 212.78125 C 216.25 209.867188 219.808594 205.3125 224.796875 200.15625 Z M 239.234375 203.476562 L 248.367188 212.3125 C 248.367188 212.3125 248.976562 211.832031 249.683594 211.425781 L 241.851562 203.855469 C 240.738281 202.777344 239.234375 203.476562 239.234375 203.476562 Z M 229.152344 216.988281 L 236.984375 224.558594 C 237.363281 223.839844 237.824219 223.21875 237.824219 223.21875 L 228.691406 214.386719 C 228.691406 214.386719 228.039062 215.910156 229.152344 216.988281 Z M 288.542969 261.675781 C 285.640625 264.675781 280.855469 264.757812 277.851562 261.855469 C 274.851562 258.953125 274.773438 254.167969 277.675781 251.164062 C 280.574219 248.164062 285.363281 248.085938 288.363281 250.988281 C 291.363281 253.886719 291.445312 258.671875 288.542969 261.675781 Z M 289.609375 262.988281 C 286.0625 266.660156 280.210938 266.757812 276.542969 263.210938 C 272.875 259.664062 272.777344 253.8125 276.324219 250.144531 C 276.382812 250.082031 276.441406 250.027344 276.503906 249.972656 C 273.128906 253.648438 273.28125 259.363281 276.886719 262.851562 C 280.496094 266.34375 286.214844 266.300781 289.777344 262.808594 C 289.722656 262.867188 289.667969 262.929688 289.609375 262.988281 Z M 275.546875 249.105469 C 271.507812 253.285156 271.621094 259.941406 275.796875 263.984375 C 279.972656 268.023438 286.632812 267.910156 290.671875 263.734375 C 294.710938 259.558594 294.597656 252.894531 290.421875 248.855469 C 286.246094 244.820312 279.585938 244.929688 275.546875 249.105469 Z M 241.390625 215.753906 C 240.03125 217.160156 237.785156 217.199219 236.378906 215.835938 C 234.972656 214.476562 234.9375 212.230469 236.296875 210.824219 L 236.433594 210.699219 C 235.203125 212.109375 235.28125 214.253906 236.640625 215.570312 C 238.003906 216.886719 240.144531 216.886719 241.515625 215.613281 Z M 235.625 210.503906 C 234.070312 212.109375 234.179688 214.738281 235.867188 216.371094 C 237.554688 218.003906 240.183594 218.023438 241.738281 216.414062 C 243.292969 214.804688 243.183594 212.179688 241.496094 210.546875 C 239.808594 208.917969 237.179688 208.894531 235.625 210.503906 Z M 249.660156 214.410156 C 247.800781 215.777344 246.050781 217.300781 244.441406 218.960938 L 244.40625 218.996094 C 242.804688 220.660156 241.335938 222.460938 240.035156 224.367188 C 241.695312 225.175781 243.234375 226.234375 244.582031 227.539062 L 251.816406 234.515625 L 253.804688 232.582031 L 249.542969 228.460938 C 248.261719 227.222656 248.226562 225.171875 249.46875 223.890625 C 250.707031 222.609375 252.757812 222.574219 254.039062 223.8125 L 258.449219 228.078125 L 260.476562 226.117188 L 252.980469 218.851562 C 251.636719 217.542969 250.527344 216.042969 249.660156 214.410156 Z M 268.085938 241.890625 C 268.839844 241.109375 268.953125 239.941406 268.4375 239.039062 L 265.101562 242.257812 C 266.039062 242.839844 267.289062 242.71875 268.085938 241.890625 Z M 250.074219 224.476562 C 249.160156 225.425781 249.1875 226.9375 250.132812 227.855469 L 254.414062 231.992188 L 257.84375 228.667969 L 253.453125 224.421875 C 252.507812 223.503906 250.988281 223.53125 250.074219 224.476562 Z M 300.757812 253.910156 L 298.757812 255.980469 L 299.71875 256.910156 L 301.722656 254.839844 Z M 274.425781 266.824219 C 276.316406 268.796875 277.527344 270.164062 277.527344 270.164062 C 277.527344 270.164062 276.121094 269 274.085938 267.175781 C 273.070312 266.265625 271.894531 265.1875 270.644531 264.023438 C 270.023438 263.4375 269.371094 262.84375 268.730469 262.21875 C 268.40625 261.914062 268.078125 261.601562 267.75 261.285156 C 267.429688 260.976562 267.074219 260.65625 266.765625 260.257812 C 266.613281 260.058594 266.46875 259.84375 266.359375 259.597656 C 266.25 259.347656 266.167969 259.070312 266.164062 258.777344 C 266.15625 258.191406 266.390625 257.703125 266.59375 257.300781 C 266.804688 256.890625 266.988281 256.53125 267.144531 256.132812 C 267.300781 255.742188 267.429688 255.34375 267.53125 254.949219 C 267.722656 254.152344 267.808594 253.355469 267.804688 252.597656 C 267.796875 251.839844 267.710938 251.121094 267.578125 250.464844 C 267.3125 249.152344 266.886719 248.097656 266.558594 247.375 C 266.390625 247.015625 266.25 246.734375 266.148438 246.550781 C 266.050781 246.367188 265.980469 246.253906 266 246.273438 C 265.980469 246.253906 266.0625 246.355469 266.1875 246.523438 C 266.3125 246.699219 266.496094 246.953125 266.707031 247.296875 C 267.121094 247.980469 267.667969 249.007812 268.046875 250.351562 C 268.238281 251.019531 268.386719 251.769531 268.433594 252.578125 C 268.484375 253.378906 268.441406 254.246094 268.253906 255.113281 C 268.160156 255.546875 268.035156 255.980469 267.878906 256.414062 C 267.800781 256.628906 267.714844 256.839844 267.621094 257.050781 C 267.523438 257.265625 267.417969 257.472656 267.324219 257.664062 C 267.128906 258.058594 266.980469 258.425781 266.992188 258.753906 C 267.003906 259.082031 267.179688 259.421875 267.433594 259.742188 C 267.683594 260.066406 268 260.367188 268.328125 260.6875 C 268.652344 261.003906 268.976562 261.320312 269.292969 261.632812 C 269.941406 262.257812 270.554688 262.890625 271.164062 263.488281 C 272.367188 264.699219 273.484375 265.835938 274.425781 266.824219 Z M 300.476562 253.933594 C 300.816406 253.582031 300.804688 253.019531 300.453125 252.679688 L 300.316406 252.542969 L 300.640625 252.207031 L 286.300781 238.335938 C 285.777344 237.835938 285 237.738281 284.375 238.070312 L 283.464844 237.1875 L 281.460938 239.257812 L 281.714844 239.503906 C 278.453125 240.652344 274.722656 239.921875 272.128906 237.410156 L 271.132812 236.441406 L 269.058594 238.441406 C 269.882812 239.675781 269.765625 241.367188 268.691406 242.480469 C 267.5625 243.648438 265.765625 243.777344 264.484375 242.855469 L 262.472656 244.792969 L 263.773438 246.050781 C 266.386719 248.570312 267.238281 252.300781 266.167969 255.613281 L 265.898438 255.351562 L 263.898438 257.421875 L 264.816406 258.3125 C 264.539062 258.9375 264.667969 259.6875 265.175781 260.179688 L 279.519531 274.050781 L 279.8125 273.746094 L 279.949219 273.882812 C 280.300781 274.222656 280.867188 274.210938 281.207031 273.859375 L 282.910156 272.097656 C 283.25 271.746094 283.242188 271.183594 282.890625 270.839844 L 282.679688 270.640625 C 283.152344 269.863281 283.367188 268.945312 283.265625 268.027344 C 280.308594 268.058594 277.339844 266.976562 275.046875 264.757812 C 270.425781 260.292969 270.304688 252.933594 274.753906 248.308594 C 279.230469 243.703125 286.585938 243.582031 291.207031 248.046875 C 293.5 250.265625 294.683594 253.195312 294.75 256.152344 C 295.652344 256.222656 296.546875 255.988281 297.296875 255.507812 L 297.515625 255.71875 C 297.871094 256.058594 298.429688 256.046875 298.773438 255.695312 L 300.476562 253.933594 " fill-opacity="1" fill-rule="nonzero"/><path fill="#ffffff" d="M 286.308594 215.570312 C 287.667969 214.253906 287.742188 212.109375 286.511719 210.699219 L 286.648438 210.824219 C 288.011719 212.230469 287.972656 214.476562 286.566406 215.835938 C 285.160156 217.199219 282.914062 217.160156 281.554688 215.753906 L 281.433594 215.613281 C 282.800781 216.886719 284.945312 216.886719 286.308594 215.570312 Z M 281.453125 210.546875 C 279.765625 212.179688 279.65625 214.804688 281.210938 216.414062 C 282.765625 218.023438 285.390625 218.003906 287.082031 216.371094 C 288.769531 214.738281 288.878906 212.109375 287.324219 210.503906 C 285.769531 208.894531 283.140625 208.917969 281.453125 210.546875 " fill-opacity="1" fill-rule="nonzero"/><g clip-path="url(#69ef3376b0)"><path fill="#ffffff" d="M 347.484375 172.292969 L 358.882812 152.800781 C 354.660156 147.597656 350 142.726562 344.9375 138.242188 L 324.996094 148.824219 C 319.535156 144.707031 313.605469 141.101562 307.253906 138.101562 L 307.367188 115.53125 C 304.242188 114.34375 301.042969 113.273438 297.777344 112.324219 C 294.511719 111.375 291.238281 110.574219 287.960938 109.90625 L 275.984375 129.03125 C 269.011719 128.171875 262.070312 128.042969 255.253906 128.601562 L 244.070312 108.996094 C 237.394531 110.074219 230.847656 111.695312 224.496094 113.832031 L 223.703125 136.398438 C 217.335938 139.105469 211.257812 142.453125 205.5625 146.386719 L 186.074219 134.980469 C 180.867188 139.203125 175.996094 143.867188 171.515625 148.929688 L 182.097656 168.867188 C 177.976562 174.332031 174.371094 180.261719 171.371094 186.613281 L 148.804688 186.5 C 147.617188 189.625 146.542969 192.820312 145.59375 196.089844 C 144.648438 199.355469 143.84375 202.628906 143.179688 205.902344 L 162.304688 217.886719 C 161.441406 224.855469 161.3125 231.792969 161.871094 238.609375 L 142.265625 249.796875 C 143.34375 256.472656 144.964844 263.019531 147.105469 269.371094 L 169.667969 270.160156 C 172.378906 276.527344 175.722656 282.609375 179.65625 288.300781 L 168.25 307.792969 C 172.476562 312.996094 177.136719 317.871094 182.203125 322.351562 L 202.140625 311.773438 C 207.601562 315.890625 213.535156 319.496094 219.882812 322.492188 L 219.773438 345.0625 C 222.894531 346.25 226.089844 347.324219 229.359375 348.269531 C 232.625 349.21875 235.902344 350.019531 239.175781 350.6875 L 251.15625 331.5625 C 258.125 332.425781 265.0625 332.554688 271.882812 331.996094 L 267.585938 309.292969 C 259.019531 309.726562 250.242188 308.769531 241.542969 306.25 C 199.59375 294.085938 175.453125 250.21875 187.613281 208.273438 C 199.78125 166.324219 243.644531 142.183594 285.59375 154.34375 C 309.070312 161.152344 326.964844 177.890625 336.042969 198.664062 L 357.464844 190.433594 C 354.757812 184.066406 351.410156 177.984375 347.484375 172.292969 " fill-opacity="1" fill-rule="nonzero"/></g></svg>