<svg xmlns="http://www.w3.org/2000/svg" xmlns:xlink="http://www.w3.org/1999/xlink" width="500" zoomAndPan="magnify" viewBox="0 0 375 374.999991" height="500" preserveAspectRatio="xMidYMid meet" version="1.0"><defs><clipPath id="ddd80d154d"><path d="M 151 83 L 374.65625 83 L 374.65625 298.875 L 151 298.875 Z M 151 83 " clip-rule="nonzero"/></clipPath><clipPath id="3a162dd48e"><path d="M 11.65625 99 L 157 99 L 157 271 L 11.65625 271 Z M 11.65625 99 " clip-rule="nonzero"/></clipPath><clipPath id="9f1cbe773e"><path d="M 202 235 L 223 235 L 223 298.875 L 202 298.875 Z M 202 235 " clip-rule="nonzero"/></clipPath><clipPath id="8bf6f9a7f4"><path d="M 119 261 L 132 261 L 132 298.875 L 119 298.875 Z M 119 261 " clip-rule="nonzero"/></clipPath><clipPath id="21d7d4c288"><path d="M 102 263 L 114 263 L 114 298.875 L 102 298.875 Z M 102 263 " clip-rule="nonzero"/></clipPath><clipPath id="70dc70536b"><path d="M 47 269 L 58 269 L 58 298.875 L 47 298.875 Z M 47 269 " clip-rule="nonzero"/></clipPath><clipPath id="3f88881b0b"><path d="M 35 271 L 44 271 L 44 298.875 L 35 298.875 Z M 35 271 " clip-rule="nonzero"/></clipPath><clipPath id="bdc5d2608b"><path d="M 23 273 L 32 273 L 32 298.875 L 23 298.875 Z M 23 273 " clip-rule="nonzero"/></clipPath></defs><g clip-path="url(#ddd80d154d)"><path fill="#fb452f" d="M 237.566406 83.125 C 235.753906 83.054688 233.867188 83.125 232.054688 83.125 C 232.054688 90.8125 232.128906 98.429688 232.054688 106.117188 C 214.503906 106.1875 196.953125 106.117188 179.402344 106.117188 C 179.332031 154.34375 179.402344 202.5 179.332031 250.726562 C 173.964844 252.175781 168.667969 253.84375 163.375 255.730469 C 161.34375 256.527344 159.242188 257.253906 157.285156 258.414062 C 155.832031 259.140625 155.324219 260.734375 154.746094 262.183594 C 153.078125 267.261719 152.425781 272.628906 151.84375 277.921875 C 156.558594 277.996094 161.199219 277.558594 165.839844 277.488281 C 177.15625 277.195312 188.46875 276.6875 199.855469 276.398438 C 199.054688 264.796875 199.492188 252.902344 203.261719 241.734375 C 204.859375 237.453125 206.816406 232.957031 210.515625 230.128906 C 212.835938 228.316406 216.316406 228.316406 218.636719 230.128906 C 222.480469 233.03125 224.441406 237.671875 226.035156 242.097656 C 229.589844 253.046875 230.242188 264.867188 229.226562 276.253906 C 258.378906 276.253906 287.460938 276.253906 316.617188 276.253906 C 317.847656 282.78125 320.242188 289.527344 325.101562 294.3125 C 327.785156 297.066406 331.699219 298.808594 335.542969 298.082031 C 339.460938 297.359375 342.722656 294.53125 344.972656 291.339844 C 348.164062 286.914062 349.832031 281.621094 350.917969 276.253906 C 356.429688 276.183594 361.941406 276.253906 367.527344 276.183594 C 371.082031 267.988281 373.546875 259.285156 373.910156 250.292969 C 374.34375 241.007812 374.996094 231.433594 372.242188 222.515625 C 371.082031 218.671875 369.050781 214.828125 365.570312 212.652344 C 362.886719 210.984375 359.550781 211.128906 356.503906 210.765625 C 351.066406 210.113281 345.554688 209.824219 340.1875 208.878906 L 339.894531 208.589844 C 339.75 200.902344 339.96875 193.214844 339.75 185.527344 C 339.027344 183.714844 336.921875 182.773438 335.328125 181.757812 C 328.21875 178.058594 320.53125 175.519531 312.917969 173.054688 C 307.625 161.449219 302.546875 149.773438 296.527344 138.535156 C 295.367188 136.574219 294.351562 134.328125 292.609375 132.804688 C 285.070312 126.347656 277.308594 120.183594 269.042969 114.671875 C 265.050781 112.0625 260.917969 109.667969 256.566406 107.785156 C 254.246094 106.839844 251.851562 105.96875 249.316406 105.96875 C 245.398438 105.96875 241.484375 105.96875 237.566406 105.96875 C 237.492188 98.5 237.566406 90.8125 237.566406 83.125 Z M 290.433594 135.269531 C 292.101562 137.445312 293.265625 139.910156 294.496094 142.304688 C 297.976562 149.484375 301.167969 156.882812 303.996094 164.351562 C 305.011719 167.179688 306.171875 170.007812 306.609375 172.980469 C 277.453125 173.054688 248.300781 172.980469 219.144531 173.054688 C 217.332031 168.628906 217.042969 163.769531 216.246094 159.128906 C 215.230469 152.3125 214.429688 145.421875 213.707031 138.535156 C 214.285156 136.285156 217.042969 135.195312 219.21875 135.269531 C 242.933594 135.195312 266.71875 135.195312 290.433594 135.269531 Z M 207.179688 136.792969 C 209.136719 148.035156 210.660156 159.273438 212.253906 170.589844 C 212.472656 171.894531 212.183594 173.199219 211.53125 174.285156 C 210.949219 174.648438 210.226562 174.503906 209.644531 174.648438 C 204.859375 175.085938 200.144531 175.664062 195.359375 176.101562 C 194.777344 165.003906 194.921875 153.90625 194.777344 142.8125 C 194.851562 141.289062 194.707031 139.476562 195.9375 138.386719 C 199.636719 137.808594 203.40625 137.226562 207.179688 136.792969 Z M 333.515625 186.179688 C 335.109375 186.542969 335.90625 188.285156 335.761719 189.878906 C 335.761719 209.96875 335.761719 229.984375 335.761719 250.074219 C 335.980469 251.886719 334.601562 253.917969 332.714844 253.773438 C 315.746094 253.84375 298.777344 253.773438 281.804688 253.773438 C 279.992188 253.988281 278.398438 252.394531 278.542969 250.582031 C 278.46875 230.492188 278.542969 210.476562 278.542969 190.386719 C 278.542969 189.515625 278.542969 188.648438 278.832031 187.847656 C 279.339844 186.6875 280.570312 186.035156 281.804688 186.109375 C 297.832031 186.109375 313.789062 186.109375 329.816406 186.109375 C 331.046875 186.109375 332.28125 185.964844 333.515625 186.179688 Z M 369.414062 233.609375 C 370.210938 233.902344 370.9375 234.554688 370.789062 235.425781 C 370.789062 238.253906 370.9375 241.082031 370.71875 243.910156 C 369.992188 245.140625 368.46875 245.214844 367.164062 245.285156 C 359.257812 245.285156 351.28125 245.285156 343.378906 245.285156 C 342 245.285156 339.96875 244.925781 339.894531 243.183594 C 339.824219 240.574219 339.824219 238.035156 339.894531 235.425781 C 339.894531 233.902344 341.636719 233.320312 342.941406 233.320312 C 350.703125 233.25 358.460938 233.320312 366.222656 233.320312 C 367.238281 233.320312 368.398438 233.25 369.414062 233.609375 Z M 265.632812 233.609375 C 266.429688 233.902344 267.15625 234.554688 267.082031 235.496094 C 267.082031 238.035156 267.15625 240.644531 267.082031 243.183594 C 267.15625 244.851562 265.125 245.214844 263.890625 245.285156 C 255.769531 245.285156 247.71875 245.285156 239.597656 245.285156 C 238.21875 245.285156 236.261719 244.925781 236.117188 243.183594 C 236.042969 240.574219 236.042969 238.035156 236.117188 235.425781 C 236.117188 233.902344 237.785156 233.320312 239.089844 233.320312 C 246.847656 233.25 254.609375 233.320312 262.367188 233.320312 C 263.457031 233.320312 264.617188 233.25 265.632812 233.609375 Z M 265.632812 233.609375 " fill-opacity="1" fill-rule="nonzero"/></g><path fill="#fb452f" d="M 170.554688 83.199219 C 168.667969 83.125 166.855469 83.125 164.972656 83.199219 C 164.898438 91.464844 165.042969 99.734375 164.898438 108 C 159.167969 109.8125 153.441406 111.699219 147.710938 113.585938 C 147.636719 155.503906 147.710938 197.421875 147.636719 239.339844 C 150.828125 242.167969 154.382812 244.707031 158.296875 246.59375 C 161.851562 248.332031 166.132812 247.96875 169.757812 246.738281 C 170.265625 246.449219 171.28125 246.449219 171.0625 245.578125 C 166.710938 244.488281 162.941406 241.878906 159.3125 239.339844 C 159.242188 204.3125 159.097656 169.28125 159.242188 134.183594 C 159.386719 132.078125 158.878906 129.539062 160.546875 127.871094 C 163.15625 125.1875 167.074219 125.1875 170.554688 124.828125 C 170.484375 110.902344 170.554688 97.050781 170.554688 83.199219 Z M 170.554688 83.199219 " fill-opacity="1" fill-rule="nonzero"/><g clip-path="url(#3a162dd48e)"><path fill="#fb452f" d="M 156.992188 99.878906 C 144.953125 99.589844 132.84375 99.878906 120.730469 99.734375 C 118.847656 99.515625 117.324219 100.75 115.726562 101.472656 C 81.0625 119.023438 46.394531 136.574219 11.730469 154.054688 C 11.65625 192.925781 11.65625 231.726562 11.730469 270.597656 C 47.554688 264.941406 83.382812 259.5 119.136719 253.773438 C 119.136719 206.921875 119.136719 160.144531 119.136719 113.296875 C 131.828125 108.800781 144.445312 104.519531 156.992188 99.878906 Z M 156.992188 99.878906 " fill-opacity="1" fill-rule="nonzero"/></g><g clip-path="url(#9f1cbe773e)"><path fill="#fb452f" d="M 214.578125 236.292969 C 212.691406 234.988281 210.226562 236.222656 208.992188 237.890625 C 206.234375 241.441406 205.148438 245.867188 204.207031 250.144531 C 202.101562 261.167969 202.101562 272.628906 204.132812 283.652344 C 205.003906 287.421875 205.945312 291.339844 207.976562 294.746094 C 208.917969 296.269531 210.152344 297.792969 211.964844 298.300781 C 213.707031 298.738281 215.300781 297.503906 216.390625 296.199219 C 218.421875 293.730469 219.363281 290.613281 220.304688 287.566406 C 222.191406 280.386719 222.769531 272.992188 222.769531 265.59375 C 222.480469 257.832031 221.757812 249.855469 218.929688 242.53125 C 217.984375 240.136719 216.753906 237.746094 214.578125 236.292969 Z M 214.578125 236.292969 " fill-opacity="1" fill-rule="nonzero"/></g><g clip-path="url(#8bf6f9a7f4)"><path fill="#fb452f" d="M 125.953125 261.316406 C 125.011719 261.023438 123.851562 261.242188 123.269531 262.113281 C 121.53125 264.144531 120.804688 266.753906 120.222656 269.363281 C 118.699219 276.617188 118.773438 284.230469 120.515625 291.410156 C 121.09375 293.660156 121.890625 296.054688 123.632812 297.648438 C 124.574219 298.589844 126.171875 298.375 127.042969 297.359375 C 128.925781 295.253906 129.578125 292.425781 130.230469 289.742188 C 131.683594 282.199219 131.609375 274.296875 129.578125 266.898438 C 128.78125 264.941406 128.054688 262.402344 125.953125 261.316406 Z M 125.953125 261.316406 " fill-opacity="1" fill-rule="nonzero"/></g><g clip-path="url(#21d7d4c288)"><path fill="#fb452f" d="M 109.054688 263.707031 C 107.53125 263.273438 106.371094 264.722656 105.71875 265.882812 C 103.542969 270.089844 103.109375 274.875 102.964844 279.589844 C 102.890625 285.101562 103.109375 290.832031 105.574219 295.835938 C 106.226562 297.214844 107.605469 298.882812 109.273438 298.15625 C 111.375 296.777344 112.101562 294.167969 112.753906 291.847656 C 114.421875 284.523438 114.421875 276.761719 112.535156 269.4375 C 111.957031 267.332031 111.230469 264.722656 109.054688 263.707031 Z M 109.054688 263.707031 " fill-opacity="1" fill-rule="nonzero"/></g><g clip-path="url(#70dc70536b)"><path fill="#fb452f" d="M 53.648438 269.582031 C 52.996094 268.929688 51.835938 268.929688 51.253906 269.582031 C 49.875 270.886719 49.296875 272.84375 48.789062 274.585938 C 47.484375 280.242188 47.484375 286.117188 48.570312 291.773438 C 49.152344 294.09375 49.730469 296.996094 51.980469 298.230469 C 54.011719 298.519531 54.953125 296.199219 55.535156 294.675781 C 57.492188 288.726562 57.5625 282.199219 56.476562 276.035156 C 55.96875 273.789062 55.460938 271.25 53.648438 269.582031 Z M 53.648438 269.582031 " fill-opacity="1" fill-rule="nonzero"/></g><g clip-path="url(#3f88881b0b)"><path fill="#fb452f" d="M 40.160156 271.902344 C 39.070312 271.175781 37.910156 272.265625 37.402344 273.207031 C 36.097656 275.601562 35.589844 278.355469 35.300781 281.039062 C 35.082031 286.042969 34.9375 291.339844 36.96875 296.054688 C 37.476562 297.140625 38.347656 298.664062 39.796875 298.300781 C 41.320312 297.574219 41.898438 295.90625 42.40625 294.386719 C 43.785156 289.742188 43.859375 284.738281 43.351562 279.953125 C 42.84375 277.195312 42.550781 273.789062 40.160156 271.902344 Z M 40.160156 271.902344 " fill-opacity="1" fill-rule="nonzero"/></g><g clip-path="url(#bdc5d2608b)"><path fill="#fb452f" d="M 28.484375 273.933594 C 27.976562 273.425781 26.960938 273.351562 26.453125 273.859375 C 25.21875 274.949219 24.710938 276.542969 24.277344 278.066406 C 23.332031 281.910156 23.332031 285.972656 23.625 289.960938 C 23.914062 292.355469 24.277344 294.746094 25.507812 296.851562 C 26.015625 297.574219 26.667969 298.519531 27.683594 298.300781 C 28.992188 297.792969 29.570312 296.34375 30.078125 295.109375 C 31.527344 290.757812 31.601562 286.042969 31.164062 281.476562 C 30.730469 278.863281 30.441406 275.890625 28.484375 273.933594 Z M 28.484375 273.933594 " fill-opacity="1" fill-rule="nonzero"/></g></svg>