<svg xmlns="http://www.w3.org/2000/svg" xmlns:xlink="http://www.w3.org/1999/xlink" width="500" zoomAndPan="magnify" viewBox="0 0 375 374.999991" height="500" preserveAspectRatio="xMidYMid meet" version="1.0"><defs><clipPath id="0a9a57774a"><path d="M 55.304688 56.625 L 320 56.625 L 320 318.375 L 55.304688 318.375 Z M 55.304688 56.625 " clip-rule="nonzero"/></clipPath></defs><g clip-path="url(#0a9a57774a)"><path fill="#ffffff" d="M 134.882812 167.613281 L 68.097656 167.613281 C 62.726562 167.613281 58.359375 172.269531 58.359375 177.996094 L 58.359375 307.027344 C 58.359375 312.75 62.726562 317.410156 68.097656 317.410156 L 134.882812 317.410156 C 140.253906 317.410156 144.621094 312.753906 144.621094 307.027344 L 144.621094 177.996094 C 144.621094 172.269531 140.253906 167.613281 134.882812 167.613281 Z M 117.8125 176.140625 L 116.074219 181.398438 L 86.90625 181.398438 L 85.167969 176.140625 Z M 136.09375 307.027344 C 136.09375 308.070312 135.441406 308.882812 134.882812 308.882812 L 68.097656 308.882812 C 67.535156 308.882812 66.886719 308.070312 66.886719 307.027344 L 66.886719 177.996094 C 66.886719 176.949219 67.535156 176.140625 68.097656 176.140625 L 76.183594 176.140625 L 79.777344 187.003906 C 80.355469 188.75 81.988281 189.929688 83.824219 189.929688 L 119.15625 189.929688 C 120.992188 189.929688 122.625 188.75 123.203125 187.003906 L 126.796875 176.140625 L 134.882812 176.140625 C 135.445312 176.140625 136.09375 176.949219 136.09375 177.996094 Z M 111.355469 299.046875 C 111.355469 301.402344 109.449219 303.3125 107.09375 303.3125 L 95.886719 303.3125 C 93.535156 303.3125 91.625 301.402344 91.625 299.046875 C 91.625 296.691406 93.535156 294.78125 95.886719 294.78125 L 107.09375 294.78125 C 109.445312 294.78125 111.355469 296.691406 111.355469 299.046875 Z M 168.921875 128.339844 L 168.921875 115.253906 C 168.921875 108.9375 164.035156 103.742188 157.847656 103.242188 C 150.59375 81.371094 132.597656 66.914062 112.117188 66.914062 C 91.640625 66.914062 73.640625 81.371094 66.390625 103.242188 C 60.199219 103.742188 55.316406 108.9375 55.316406 115.253906 L 55.316406 128.339844 C 55.316406 134.988281 60.722656 140.394531 67.371094 140.394531 C 74.019531 140.394531 79.425781 134.988281 79.425781 128.339844 L 79.425781 115.253906 C 79.425781 111.3125 77.523438 107.804688 74.589844 105.605469 C 80.742188 87.425781 95.476562 75.441406 112.117188 75.441406 C 128.761719 75.441406 143.492188 87.425781 149.648438 105.605469 C 146.710938 107.804688 144.808594 111.3125 144.808594 115.253906 L 144.808594 128.339844 C 144.808594 134.988281 150.21875 140.394531 156.863281 140.394531 C 163.511719 140.394531 168.921875 134.984375 168.921875 128.339844 Z M 70.898438 128.339844 C 70.898438 130.285156 69.316406 131.867188 67.371094 131.867188 C 65.425781 131.867188 63.84375 130.285156 63.84375 128.339844 L 63.84375 115.253906 C 63.84375 113.308594 65.425781 111.726562 67.371094 111.726562 C 69.316406 111.726562 70.898438 113.308594 70.898438 115.253906 Z M 153.335938 128.339844 L 153.335938 115.253906 C 153.335938 113.308594 154.921875 111.726562 156.863281 111.726562 C 158.808594 111.726562 160.394531 113.308594 160.394531 115.253906 L 160.394531 128.339844 C 160.394531 130.285156 158.808594 131.867188 156.863281 131.867188 C 154.921875 131.867188 153.335938 130.285156 153.335938 128.339844 Z M 280.058594 239.167969 L 190.574219 239.167969 C 168.726562 239.167969 150.953125 256.941406 150.953125 278.789062 C 150.953125 300.636719 168.726562 318.410156 190.574219 318.410156 C 204.246094 318.410156 216.863281 311.386719 224.097656 299.914062 L 246.535156 299.914062 C 253.765625 311.386719 266.386719 318.410156 280.054688 318.410156 C 301.902344 318.410156 319.675781 300.636719 319.675781 278.789062 C 319.675781 256.941406 301.902344 239.167969 280.058594 239.167969 Z M 280.058594 309.882812 C 268.648438 309.882812 258.175781 303.648438 252.71875 293.613281 C 251.972656 292.242188 250.535156 291.386719 248.972656 291.386719 L 221.65625 291.386719 C 220.09375 291.386719 218.65625 292.242188 217.910156 293.613281 C 212.457031 303.648438 201.980469 309.882812 190.574219 309.882812 C 173.429688 309.882812 159.480469 295.933594 159.480469 278.789062 C 159.480469 261.644531 173.429688 247.695312 190.574219 247.695312 L 280.058594 247.695312 C 297.203125 247.695312 311.148438 261.644531 311.148438 278.789062 C 311.148438 295.933594 297.203125 309.882812 280.058594 309.882812 Z M 214.15625 278.738281 C 214.15625 281.859375 211.625 284.386719 208.503906 284.386719 C 205.386719 284.386719 202.855469 281.859375 202.855469 278.738281 C 202.855469 275.617188 205.386719 273.085938 208.503906 273.085938 C 211.625 273.085938 214.15625 275.617188 214.15625 278.738281 Z M 196.222656 296.671875 C 196.222656 299.789062 193.695312 302.320312 190.574219 302.320312 C 187.453125 302.320312 184.921875 299.789062 184.921875 296.671875 C 184.921875 293.550781 187.453125 291.019531 190.574219 291.019531 C 193.695312 291.019531 196.222656 293.550781 196.222656 296.671875 Z M 178.292969 278.738281 C 178.292969 281.859375 175.761719 284.386719 172.640625 284.386719 C 169.519531 284.386719 166.992188 281.859375 166.992188 278.738281 C 166.992188 275.617188 169.519531 273.085938 172.640625 273.085938 C 175.761719 273.085938 178.292969 275.617188 178.292969 278.738281 Z M 196.222656 260.804688 C 196.222656 263.925781 193.695312 266.457031 190.574219 266.457031 C 187.453125 266.457031 184.921875 263.925781 184.921875 260.804688 C 184.921875 257.683594 187.453125 255.15625 190.574219 255.15625 C 193.695312 255.15625 196.222656 257.683594 196.222656 260.804688 Z M 303.640625 278.738281 C 303.640625 281.859375 301.109375 284.386719 297.988281 284.386719 C 294.871094 284.386719 292.339844 281.859375 292.339844 278.738281 C 292.339844 275.617188 294.871094 273.085938 297.988281 273.085938 C 301.109375 273.085938 303.640625 275.617188 303.640625 278.738281 Z M 285.707031 296.671875 C 285.707031 299.789062 283.175781 302.320312 280.058594 302.320312 C 276.9375 302.320312 274.40625 299.789062 274.40625 296.671875 C 274.40625 293.550781 276.9375 291.019531 280.058594 291.019531 C 283.175781 291.019531 285.707031 293.550781 285.707031 296.671875 Z M 267.773438 278.738281 C 267.773438 281.859375 265.246094 284.386719 262.125 284.386719 C 259.003906 284.386719 256.472656 281.859375 256.472656 278.738281 C 256.472656 275.617188 259.003906 273.085938 262.125 273.085938 C 265.246094 273.085938 267.773438 275.617188 267.773438 278.738281 Z M 285.707031 260.804688 C 285.707031 263.925781 283.175781 266.457031 280.058594 266.457031 C 276.9375 266.457031 274.40625 263.925781 274.40625 260.804688 C 274.40625 257.683594 276.9375 255.15625 280.058594 255.15625 C 283.175781 255.15625 285.707031 257.683594 285.707031 260.804688 Z M 245.992188 273.40625 C 245.992188 275.761719 244.082031 277.671875 241.726562 277.671875 L 228.902344 277.671875 C 226.546875 277.671875 224.636719 275.761719 224.636719 273.40625 C 224.636719 271.054688 226.546875 269.144531 228.902344 269.144531 L 241.726562 269.144531 C 244.082031 269.144531 245.992188 271.054688 245.992188 273.40625 Z M 251.4375 259.300781 C 251.4375 261.65625 249.527344 263.566406 247.175781 263.566406 L 223.457031 263.566406 C 221.101562 263.566406 219.191406 261.65625 219.191406 259.300781 C 219.191406 256.945312 221.101562 255.039062 223.457031 255.039062 L 247.175781 255.039062 C 249.527344 255.039062 251.4375 256.945312 251.4375 259.300781 Z M 217.28125 119.300781 C 217.28125 107.285156 227.058594 97.507812 239.078125 97.507812 C 241.429688 97.507812 243.339844 99.414062 243.339844 101.769531 C 243.339844 104.125 241.429688 106.035156 239.078125 106.035156 C 231.761719 106.035156 225.808594 111.984375 225.808594 119.300781 C 225.808594 126.617188 231.761719 132.570312 239.078125 132.570312 C 241.429688 132.570312 243.339844 134.480469 243.339844 136.835938 C 243.339844 139.1875 241.429688 141.097656 239.078125 141.097656 C 227.058594 141.097656 217.28125 131.320312 217.28125 119.300781 Z M 239.078125 151.789062 C 256.988281 151.789062 271.5625 137.214844 271.5625 119.300781 C 271.5625 101.390625 256.988281 86.816406 239.078125 86.816406 C 221.164062 86.816406 206.589844 101.390625 206.589844 119.300781 C 206.589844 137.214844 221.164062 151.789062 239.078125 151.789062 Z M 239.078125 95.34375 C 252.285156 95.34375 263.035156 106.09375 263.035156 119.300781 C 263.035156 132.511719 252.285156 143.257812 239.078125 143.257812 C 225.867188 143.257812 215.121094 132.511719 215.121094 119.300781 C 215.121094 106.09375 225.867188 95.34375 239.078125 95.34375 Z M 181.585938 148.738281 L 193 156.625 L 193 158.03125 C 193 162.914062 196.972656 166.890625 201.859375 166.890625 L 303.992188 166.890625 C 308.878906 166.890625 312.851562 162.914062 312.851562 158.03125 L 312.851562 80.574219 C 312.851562 76.308594 309.820312 72.734375 305.796875 71.902344 L 305.796875 61.9375 C 305.796875 59.585938 303.886719 57.675781 301.53125 57.675781 L 287.023438 57.675781 C 284.667969 57.675781 282.757812 59.585938 282.757812 61.9375 L 282.757812 71.714844 L 274.625 71.714844 L 269.96875 59.398438 C 269.339844 57.742188 267.753906 56.644531 265.980469 56.644531 L 212.648438 56.644531 C 210.875 56.644531 209.289062 57.742188 208.660156 59.398438 L 204.003906 71.714844 L 201.859375 71.714844 C 196.972656 71.714844 193 75.691406 193 80.574219 L 193 82.09375 L 181.613281 89.847656 C 180.445312 90.640625 179.746094 91.960938 179.746094 93.371094 L 179.746094 145.230469 C 179.746094 146.632812 180.433594 147.945312 181.585938 148.738281 Z M 304.324219 158.03125 C 304.324219 158.203125 304.167969 158.363281 303.992188 158.363281 L 285.65625 158.363281 L 285.65625 80.242188 L 303.992188 80.242188 C 304.167969 80.242188 304.324219 80.402344 304.324219 80.574219 Z M 291.285156 66.203125 L 297.269531 66.203125 L 297.269531 71.714844 L 291.285156 71.714844 Z M 215.59375 65.171875 L 263.035156 65.171875 L 265.507812 71.714844 L 213.121094 71.714844 Z M 201.527344 80.574219 C 201.527344 80.402344 201.6875 80.242188 201.859375 80.242188 L 277.128906 80.242188 L 277.128906 158.363281 L 201.859375 158.363281 C 201.6875 158.363281 201.527344 158.203125 201.527344 158.03125 Z M 188.273438 95.628906 L 193 92.410156 L 193 146.257812 L 188.273438 142.996094 Z M 299.253906 96.917969 L 299.253906 141.6875 C 299.253906 144.042969 297.34375 145.953125 294.992188 145.953125 C 292.636719 145.953125 290.726562 144.042969 290.726562 141.6875 L 290.726562 96.917969 C 290.726562 94.5625 292.636719 92.652344 294.992188 92.652344 C 297.34375 92.652344 299.253906 94.5625 299.253906 96.917969 Z M 218.066406 225.644531 L 291.753906 225.644531 C 302.953125 225.644531 312.0625 215.542969 312.0625 203.125 C 312.0625 190.707031 302.953125 180.605469 291.753906 180.605469 L 218.066406 180.605469 C 215.710938 180.605469 213.804688 182.511719 213.804688 184.867188 L 213.804688 187.867188 L 195.492188 187.867188 C 193.140625 187.867188 191.230469 189.777344 191.230469 192.132812 L 191.230469 214.117188 C 191.230469 216.472656 193.140625 218.378906 195.492188 218.378906 L 213.804688 218.378906 L 213.804688 221.382812 C 213.804688 223.734375 215.710938 225.644531 218.066406 225.644531 Z M 222.332031 189.132812 L 291.753906 189.132812 C 298.25 189.132812 303.535156 195.410156 303.535156 203.125 C 303.535156 210.839844 298.25 217.117188 291.753906 217.117188 L 222.332031 217.117188 Z M 199.757812 209.851562 L 199.757812 196.394531 L 213.804688 196.394531 L 213.804688 209.851562 Z M 284.722656 195.203125 C 284.722656 197.558594 282.8125 199.46875 280.457031 199.46875 L 232.421875 199.46875 C 230.066406 199.46875 228.160156 197.558594 228.160156 195.203125 C 228.160156 192.847656 230.066406 190.941406 232.421875 190.941406 L 280.457031 190.941406 C 282.8125 190.941406 284.722656 192.847656 284.722656 195.203125 Z M 284.722656 195.203125 " fill-opacity="1" fill-rule="nonzero"/></g></svg>