<svg xmlns="http://www.w3.org/2000/svg" xmlns:xlink="http://www.w3.org/1999/xlink" width="500" zoomAndPan="magnify" viewBox="0 0 375 374.999991" height="500" preserveAspectRatio="xMidYMid meet" version="1.0"><defs><clipPath id="84cddc51fe"><path d="M 19.390625 19.390625 L 355.390625 19.390625 L 355.390625 355.390625 L 19.390625 355.390625 Z M 19.390625 19.390625 " clip-rule="nonzero"/></clipPath></defs><path fill="#ffffff" d="M 187.496094 321.980469 C 113.335938 321.980469 53.011719 261.652344 53.011719 187.496094 C 53.011719 113.335938 113.335938 53.011719 187.496094 53.011719 C 261.652344 53.011719 321.980469 113.335938 321.980469 187.496094 C 321.980469 261.652344 261.652344 321.980469 187.496094 321.980469 Z M 187.496094 41.804688 C 107.164062 41.804688 41.804688 107.164062 41.804688 187.496094 C 41.804688 267.824219 107.164062 333.1875 187.496094 333.1875 C 267.824219 333.1875 333.1875 267.824219 333.1875 187.496094 C 333.1875 107.164062 267.824219 41.804688 187.496094 41.804688 " fill-opacity="1" fill-rule="nonzero"/><path fill="#ffffff" d="M 114.648438 165.082031 C 105.367188 165.082031 97.839844 157.550781 97.839844 148.269531 C 97.839844 138.988281 105.367188 131.460938 114.648438 131.460938 C 123.929688 131.460938 131.460938 138.988281 131.460938 148.269531 C 131.460938 157.550781 123.929688 165.082031 114.648438 165.082031 Z M 142.667969 148.269531 C 142.667969 132.816406 130.101562 120.253906 114.648438 120.253906 C 99.195312 120.253906 86.632812 132.816406 86.632812 148.269531 C 86.632812 163.722656 99.195312 176.289062 114.648438 176.289062 C 130.101562 176.289062 142.667969 163.722656 142.667969 148.269531 " fill-opacity="1" fill-rule="nonzero"/><path fill="#ffffff" d="M 221.117188 153.875 C 227.289062 153.875 232.324219 158.90625 232.324219 165.082031 C 232.324219 171.253906 227.289062 176.289062 221.117188 176.289062 C 214.941406 176.289062 209.910156 171.253906 209.910156 165.082031 C 209.910156 158.90625 214.941406 153.875 221.117188 153.875 Z M 221.117188 187.496094 C 233.484375 187.496094 243.53125 177.449219 243.53125 165.082031 C 243.53125 152.714844 233.484375 142.667969 221.117188 142.667969 C 208.75 142.667969 198.703125 152.714844 198.703125 165.082031 C 198.703125 177.449219 208.75 187.496094 221.117188 187.496094 " fill-opacity="1" fill-rule="nonzero"/><path fill="#ffffff" d="M 159.476562 232.324219 C 147.109375 232.324219 137.0625 222.277344 137.0625 209.910156 C 137.0625 197.542969 147.109375 187.496094 159.476562 187.496094 C 171.84375 187.496094 181.890625 197.542969 181.890625 209.910156 C 181.890625 222.277344 171.84375 232.324219 159.476562 232.324219 Z M 159.476562 176.289062 C 140.9375 176.289062 125.855469 191.367188 125.855469 209.910156 C 125.855469 228.449219 140.9375 243.53125 159.476562 243.53125 C 178.015625 243.53125 193.097656 228.449219 193.097656 209.910156 C 193.097656 191.367188 178.015625 176.289062 159.476562 176.289062 " fill-opacity="1" fill-rule="nonzero"/><path fill="#ffffff" d="M 148.269531 288.359375 C 142.097656 288.359375 137.0625 283.324219 137.0625 277.152344 C 137.0625 270.976562 142.097656 265.945312 148.269531 265.945312 C 154.441406 265.945312 159.476562 270.976562 159.476562 277.152344 C 159.476562 283.324219 154.441406 288.359375 148.269531 288.359375 Z M 148.269531 254.738281 C 135.902344 254.738281 125.855469 264.785156 125.855469 277.152344 C 125.855469 289.519531 135.902344 299.566406 148.269531 299.566406 C 160.636719 299.566406 170.683594 289.519531 170.683594 277.152344 C 170.683594 264.785156 160.636719 254.738281 148.269531 254.738281 " fill-opacity="1" fill-rule="nonzero"/><path fill="#ffffff" d="M 282.753906 148.269531 C 282.753906 151.355469 280.238281 153.875 277.152344 153.875 C 274.0625 153.875 271.546875 151.355469 271.546875 148.269531 C 271.546875 145.183594 274.0625 142.667969 277.152344 142.667969 C 280.238281 142.667969 282.753906 145.183594 282.753906 148.269531 Z M 260.339844 148.269531 C 260.339844 157.550781 267.871094 165.082031 277.152344 165.082031 C 286.429688 165.082031 293.960938 157.550781 293.960938 148.269531 C 293.960938 138.988281 286.429688 131.460938 277.152344 131.460938 C 267.871094 131.460938 260.339844 138.988281 260.339844 148.269531 " fill-opacity="1" fill-rule="nonzero"/><path fill="#ffffff" d="M 170.683594 120.253906 C 158.316406 120.253906 148.269531 110.207031 148.269531 97.839844 C 148.269531 85.472656 158.316406 75.425781 170.683594 75.425781 C 183.050781 75.425781 193.097656 85.472656 193.097656 97.839844 C 193.097656 110.207031 183.050781 120.253906 170.683594 120.253906 Z M 170.683594 64.21875 C 152.144531 64.21875 137.0625 79.296875 137.0625 97.839844 C 137.0625 116.378906 152.144531 131.460938 170.683594 131.460938 C 189.222656 131.460938 204.304688 116.378906 204.304688 97.839844 C 204.304688 79.296875 189.222656 64.21875 170.683594 64.21875 " fill-opacity="1" fill-rule="nonzero"/><path fill="#ffffff" d="M 271.546875 237.925781 C 262.265625 237.925781 254.738281 230.394531 254.738281 221.117188 C 254.738281 211.835938 262.265625 204.304688 271.546875 204.304688 C 280.828125 204.304688 288.359375 211.835938 288.359375 221.117188 C 288.359375 230.394531 280.828125 237.925781 271.546875 237.925781 Z M 271.546875 193.097656 C 256.09375 193.097656 243.53125 205.664062 243.53125 221.117188 C 243.53125 236.570312 256.09375 249.132812 271.546875 249.132812 C 287 249.132812 299.566406 236.570312 299.566406 221.117188 C 299.566406 205.664062 287 193.097656 271.546875 193.097656 " fill-opacity="1" fill-rule="nonzero"/><path fill="#ffffff" d="M 92.234375 215.511719 C 89.148438 215.511719 86.632812 212.996094 86.632812 209.910156 C 86.632812 206.820312 89.148438 204.304688 92.234375 204.304688 C 95.320312 204.304688 97.839844 206.820312 97.839844 209.910156 C 97.839844 212.996094 95.320312 215.511719 92.234375 215.511719 Z M 92.234375 193.097656 C 82.953125 193.097656 75.425781 200.628906 75.425781 209.910156 C 75.425781 219.1875 82.953125 226.71875 92.234375 226.71875 C 101.515625 226.71875 109.046875 219.1875 109.046875 209.910156 C 109.046875 200.628906 101.515625 193.097656 92.234375 193.097656 " fill-opacity="1" fill-rule="nonzero"/><path fill="#ffffff" d="M 243.53125 92.234375 C 249.703125 92.234375 254.738281 97.269531 254.738281 103.441406 C 254.738281 109.613281 249.703125 114.648438 243.53125 114.648438 C 237.355469 114.648438 232.324219 109.613281 232.324219 103.441406 C 232.324219 97.269531 237.355469 92.234375 243.53125 92.234375 Z M 243.53125 125.855469 C 255.898438 125.855469 265.945312 115.808594 265.945312 103.441406 C 265.945312 91.074219 255.898438 81.027344 243.53125 81.027344 C 231.164062 81.027344 221.117188 91.074219 221.117188 103.441406 C 221.117188 115.808594 231.164062 125.855469 243.53125 125.855469 " fill-opacity="1" fill-rule="nonzero"/><path fill="#ffffff" d="M 221.117188 288.359375 C 218.027344 288.359375 215.511719 285.839844 215.511719 282.753906 C 215.511719 279.667969 218.027344 277.152344 221.117188 277.152344 C 224.203125 277.152344 226.71875 279.667969 226.71875 282.753906 C 226.71875 285.839844 224.203125 288.359375 221.117188 288.359375 Z M 221.117188 265.945312 C 211.835938 265.945312 204.304688 273.472656 204.304688 282.753906 C 204.304688 292.035156 211.835938 299.566406 221.117188 299.566406 C 230.394531 299.566406 237.925781 292.035156 237.925781 282.753906 C 237.925781 273.472656 230.394531 265.945312 221.117188 265.945312 " fill-opacity="1" fill-rule="nonzero"/><g clip-path="url(#84cddc51fe)"><path fill="#ffffff" d="M 187.496094 344.394531 C 100.96875 344.394531 30.597656 274.019531 30.597656 187.496094 C 30.597656 100.96875 100.96875 30.597656 187.496094 30.597656 C 274.019531 30.597656 344.394531 100.96875 344.394531 187.496094 C 344.394531 274.019531 274.019531 344.394531 187.496094 344.394531 Z M 187.496094 19.390625 C 94.796875 19.390625 19.390625 94.796875 19.390625 187.496094 C 19.390625 280.191406 94.796875 355.601562 187.496094 355.601562 C 280.191406 355.601562 355.601562 280.191406 355.601562 187.496094 C 355.601562 94.796875 280.191406 19.390625 187.496094 19.390625 " fill-opacity="1" fill-rule="nonzero"/></g></svg>