<svg xmlns="http://www.w3.org/2000/svg" xmlns:xlink="http://www.w3.org/1999/xlink" width="500" zoomAndPan="magnify" viewBox="0 0 375 374.999991" height="500" preserveAspectRatio="xMidYMid meet" version="1.0"><defs><clipPath id="d76a23b87f"><path d="M 22.589844 22.589844 L 352.589844 22.589844 L 352.589844 352.589844 L 22.589844 352.589844 Z M 22.589844 22.589844 " clip-rule="nonzero"/></clipPath></defs><g clip-path="url(#d76a23b87f)"><path fill="#ffffff" d="M 337.207031 218.710938 C 309.8125 218.710938 296.0625 251.902344 315.433594 271.277344 C 321.363281 277.207031 321.363281 286.851562 315.433594 292.78125 L 292.78125 315.433594 C 286.851562 321.363281 277.207031 321.363281 271.277344 315.433594 C 251.902344 296.0625 218.710938 309.8125 218.710938 337.207031 C 218.710938 345.625 211.90625 352.402344 203.515625 352.402344 L 171.472656 352.402344 C 163.085938 352.402344 156.277344 345.625 156.277344 337.207031 C 156.277344 309.78125 123.101562 296.042969 103.714844 315.433594 C 97.78125 321.363281 88.160156 321.363281 82.230469 315.433594 L 59.554688 292.78125 C 53.628906 286.851562 53.628906 277.207031 59.554688 271.277344 C 78.929688 251.902344 65.191406 218.710938 37.785156 218.710938 C 29.394531 218.710938 22.589844 211.90625 22.589844 203.515625 L 22.589844 171.472656 C 22.589844 163.085938 29.394531 156.277344 37.785156 156.277344 C 65.191406 156.277344 78.929688 123.085938 59.554688 103.714844 C 53.625 97.78125 53.625 88.160156 59.554688 82.230469 L 82.230469 59.554688 C 88.160156 53.625 97.78125 53.625 103.714844 59.554688 C 123.085938 78.929688 156.277344 65.191406 156.277344 37.785156 C 156.277344 29.394531 163.085938 22.589844 171.472656 22.589844 L 203.515625 22.589844 C 211.90625 22.589844 218.710938 29.394531 218.710938 37.785156 C 218.710938 65.191406 251.902344 78.929688 271.277344 59.554688 C 277.207031 53.628906 286.851562 53.628906 292.78125 59.554688 L 315.433594 82.230469 C 321.363281 88.160156 321.363281 97.78125 315.433594 103.714844 C 296.0625 123.085938 309.8125 156.277344 337.207031 156.277344 C 345.625 156.277344 352.402344 163.085938 352.402344 171.472656 L 352.402344 203.515625 C 352.402344 211.90625 345.625 218.710938 337.207031 218.710938 Z M 337.207031 209.363281 C 340.445312 209.363281 343.054688 206.746094 343.054688 203.515625 L 343.054688 171.472656 C 343.054688 168.246094 340.445312 165.625 337.207031 165.625 C 301.5 165.625 283.570312 122.359375 308.824219 97.105469 C 311.105469 94.824219 311.105469 91.121094 308.824219 88.839844 L 286.171875 66.164062 C 283.886719 63.882812 280.167969 63.882812 277.886719 66.164062 C 252.632812 91.417969 209.363281 73.511719 209.363281 37.785156 C 209.363281 34.554688 206.746094 31.9375 203.515625 31.9375 L 171.472656 31.9375 C 168.246094 31.9375 165.625 34.554688 165.625 37.785156 C 165.625 73.511719 122.359375 91.417969 97.105469 66.164062 C 94.824219 63.882812 91.121094 63.882812 88.839844 66.164062 L 66.164062 88.839844 C 63.882812 91.121094 63.882812 94.824219 66.164062 97.105469 C 91.417969 122.359375 73.511719 165.625 37.785156 165.625 C 34.554688 165.625 31.9375 168.246094 31.9375 171.472656 L 31.9375 203.515625 C 31.9375 206.746094 34.554688 209.363281 37.785156 209.363281 C 73.511719 209.363281 91.417969 252.632812 66.164062 277.886719 C 63.882812 280.167969 63.882812 283.886719 66.164062 286.171875 L 88.839844 308.824219 C 91.121094 311.105469 94.824219 311.105469 97.105469 308.824219 C 122.378906 283.550781 165.625 301.457031 165.625 337.207031 C 165.625 340.445312 168.246094 343.054688 171.472656 343.054688 L 203.515625 343.054688 C 206.746094 343.054688 209.363281 340.445312 209.363281 337.207031 C 209.363281 301.5 252.632812 283.570312 277.886719 308.824219 C 280.167969 311.109375 283.886719 311.109375 286.171875 308.824219 L 308.824219 286.171875 C 311.109375 283.886719 311.109375 280.167969 308.824219 277.886719 C 283.570312 252.632812 301.5 209.363281 337.207031 209.363281 Z M 187.503906 289.652344 C 131.234375 289.652344 85.355469 243.75 85.355469 187.503906 C 85.355469 131.234375 131.234375 85.355469 187.503906 85.355469 C 243.75 85.355469 289.652344 131.234375 289.652344 187.503906 C 289.652344 243.75 243.75 289.652344 187.503906 289.652344 Z M 187.503906 280.304688 C 238.605469 280.304688 280.304688 238.605469 280.304688 187.503906 C 280.304688 136.382812 238.605469 94.703125 187.503906 94.703125 C 136.382812 94.703125 94.703125 136.382812 94.703125 187.503906 C 94.703125 238.605469 136.382812 280.304688 187.503906 280.304688 Z M 257.378906 235.71875 L 193.226562 235.71875 C 191.761719 235.71875 190.378906 235.027344 189.496094 233.855469 C 188.613281 232.683594 188.332031 231.164062 188.734375 229.753906 L 201.007812 187.023438 C 201.585938 185.023438 203.417969 183.640625 205.5 183.640625 L 245.105469 183.640625 C 247.191406 183.640625 249.023438 185.023438 249.597656 187.023438 L 261.871094 229.753906 C 262.277344 231.164062 261.996094 232.683594 261.113281 233.855469 C 260.230469 235.027344 258.847656 235.71875 257.378906 235.71875 Z M 251.175781 226.371094 L 241.585938 192.988281 C 241.585938 192.988281 209.023438 192.988281 209.023438 192.988281 L 199.433594 226.371094 Z M 219.589844 178.625 L 155.4375 178.625 C 153.96875 178.625 152.585938 177.9375 151.703125 176.765625 C 150.820312 175.59375 150.539062 174.074219 150.945312 172.664062 L 163.21875 129.933594 C 163.792969 127.929688 165.625 126.550781 167.710938 126.550781 L 207.316406 126.550781 C 209.402344 126.550781 211.234375 127.929688 211.808594 129.933594 L 224.082031 172.664062 C 224.488281 174.074219 224.207031 175.59375 223.324219 176.765625 C 222.441406 177.9375 221.058594 178.625 219.589844 178.625 Z M 213.386719 169.28125 L 203.796875 135.898438 C 203.796875 135.898438 171.230469 135.898438 171.230469 135.898438 L 161.640625 169.28125 Z M 181.78125 235.71875 L 117.628906 235.71875 C 116.160156 235.71875 114.777344 235.027344 113.894531 233.855469 C 113.011719 232.683594 112.730469 231.164062 113.136719 229.753906 L 125.410156 187.023438 C 125.984375 185.023438 127.816406 183.640625 129.902344 183.640625 L 169.507812 183.640625 C 171.59375 183.640625 173.425781 185.023438 174 187.023438 L 186.273438 229.753906 C 186.679688 231.164062 186.398438 232.683594 185.515625 233.855469 C 184.628906 235.027344 183.25 235.71875 181.78125 235.71875 Z M 175.578125 226.371094 L 165.988281 192.988281 C 165.988281 192.988281 133.421875 192.988281 133.421875 192.988281 L 123.832031 226.371094 Z M 175.578125 226.371094 " fill-opacity="1" fill-rule="evenodd"/></g></svg>