<svg xmlns="http://www.w3.org/2000/svg" xmlns:xlink="http://www.w3.org/1999/xlink" width="500" zoomAndPan="magnify" viewBox="0 0 375 374.999991" height="500" preserveAspectRatio="xMidYMid meet" version="1.0"><defs><clipPath id="07e24fafee"><path d="M 43 61 L 332 61 L 332 314.4375 L 43 314.4375 Z M 43 61 " clip-rule="nonzero"/></clipPath></defs><g clip-path="url(#07e24fafee)"><path fill="#ffffff" d="M 248.050781 210.734375 C 229.910156 200.261719 208.515625 203.234375 200.359375 217.359375 C 192.199219 231.488281 200.328125 251.503906 218.46875 261.980469 C 220.558594 263.191406 222.710938 264.230469 224.902344 265.101562 C 216.417969 266.515625 207.550781 265.007812 199.867188 260.570312 C 196.445312 258.589844 193.378906 256.109375 190.746094 253.199219 C 189.914062 252.285156 188.738281 251.761719 187.5 251.761719 C 186.269531 251.761719 185.089844 252.285156 184.265625 253.199219 C 181.636719 256.117188 178.558594 258.589844 175.136719 260.570312 C 167.449219 265.007812 158.589844 266.515625 150.105469 265.101562 C 152.292969 264.230469 154.445312 263.191406 156.539062 261.980469 C 174.675781 251.503906 182.804688 231.488281 174.648438 217.359375 C 170.570312 210.308594 163.21875 205.808594 153.945312 204.691406 C 145.132812 203.625 135.542969 205.773438 126.953125 210.734375 C 124.859375 211.945312 122.882812 213.285156 121.035156 214.746094 C 124.050781 206.691406 129.785156 199.769531 137.476562 195.328125 C 140.898438 193.355469 144.585938 191.933594 148.414062 191.113281 C 149.625 190.851562 150.667969 190.09375 151.285156 189.023438 C 151.898438 187.957031 152.035156 186.675781 151.660156 185.5 C 150.453125 181.765625 149.839844 177.867188 149.839844 173.914062 C 149.839844 165.039062 152.96875 156.613281 158.433594 149.96875 C 158.089844 152.300781 157.914062 154.6875 157.914062 157.101562 C 157.914062 178.050781 171.191406 195.089844 187.5 195.089844 C 203.8125 195.089844 217.089844 178.050781 217.089844 157.101562 C 217.089844 154.6875 216.917969 152.300781 216.570312 149.96875 C 222.039062 156.613281 225.164062 165.039062 225.164062 173.914062 C 225.164062 177.867188 224.550781 181.765625 223.347656 185.5 C 222.96875 186.675781 223.105469 187.957031 223.722656 189.023438 C 224.339844 190.09375 225.382812 190.851562 226.589844 191.113281 C 230.429688 191.933594 234.109375 193.355469 237.53125 195.328125 C 245.222656 199.769531 250.953125 206.691406 253.96875 214.746094 C 252.125 213.285156 250.144531 211.945312 248.050781 210.734375 Z M 208.53125 239.90625 C 217.246094 233.6875 222.792969 223.894531 223.625 213.183594 C 216.753906 213.621094 210.929688 216.519531 207.917969 221.726562 C 204.867188 227.023438 205.324219 233.648438 208.53125 239.90625 Z M 151.390625 213.226562 C 152.222656 223.921875 157.769531 233.695312 166.472656 239.90625 C 169.679688 233.648438 170.140625 227.023438 167.085938 221.726562 C 164.417969 217.117188 159.382812 214.140625 152.898438 213.359375 C 152.398438 213.300781 151.898438 213.253906 151.390625 213.226562 Z M 187.5 174.179688 C 182.304688 174.179688 177.199219 175.289062 172.519531 177.421875 C 176.316406 182.921875 181.628906 186.359375 187.5 186.359375 C 193.382812 186.359375 198.691406 182.921875 202.488281 177.421875 C 197.808594 175.289062 192.703125 174.179688 187.5 174.179688 Z M 241.898438 187.765625 C 239.023438 186.105469 235.988281 184.761719 232.851562 183.753906 C 233.546875 180.535156 233.898438 177.242188 233.898438 173.914062 C 233.898438 157.007812 224.691406 141.429688 209.878906 133.261719 C 208.171875 132.316406 206.046875 132.621094 204.671875 134 C 203.296875 135.382812 203.007812 137.507812 203.953125 139.207031 C 206.835938 144.382812 208.355469 150.570312 208.355469 157.101562 C 208.355469 161.566406 207.636719 165.796875 206.359375 169.585938 C 200.472656 166.871094 194.046875 165.445312 187.5 165.445312 C 180.960938 165.445312 174.53125 166.871094 168.652344 169.585938 C 167.371094 165.796875 166.648438 161.570312 166.648438 157.101562 C 166.648438 150.570312 168.175781 144.382812 171.054688 139.207031 C 172.003906 137.503906 171.710938 135.382812 170.332031 134 C 168.960938 132.621094 166.835938 132.320312 165.128906 133.261719 C 150.3125 141.429688 141.109375 157.007812 141.109375 173.914062 C 141.109375 177.242188 141.457031 180.535156 142.15625 183.753906 C 139.019531 184.761719 135.988281 186.105469 133.109375 187.765625 C 118.46875 196.21875 109.582031 211.984375 109.914062 228.90625 C 109.949219 230.847656 111.277344 232.535156 113.160156 233.039062 C 115.035156 233.539062 117.019531 232.730469 118.023438 231.058594 C 121.070312 225.976562 125.660156 221.5625 131.320312 218.296875 C 134.984375 216.183594 138.835938 214.699219 142.679688 213.890625 C 143.710938 227.1875 150.609375 239.332031 161.4375 247.046875 C 158.894531 249.8125 155.78125 252.332031 152.171875 254.417969 C 146.515625 257.683594 140.394531 259.457031 134.46875 259.550781 C 132.527344 259.582031 130.835938 260.894531 130.328125 262.777344 C 129.820312 264.65625 130.617188 266.640625 132.28125 267.648438 C 139.671875 272.109375 147.980469 274.34375 156.3125 274.34375 C 164.3125 274.34375 172.328125 272.277344 179.503906 268.132812 C 182.386719 266.46875 185.0625 264.519531 187.503906 262.300781 C 189.941406 264.519531 192.621094 266.46875 195.5 268.132812 C 210.144531 276.585938 228.234375 276.398438 242.726562 267.648438 C 244.390625 266.640625 245.1875 264.65625 244.679688 262.777344 C 244.175781 260.894531 242.480469 259.582031 240.535156 259.550781 C 234.609375 259.457031 228.488281 257.683594 222.835938 254.417969 C 219.230469 252.332031 216.113281 249.8125 213.570312 247.046875 C 224.398438 239.332031 231.292969 227.179688 232.328125 213.882812 C 236.101562 214.691406 239.96875 216.148438 243.683594 218.296875 C 249.34375 221.5625 253.9375 225.976562 256.984375 231.058594 C 257.984375 232.730469 259.96875 233.539062 261.851562 233.039062 C 263.730469 232.539062 265.054688 230.847656 265.089844 228.90625 C 265.429688 211.984375 256.539062 196.21875 241.898438 187.765625 Z M 322.269531 258.183594 C 323.039062 256.855469 323.039062 255.453125 322.269531 254.125 L 301.234375 217.65625 C 300.460938 216.316406 299.039062 215.6875 297.523438 216.007812 L 289.734375 217.664062 C 284.21875 218.832031 278.828125 216.433594 276.007812 211.546875 L 230.765625 133.191406 C 227.949219 128.300781 228.566406 122.433594 232.335938 118.242188 L 237.664062 112.324219 C 238.703125 111.171875 238.867188 109.628906 238.089844 108.289062 L 217.03125 71.816406 C 216.269531 70.496094 215.050781 69.789062 213.519531 69.789062 L 161.484375 69.789062 C 159.953125 69.789062 158.738281 70.496094 157.972656 71.816406 L 136.917969 108.289062 C 136.144531 109.628906 136.304688 111.171875 137.339844 112.324219 L 142.667969 118.242188 C 146.449219 122.433594 147.0625 128.300781 144.242188 133.191406 L 98.996094 211.546875 C 96.179688 216.433594 90.789062 218.832031 85.269531 217.664062 L 77.480469 216.007812 C 75.96875 215.683594 74.542969 216.316406 73.769531 217.65625 L 52.71875 254.125 C 51.953125 255.453125 51.953125 256.855469 52.71875 258.183594 L 78.738281 303.25 C 79.5 304.570312 80.714844 305.277344 82.246094 305.277344 L 124.359375 305.277344 C 125.90625 305.277344 127.164062 304.363281 127.644531 302.890625 L 130.105469 295.3125 C 131.847656 289.953125 136.621094 286.480469 142.265625 286.480469 L 232.742188 286.480469 C 238.386719 286.480469 243.160156 289.953125 244.898438 295.3125 L 247.363281 302.890625 C 247.839844 304.363281 249.097656 305.277344 250.648438 305.277344 L 292.757812 305.277344 C 294.289062 305.277344 295.503906 304.570312 296.269531 303.25 Z M 329.832031 249.757812 L 308.796875 213.289062 C 306.105469 208.632812 300.96875 206.347656 295.710938 207.460938 L 287.917969 209.121094 C 286.140625 209.492188 284.480469 208.753906 283.570312 207.183594 L 238.328125 128.824219 C 237.417969 127.253906 237.613281 125.4375 238.832031 124.085938 L 244.15625 118.171875 C 247.753906 114.171875 248.34375 108.582031 245.652344 103.925781 L 224.59375 67.449219 C 222.28125 63.449219 218.144531 61.058594 213.519531 61.058594 L 161.488281 61.058594 C 156.863281 61.058594 152.722656 63.449219 150.414062 67.449219 L 129.351562 103.925781 C 126.664062 108.582031 127.253906 114.171875 130.847656 118.171875 L 136.175781 124.085938 C 137.394531 125.4375 137.585938 127.253906 136.675781 128.824219 L 91.433594 207.183594 C 90.527344 208.753906 88.863281 209.492188 87.089844 209.121094 L 79.300781 207.460938 C 74.035156 206.34375 68.902344 208.632812 66.210938 213.289062 L 45.160156 249.757812 C 42.847656 253.761719 42.847656 258.542969 45.160156 262.550781 L 71.175781 307.617188 C 73.488281 311.617188 77.625 314.007812 82.25 314.007812 L 124.359375 314.007812 C 129.738281 314.007812 134.285156 310.703125 135.953125 305.585938 L 138.40625 298.015625 C 138.972656 296.289062 140.453125 295.214844 142.265625 295.214844 L 232.746094 295.214844 C 234.5625 295.214844 236.035156 296.289062 236.601562 298.015625 L 239.054688 305.585938 C 240.722656 310.703125 245.269531 314.007812 250.648438 314.007812 L 292.757812 314.007812 C 297.382812 314.007812 301.523438 311.617188 303.832031 307.617188 L 329.835938 262.550781 C 332.144531 258.542969 332.144531 253.761719 329.832031 249.757812 Z M 329.832031 249.757812 " fill-opacity="1" fill-rule="evenodd"/></g></svg>