<svg xmlns="http://www.w3.org/2000/svg" xmlns:xlink="http://www.w3.org/1999/xlink" width="500" zoomAndPan="magnify" viewBox="0 0 375 374.999991" height="500" preserveAspectRatio="xMidYMid meet" version="1.0"><defs><clipPath id="7513ebbc2d"><path d="M 132 31.457031 L 242.894531 31.457031 L 242.894531 343.457031 L 132 343.457031 Z M 132 31.457031 " clip-rule="nonzero"/></clipPath></defs><g clip-path="url(#7513ebbc2d)"><path fill="#ffffff" d="M 232.65625 108.652344 L 232.460938 108.285156 C 229.078125 101.992188 225.023438 96.160156 220.378906 90.816406 C 225.570312 88.914062 230.160156 85.644531 233.550781 81.320312 C 238.269531 75.292969 240.273438 67.851562 239.042969 60.90625 C 237.101562 49.949219 227.140625 41.179688 214.96875 39.390625 C 214.183594 34.894531 210.277344 31.457031 205.5625 31.457031 L 169.40625 31.457031 C 164.128906 31.457031 159.832031 35.753906 159.832031 41.03125 L 159.832031 66.660156 C 159.832031 68.027344 160.941406 69.136719 162.308594 69.136719 L 164.867188 69.136719 L 164.867188 80.636719 C 161.238281 83.726562 157.875 87.050781 154.773438 90.601562 C 154.75 90.625 154.726562 90.65625 154.703125 90.679688 C 150.011719 96.0625 145.917969 101.933594 142.511719 108.277344 L 142.3125 108.648438 C 135.660156 121.160156 132.144531 135.679688 132.144531 150.632812 L 132.144531 331.226562 C 132.144531 338.007812 137.664062 343.527344 144.449219 343.527344 L 230.519531 343.527344 C 237.304688 343.527344 242.824219 338.007812 242.824219 331.226562 L 242.824219 150.632812 C 242.824219 135.679688 239.308594 121.160156 232.65625 108.652344 Z M 234.164062 61.773438 C 235.148438 67.332031 233.503906 73.34375 229.652344 78.257812 C 226.410156 82.398438 221.84375 85.386719 216.703125 86.804688 C 215.238281 85.304688 213.730469 83.851562 212.167969 82.441406 C 215.148438 81.9375 221.449219 80.59375 225.648438 75.078125 C 227.367188 72.820312 230.109375 68.203125 229.128906 62.660156 C 228.011719 56.339844 222.28125 51.144531 215.136719 49.613281 L 215.136719 44.449219 C 224.707031 46.226562 232.660156 53.300781 234.164062 61.773438 Z M 212.65625 69.136719 C 214.023438 69.136719 215.132812 68.03125 215.132812 66.660156 L 215.132812 54.710938 C 219.8125 56.070312 223.539062 59.527344 224.25 63.527344 C 224.902344 67.207031 222.933594 70.464844 221.703125 72.082031 C 218.394531 76.433594 212.828125 77.324219 210.730469 77.664062 C 210.523438 77.695312 210.308594 77.6875 210.101562 77.714844 L 210.101562 69.140625 L 212.65625 69.140625 Z M 164.785156 41.03125 C 164.785156 38.484375 166.859375 36.414062 169.40625 36.414062 L 205.5625 36.414062 C 208.109375 36.414062 210.183594 38.484375 210.183594 41.03125 L 210.183594 54.113281 L 164.785156 54.113281 Z M 164.785156 59.066406 L 210.179688 59.066406 L 210.179688 64.183594 L 164.785156 64.183594 Z M 205.148438 69.136719 L 205.148438 79.289062 L 169.820312 79.289062 L 169.820312 69.136719 Z M 168.273438 84.242188 L 206.695312 84.242188 C 208.824219 86.042969 210.867188 87.925781 212.804688 89.894531 L 162.164062 89.894531 C 164.101562 87.925781 166.144531 86.042969 168.273438 84.242188 Z M 237.871094 331.226562 C 237.871094 335.277344 234.570312 338.574219 230.519531 338.574219 L 144.449219 338.574219 C 140.394531 338.574219 137.097656 335.277344 137.097656 331.226562 L 137.097656 150.632812 C 137.097656 136.484375 140.414062 122.773438 146.6875 110.972656 L 146.871094 110.628906 C 149.914062 104.964844 153.53125 99.699219 157.652344 94.847656 L 217.316406 94.847656 C 221.4375 99.699219 225.058594 104.964844 228.101562 110.632812 L 228.28125 110.976562 C 234.554688 122.773438 237.871094 136.484375 237.871094 150.632812 Z M 237.871094 331.226562 " fill-opacity="1" fill-rule="nonzero"/></g><path fill="#ffffff" d="M 206.300781 169.539062 C 205.085938 168.894531 203.589844 169.363281 202.949219 170.570312 C 202.3125 171.777344 202.773438 173.277344 203.980469 173.917969 C 215.570312 180.058594 222.765625 192.015625 222.765625 205.117188 C 222.765625 223.769531 208.207031 239.046875 189.859375 240.28125 L 193.960938 237.339844 C 195.070312 236.542969 195.328125 234.996094 194.53125 233.882812 C 193.730469 232.765625 192.183594 232.511719 191.074219 233.3125 L 181.007812 240.535156 C 180.992188 240.542969 180.988281 240.5625 180.972656 240.570312 C 180.707031 240.769531 180.480469 241.015625 180.3125 241.304688 C 180.261719 241.382812 180.257812 241.476562 180.222656 241.5625 C 180.128906 241.773438 180.027344 241.980469 179.992188 242.222656 C 179.992188 242.238281 180 242.257812 179.996094 242.273438 C 179.992188 242.292969 179.980469 242.308594 179.980469 242.324219 C 179.972656 242.4375 180.015625 242.539062 180.019531 242.648438 C 180.03125 242.871094 180.035156 243.085938 180.101562 243.292969 C 180.140625 243.410156 180.210938 243.503906 180.261719 243.617188 C 180.359375 243.8125 180.460938 244 180.601562 244.160156 C 180.628906 244.195312 180.636719 244.238281 180.667969 244.269531 L 190.738281 254.671875 C 191.222656 255.171875 191.871094 255.425781 192.515625 255.425781 C 193.136719 255.425781 193.757812 255.195312 194.238281 254.730469 C 195.21875 253.777344 195.246094 252.210938 194.292969 251.226562 L 188.558594 245.304688 C 210.246094 244.722656 227.71875 226.945312 227.71875 205.125 C 227.71875 190.175781 219.511719 176.542969 206.300781 169.539062 Z M 206.300781 169.539062 " fill-opacity="1" fill-rule="nonzero"/><path fill="#ffffff" d="M 180.667969 179.148438 C 181.15625 179.648438 181.804688 179.902344 182.449219 179.902344 C 183.070312 179.902344 183.691406 179.671875 184.171875 179.207031 L 194.238281 169.46875 C 194.308594 169.398438 194.339844 169.304688 194.398438 169.230469 C 194.523438 169.078125 194.632812 168.929688 194.71875 168.75 C 194.785156 168.613281 194.828125 168.46875 194.867188 168.320312 C 194.894531 168.210938 194.957031 168.125 194.972656 168.011719 C 194.984375 167.929688 194.953125 167.855469 194.957031 167.773438 C 194.957031 167.699219 194.992188 167.632812 194.992188 167.5625 C 194.984375 167.476562 194.9375 167.40625 194.925781 167.324219 C 194.894531 167.128906 194.847656 166.949219 194.773438 166.769531 C 194.71875 166.636719 194.664062 166.519531 194.589844 166.398438 C 194.484375 166.230469 194.359375 166.085938 194.21875 165.949219 C 194.152344 165.882812 194.117188 165.796875 194.042969 165.742188 L 183.976562 157.855469 C 182.898438 157.011719 181.339844 157.199219 180.5 158.277344 C 179.652344 159.355469 179.84375 160.910156 180.917969 161.753906 L 185.070312 165.003906 C 164.007812 166.261719 147.246094 183.746094 147.246094 205.117188 C 147.246094 220.082031 155.472656 233.71875 168.710938 240.714844 C 169.082031 240.910156 169.476562 241 169.867188 241 C 170.753906 241 171.613281 240.523438 172.058594 239.683594 C 172.695312 238.472656 172.234375 236.976562 171.023438 236.335938 C 159.414062 230.199219 152.199219 218.234375 152.199219 205.117188 C 152.199219 185.929688 167.605469 170.300781 186.695312 169.875 L 180.726562 175.648438 C 179.742188 176.597656 179.71875 178.160156 180.667969 179.148438 Z M 180.667969 179.148438 " fill-opacity="1" fill-rule="nonzero"/></svg>