<svg xmlns="http://www.w3.org/2000/svg" xmlns:xlink="http://www.w3.org/1999/xlink" width="500" zoomAndPan="magnify" viewBox="0 0 375 374.999991" height="500" preserveAspectRatio="xMidYMid meet" version="1.0"><defs><clipPath id="ba48becef5"><path d="M 35.886719 34.933594 L 338 34.933594 L 338 340.183594 L 35.886719 340.183594 Z M 35.886719 34.933594 " clip-rule="nonzero"/></clipPath></defs><g clip-path="url(#ba48becef5)"><path fill="#fb452f" d="M 128.148438 220.410156 L 112.921875 246.785156 C 112.269531 247.917969 112.09375 249.261719 112.429688 250.519531 C 112.769531 251.78125 113.59375 252.855469 114.722656 253.507812 C 123.441406 258.542969 133.214844 261.058594 142.996094 261.058594 C 152.769531 261.058594 162.546875 258.542969 171.273438 253.515625 C 172.40625 252.863281 173.230469 251.789062 173.570312 250.527344 C 173.90625 249.269531 173.730469 247.925781 173.078125 246.792969 L 157.847656 220.410156 C 160.945312 217.515625 163.191406 213.726562 164.183594 209.457031 L 194.632812 209.457031 C 195.9375 209.457031 197.191406 208.9375 198.113281 208.011719 C 199.039062 207.089844 199.554688 205.835938 199.554688 204.53125 C 199.535156 184.386719 188.699219 165.621094 171.273438 155.5625 C 168.917969 154.203125 165.90625 155.007812 164.550781 157.363281 L 149.328125 183.722656 C 147.324219 183.113281 145.199219 182.78125 142.996094 182.78125 C 140.792969 182.78125 138.667969 183.113281 136.664062 183.722656 L 121.441406 157.355469 C 120.082031 155.003906 117.078125 154.195312 114.722656 155.554688 C 106.152344 160.488281 98.996094 167.648438 94.023438 176.257812 C 89.054688 184.867188 86.429688 194.648438 86.441406 204.539062 C 86.441406 207.253906 88.644531 209.457031 91.363281 209.457031 L 121.8125 209.457031 C 122.804688 213.726562 125.050781 217.515625 128.148438 220.410156 Z M 161.960938 247.222656 C 149.910156 252.550781 136.070312 252.550781 124.039062 247.21875 L 136.664062 225.347656 C 138.667969 225.957031 140.792969 226.289062 142.996094 226.289062 C 145.199219 226.289062 147.324219 225.957031 149.328125 225.347656 Z M 170.484375 166.773438 C 181.117188 174.527344 188.035156 186.511719 189.445312 199.613281 L 164.183594 199.613281 C 163.191406 195.347656 160.945312 191.558594 157.847656 188.660156 Z M 154.910156 204.535156 C 154.910156 211.101562 149.566406 216.445312 142.996094 216.445312 C 136.429688 216.445312 131.085938 211.101562 131.085938 204.535156 C 131.085938 197.96875 136.429688 192.625 142.996094 192.625 C 149.566406 192.625 154.910156 197.96875 154.910156 204.535156 Z M 102.546875 181.179688 C 105.828125 175.503906 110.253906 170.589844 115.507812 166.765625 L 128.148438 188.660156 C 125.050781 191.554688 122.804688 195.34375 121.8125 199.613281 L 96.542969 199.613281 C 97.226562 193.152344 99.269531 186.859375 102.546875 181.179688 Z M 187.039062 90.402344 C 203.019531 90.402344 215.074219 83.054688 215.074219 73.3125 C 215.074219 63.566406 203.019531 56.21875 187.039062 56.21875 C 171.054688 56.21875 159.003906 63.566406 159.003906 73.3125 C 159.003906 83.054688 171.054688 90.402344 187.039062 90.402344 Z M 187.039062 66.0625 C 198.324219 66.0625 205.230469 70.753906 205.230469 73.3125 C 205.230469 75.867188 198.324219 80.558594 187.039062 80.558594 C 175.753906 80.558594 168.847656 75.867188 168.847656 73.3125 C 168.847656 70.753906 175.753906 66.0625 187.039062 66.0625 Z M 334.195312 299.554688 L 285.832031 215.789062 C 280.949219 207.335938 272.207031 202.289062 262.445312 202.289062 C 258.019531 202.289062 253.808594 203.332031 250.066406 205.253906 L 250.066406 72.367188 C 250.066406 61.203125 238.535156 51.632812 216.71875 44.6875 C 196.957031 38.398438 170.773438 34.933594 142.996094 34.933594 C 115.222656 34.933594 89.039062 38.398438 69.277344 44.6875 C 47.460938 51.632812 35.929688 61.203125 35.929688 72.367188 L 35.929688 270.582031 C 35.929688 281.746094 47.460938 291.316406 69.277344 298.257812 C 89.039062 304.550781 115.222656 308.011719 142.996094 308.011719 C 158.808594 308.011719 174.300781 306.871094 188.394531 304.691406 C 186.007812 311.90625 186.769531 319.765625 190.695312 326.5625 C 195.574219 335.019531 204.320312 340.066406 214.082031 340.066406 L 310.804688 340.066406 C 320.570312 340.066406 329.3125 335.019531 334.195312 326.5625 C 339.078125 318.109375 339.078125 308.011719 334.195312 299.554688 Z M 229.15625 232.933594 C 223.324219 236.160156 215.640625 239.027344 206.515625 241.40625 C 209.515625 236.261719 211.90625 230.71875 213.589844 224.882812 C 225.09375 221.507812 234.058594 217.363281 240.222656 212.660156 L 240.222656 213.957031 C 239.816406 214.550781 239.421875 215.15625 239.054688 215.789062 Z M 142.996094 140.917969 C 178.078125 140.917969 206.617188 169.457031 206.617188 204.535156 C 206.617188 239.613281 178.078125 268.152344 142.996094 268.152344 C 107.917969 268.152344 79.378906 239.613281 79.378906 204.535156 C 79.378906 169.457031 107.917969 140.917969 142.996094 140.917969 Z M 215.871094 213.847656 C 216.257812 210.796875 216.460938 207.6875 216.460938 204.535156 C 216.460938 194.472656 214.421875 184.875 210.746094 176.132812 C 223.640625 172.625 233.566406 168.230469 240.222656 163.160156 L 240.222656 196.25 C 240.222656 200.804688 233.675781 207.820312 215.871094 213.847656 Z M 206.210938 167.152344 C 203.523438 162.625 200.363281 158.410156 196.800781 154.574219 C 210.410156 151.949219 222.078125 148.347656 230.917969 144.011719 C 234.691406 142.160156 237.746094 140.265625 240.222656 138.375 L 240.222656 146.695312 C 240.222656 152.613281 229.664062 161.066406 206.210938 167.152344 Z M 142.996094 44.777344 C 203.234375 44.777344 240.222656 60.84375 240.222656 72.367188 C 240.222656 83.886719 203.234375 99.957031 142.996094 99.957031 C 82.761719 99.957031 45.773438 83.886719 45.773438 72.367188 C 45.773438 60.84375 82.761719 44.777344 142.996094 44.777344 Z M 45.773438 88.851562 C 51.335938 93.074219 59.207031 96.839844 69.277344 100.042969 C 89.039062 106.335938 115.222656 109.796875 142.996094 109.796875 C 170.773438 109.796875 196.957031 106.335938 216.71875 100.042969 C 226.785156 96.839844 234.660156 93.074219 240.222656 88.851562 L 240.222656 121.917969 C 240.222656 129.933594 222.144531 140.730469 187.582031 146.191406 C 175.210938 136.714844 159.75 131.074219 142.996094 131.074219 C 126.246094 131.074219 110.785156 136.714844 98.414062 146.191406 C 63.851562 140.730469 45.773438 129.933594 45.773438 121.917969 Z M 45.773438 138.375 C 48.25 140.265625 51.304688 142.160156 55.078125 144.011719 C 63.917969 148.347656 75.582031 151.949219 89.195312 154.574219 C 85.632812 158.410156 82.472656 162.625 79.785156 167.152344 C 56.332031 161.070312 45.773438 152.613281 45.773438 146.695312 Z M 45.773438 163.164062 C 52.425781 168.230469 62.355469 172.625 75.25 176.136719 C 71.570312 184.875 69.535156 194.472656 69.535156 204.535156 C 69.535156 207.6875 69.738281 210.796875 70.125 213.847656 C 52.320312 207.820312 45.773438 200.804688 45.773438 196.25 Z M 45.773438 212.660156 C 51.9375 217.363281 60.902344 221.503906 72.40625 224.878906 C 74.089844 230.71875 76.480469 236.257812 79.480469 241.402344 C 56.421875 235.367188 45.773438 226.996094 45.773438 221.027344 Z M 45.773438 270.582031 L 45.773438 237.445312 C 54.574219 244.167969 69.050781 249.707031 88.285156 253.5 C 101.742188 268.523438 121.285156 277.996094 142.996094 277.996094 C 164.710938 277.996094 184.25 268.523438 197.710938 253.5 C 206.308594 251.800781 214.101562 249.714844 220.859375 247.304688 L 194.054688 293.734375 C 178.652344 296.636719 161.0625 298.171875 142.996094 298.171875 C 82.761719 298.171875 45.773438 282.101562 45.773438 270.582031 Z M 325.671875 321.640625 C 322.570312 327.015625 317.011719 330.222656 310.804688 330.222656 L 214.082031 330.222656 C 207.878906 330.222656 202.320312 327.015625 199.21875 321.640625 C 196.117188 316.269531 196.117188 309.851562 199.21875 304.476562 L 247.582031 220.710938 C 250.683594 215.339844 256.238281 212.132812 262.445312 212.132812 C 268.648438 212.132812 274.207031 215.339844 277.308594 220.710938 L 325.671875 304.476562 C 328.773438 309.851562 328.773438 316.265625 325.671875 321.640625 Z M 262.445312 299.394531 C 255.648438 299.394531 250.117188 304.925781 250.117188 311.722656 C 250.117188 318.519531 255.648438 324.050781 262.445312 324.050781 C 269.242188 324.050781 274.773438 318.519531 274.773438 311.722656 C 274.773438 304.925781 269.242188 299.394531 262.445312 299.394531 Z M 262.445312 314.207031 C 261.074219 314.207031 259.960938 313.09375 259.960938 311.722656 C 259.960938 310.351562 261.074219 309.238281 262.445312 309.238281 C 263.816406 309.238281 264.929688 310.351562 264.929688 311.722656 C 264.929688 313.09375 263.816406 314.207031 262.445312 314.207031 Z M 262.445312 296.015625 C 268.234375 296.015625 272.933594 291.484375 273.140625 285.699219 L 274.601562 245.226562 C 274.710938 242.253906 273.675781 239.546875 271.609375 237.410156 C 269.542969 235.269531 266.878906 234.136719 263.90625 234.136719 L 260.984375 234.136719 C 258.007812 234.136719 255.34375 235.269531 253.28125 237.410156 C 251.214844 239.550781 250.179688 242.253906 250.289062 245.226562 L 251.75 285.699219 C 251.957031 291.484375 256.65625 296.015625 262.445312 296.015625 Z M 260.363281 244.242188 C 260.566406 244.03125 260.6875 243.980469 260.984375 243.980469 L 263.90625 243.980469 C 264.199219 243.980469 264.320312 244.03125 264.527344 244.242188 C 264.730469 244.453125 264.777344 244.578125 264.765625 244.871094 L 263.304688 285.34375 C 263.289062 285.808594 262.910156 286.171875 262.445312 286.171875 C 261.980469 286.171875 261.601562 285.808594 261.585938 285.34375 L 260.125 244.871094 C 260.113281 244.578125 260.160156 244.453125 260.363281 244.242188 Z M 260.363281 244.242188 " fill-opacity="1" fill-rule="nonzero"/></g></svg>