<svg xmlns="http://www.w3.org/2000/svg" xmlns:xlink="http://www.w3.org/1999/xlink" width="500" zoomAndPan="magnify" viewBox="0 0 375 374.999991" height="500" preserveAspectRatio="xMidYMid meet" version="1.0"><defs><clipPath id="83206259b7"><path d="M 9.019531 137.035156 L 364.660156 137.035156 L 364.660156 280.804688 L 9.019531 280.804688 Z M 9.019531 137.035156 " clip-rule="nonzero"/></clipPath><clipPath id="7e1a9f45bd"><path d="M 207.652344 53.265625 L 358.898438 53.265625 L 358.898438 138.863281 L 207.652344 138.863281 Z M 207.652344 53.265625 " clip-rule="nonzero"/></clipPath><clipPath id="bfaa92014a"><path d="M 281 138 L 344 138 L 344 138.863281 L 281 138.863281 Z M 281 138 " clip-rule="nonzero"/></clipPath><clipPath id="baebd8c300"><path d="M 300.328125 172.402344 L 333 172.402344 L 333 224.902344 L 300.328125 224.902344 Z M 300.328125 172.402344 " clip-rule="nonzero"/></clipPath><clipPath id="f15a5ce6d8"><path d="M 283.53125 182 L 304.53125 182 L 304.53125 214.929688 L 283.53125 214.929688 Z M 283.53125 182 " clip-rule="nonzero"/></clipPath></defs><path fill="#fb452f" d="M 22.671875 263.09375 C 20.289062 263.09375 18.359375 265.023438 18.359375 267.390625 C 18.359375 269.773438 20.289062 271.703125 22.671875 271.703125 C 25.039062 271.703125 26.96875 269.773438 26.96875 267.390625 C 26.96875 265.023438 25.039062 263.09375 22.671875 263.09375 " fill-opacity="1" fill-rule="nonzero"/><path fill="#fb452f" d="M 127.644531 263.09375 C 125.261719 263.09375 123.34375 265.023438 123.34375 267.390625 C 123.34375 269.773438 125.261719 271.703125 127.644531 271.703125 C 130.027344 271.703125 131.957031 269.773438 131.957031 267.390625 C 131.957031 265.023438 130.027344 263.09375 127.644531 263.09375 " fill-opacity="1" fill-rule="nonzero"/><path fill="#fb452f" d="M 158.121094 263.09375 C 155.738281 263.09375 153.808594 265.023438 153.808594 267.390625 C 153.808594 269.773438 155.738281 271.703125 158.121094 271.703125 C 160.5 271.703125 162.417969 269.773438 162.417969 267.390625 C 162.417969 265.023438 160.5 263.09375 158.121094 263.09375 " fill-opacity="1" fill-rule="nonzero"/><path fill="#fb452f" d="M 312.058594 263.09375 C 309.6875 263.09375 307.757812 265.023438 307.757812 267.390625 C 307.757812 269.773438 309.6875 271.703125 312.058594 271.703125 C 314.441406 271.703125 316.371094 269.773438 316.371094 267.390625 C 316.371094 265.023438 314.441406 263.09375 312.058594 263.09375 " fill-opacity="1" fill-rule="nonzero"/><path fill="#fb452f" d="M 343.492188 271.703125 C 345.875 271.703125 347.804688 269.773438 347.804688 267.390625 C 347.804688 265.023438 345.875 263.09375 343.492188 263.09375 C 341.113281 263.09375 339.191406 265.023438 339.191406 267.390625 C 339.191406 269.773438 341.113281 271.703125 343.492188 271.703125 " fill-opacity="1" fill-rule="nonzero"/><g clip-path="url(#83206259b7)"><path fill="#fb452f" d="M 359.015625 253.753906 L 110.035156 253.753906 L 110.035156 249.429688 L 359.015625 249.429688 Z M 351.496094 267.390625 C 351.496094 271.8125 347.902344 275.398438 343.492188 275.398438 C 339.082031 275.398438 335.488281 271.8125 335.488281 267.390625 C 335.488281 262.980469 339.082031 259.398438 343.492188 259.398438 C 347.902344 259.398438 351.496094 262.980469 351.496094 267.390625 Z M 330.152344 264.570312 L 325.410156 264.570312 C 325.003906 262.664062 324.175781 260.921875 323.0625 259.398438 L 332.5 259.398438 C 331.386719 260.921875 330.550781 262.664062 330.152344 264.570312 Z M 312.058594 275.398438 C 307.648438 275.398438 304.066406 271.8125 304.066406 267.390625 C 304.066406 262.980469 307.648438 259.398438 312.058594 259.398438 C 316.480469 259.398438 320.0625 262.980469 320.0625 267.390625 C 320.0625 271.8125 316.480469 275.398438 312.058594 275.398438 Z M 215.914062 259.398438 L 301.066406 259.398438 C 299.953125 260.921875 299.125 262.664062 298.71875 264.570312 L 223.378906 264.570312 C 219.960938 264.570312 217.0625 262.410156 215.914062 259.398438 Z M 181.019531 264.570312 L 171.460938 264.570312 C 171.0625 262.664062 170.238281 260.921875 169.125 259.398438 L 181.019531 259.398438 Z M 158.121094 275.398438 C 153.710938 275.398438 150.113281 271.8125 150.113281 267.390625 C 150.113281 262.980469 153.710938 259.398438 158.121094 259.398438 C 162.53125 259.398438 166.125 262.980469 166.125 267.390625 C 166.125 271.8125 162.53125 275.398438 158.121094 275.398438 Z M 144.769531 264.570312 L 140.996094 264.570312 C 140.589844 262.664062 139.761719 260.921875 138.648438 259.398438 L 147.117188 259.398438 C 146.003906 260.921875 145.175781 262.664062 144.769531 264.570312 Z M 127.644531 275.398438 C 123.234375 275.398438 119.652344 271.8125 119.652344 267.390625 C 119.652344 262.980469 123.234375 259.398438 127.644531 259.398438 C 132.066406 259.398438 135.648438 262.980469 135.648438 267.390625 C 135.648438 271.8125 132.066406 275.398438 127.644531 275.398438 Z M 85.804688 268.878906 L 85.804688 258.824219 L 104.390625 258.824219 L 104.390625 268.878906 Z M 76.75 187.179688 L 104.390625 187.179688 L 104.390625 253.179688 L 76.75 253.179688 Z M 71.105469 268.878906 L 46.089844 268.878906 L 46.089844 259.398438 L 64.46875 259.398438 C 66.023438 259.398438 67.289062 258.128906 67.289062 256.574219 L 67.289062 174.722656 L 71.105469 171.503906 Z M 36.011719 264.570312 C 34.710938 258.394531 29.21875 253.753906 22.671875 253.753906 C 19.671875 253.753906 16.925781 254.746094 14.664062 256.398438 L 14.664062 248.902344 L 18.910156 248.902344 C 22.550781 248.902344 25.625 246.566406 26.78125 243.324219 L 31.457031 243.324219 C 36.429688 243.324219 40.476562 239.289062 40.476562 234.316406 L 40.476562 209.972656 C 40.476562 208.417969 39.207031 207.148438 37.652344 207.148438 L 36.792969 207.148438 C 35.226562 207.148438 33.949219 205.878906 33.949219 204.316406 C 33.949219 202.75 35.226562 201.46875 36.78125 201.46875 L 61.644531 201.535156 L 61.644531 206.929688 L 51.371094 206.929688 C 48.128906 206.929688 45.503906 209.550781 45.503906 212.792969 L 45.503906 219.960938 C 45.503906 223.203125 48.128906 225.824219 51.371094 225.824219 L 61.644531 225.824219 L 61.644531 253.753906 L 43.265625 253.753906 C 41.710938 253.753906 40.445312 255.011719 40.445312 256.574219 L 40.445312 264.570312 Z M 22.671875 275.398438 C 18.25 275.398438 14.664062 271.8125 14.664062 267.390625 C 14.664062 262.980469 18.25 259.398438 22.671875 259.398438 C 27.082031 259.398438 30.664062 262.980469 30.664062 267.390625 C 30.664062 271.8125 27.082031 275.398438 22.671875 275.398438 Z M 21.667969 240.5 C 21.667969 242.023438 20.433594 243.257812 18.910156 243.257812 L 14.664062 243.257812 L 14.664062 237.753906 L 18.910156 237.753906 C 20.433594 237.753906 21.667969 238.980469 21.667969 240.5 Z M 19.363281 225.925781 L 32.328125 225.925781 C 33.210938 225.925781 34.039062 225.75 34.832031 225.484375 L 34.832031 234.316406 C 34.832031 236.167969 33.308594 237.679688 31.457031 237.679688 L 26.78125 237.679688 C 25.625 234.4375 22.550781 232.109375 18.910156 232.109375 L 14.664062 232.109375 L 14.664062 230.414062 C 14.664062 227.976562 16.816406 225.925781 19.363281 225.925781 Z M 43.089844 192.628906 C 43.089844 191.625 43.75 191.140625 44.039062 190.972656 C 44.335938 190.808594 45.085938 190.476562 45.945312 190.996094 L 54.148438 195.871094 L 43.089844 195.847656 Z M 61.644531 220.179688 L 51.371094 220.179688 C 51.25 220.179688 51.148438 220.082031 51.148438 219.960938 L 51.148438 212.792969 C 51.148438 212.671875 51.25 212.574219 51.371094 212.574219 L 61.644531 212.574219 Z M 122.78125 153.386719 L 352.488281 153.386719 L 352.488281 243.785156 L 122.78125 243.785156 Z M 352.488281 142.691406 L 352.488281 147.742188 L 122.78125 147.742188 L 122.78125 142.691406 Z M 361.839844 243.785156 L 358.136719 243.785156 L 358.136719 139.871094 C 358.136719 138.316406 356.867188 137.046875 355.3125 137.046875 L 119.960938 137.046875 C 118.40625 137.046875 117.136719 138.316406 117.136719 139.871094 L 117.136719 243.785156 L 110.035156 243.785156 L 110.035156 184.359375 C 110.035156 182.792969 108.769531 181.535156 107.214844 181.535156 L 76.75 181.535156 L 76.75 165.4375 C 76.75 164.335938 76.113281 163.332031 75.117188 162.871094 C 74.125 162.417969 72.945312 162.570312 72.109375 163.277344 L 62.648438 171.25 C 62.007812 171.789062 61.644531 172.582031 61.644531 173.410156 L 61.644531 193.753906 L 48.835938 186.144531 C 46.472656 184.734375 43.640625 184.710938 41.25 186.066406 C 38.867188 187.421875 37.445312 189.882812 37.445312 192.628906 L 37.445312 195.824219 L 36.792969 195.824219 C 32.109375 195.824219 28.304688 199.628906 28.304688 204.316406 C 28.304688 208.316406 31.09375 211.679688 34.832031 212.5625 L 34.832031 217.777344 C 34.832031 219.15625 33.707031 220.28125 32.328125 220.28125 L 19.363281 220.28125 C 13.664062 220.28125 9.019531 224.824219 9.019531 230.414062 L 9.019531 267.390625 C 9.019531 274.921875 15.140625 281.042969 22.671875 281.042969 C 29.21875 281.042969 34.710938 276.390625 36.011719 270.214844 L 40.445312 270.214844 L 40.445312 271.703125 C 40.445312 273.257812 41.710938 274.527344 43.265625 274.527344 L 73.929688 274.527344 C 75.484375 274.527344 76.75 273.257812 76.75 271.703125 L 76.75 258.824219 L 80.15625 258.824219 L 80.15625 271.703125 C 80.15625 273.257812 81.414062 274.527344 82.980469 274.527344 L 107.214844 274.527344 C 108.769531 274.527344 110.035156 273.257812 110.035156 271.703125 L 110.035156 259.398438 L 116.652344 259.398438 C 115 261.648438 114.007812 264.402344 114.007812 267.390625 C 114.007812 274.921875 120.125 281.042969 127.644531 281.042969 C 134.207031 281.042969 139.683594 276.390625 140.996094 270.214844 L 144.769531 270.214844 C 146.078125 276.390625 151.558594 281.042969 158.121094 281.042969 C 164.679688 281.042969 170.160156 276.390625 171.460938 270.214844 L 183.84375 270.214844 C 185.398438 270.214844 186.664062 268.957031 186.664062 267.390625 L 186.664062 259.398438 L 210.039062 259.398438 C 211.339844 265.574219 216.820312 270.214844 223.378906 270.214844 L 298.71875 270.214844 C 300.03125 276.390625 305.511719 281.042969 312.058594 281.042969 C 318.621094 281.042969 324.109375 276.390625 325.410156 270.214844 L 330.152344 270.214844 C 331.453125 276.390625 336.945312 281.042969 343.492188 281.042969 C 351.023438 281.042969 357.144531 274.921875 357.144531 267.390625 C 357.144531 264.402344 356.140625 261.648438 354.496094 259.398438 L 361.839844 259.398438 C 363.40625 259.398438 364.660156 258.128906 364.660156 256.574219 L 364.660156 246.609375 C 364.660156 245.054688 363.40625 243.785156 361.839844 243.785156 " fill-opacity="1" fill-rule="nonzero"/></g><g clip-path="url(#7e1a9f45bd)"><path fill="#fb452f" d="M 349.128906 192.417969 L 345.921875 190.644531 C 345.910156 190.636719 345.894531 190.632812 345.878906 190.625 C 345.863281 190.617188 345.84375 190.605469 345.824219 190.597656 C 345.785156 190.578125 345.742188 190.558594 345.699219 190.542969 C 345.683594 190.535156 345.667969 190.53125 345.652344 190.523438 C 345.605469 190.503906 345.558594 190.488281 345.511719 190.476562 C 345.5 190.472656 345.484375 190.46875 345.472656 190.464844 C 345.421875 190.453125 345.375 190.441406 345.324219 190.429688 C 345.308594 190.425781 345.292969 190.425781 345.28125 190.421875 C 345.230469 190.414062 345.183594 190.40625 345.136719 190.402344 C 345.113281 190.402344 345.085938 190.402344 345.0625 190.398438 C 345.023438 190.398438 344.984375 190.394531 344.945312 190.394531 C 344.910156 190.394531 344.871094 190.398438 344.832031 190.398438 C 344.804688 190.402344 344.78125 190.402344 344.757812 190.402344 C 344.710938 190.40625 344.664062 190.414062 344.617188 190.421875 C 344.601562 190.425781 344.585938 190.425781 344.570312 190.429688 C 344.519531 190.441406 344.476562 190.453125 344.425781 190.464844 C 344.410156 190.46875 344.394531 190.472656 344.378906 190.476562 C 344.335938 190.488281 344.296875 190.503906 344.253906 190.519531 C 344.234375 190.527344 344.210938 190.535156 344.191406 190.542969 C 344.15625 190.558594 344.121094 190.574219 344.085938 190.589844 C 344.058594 190.601562 344.035156 190.617188 344.007812 190.628906 C 343.996094 190.636719 343.984375 190.640625 343.976562 190.644531 L 340.769531 192.414062 L 340.769531 182.863281 C 342.089844 183.277344 343.492188 183.503906 344.949219 183.503906 C 346.402344 183.503906 347.808594 183.277344 349.128906 182.863281 Z M 335.015625 169.546875 C 335.015625 164.070312 339.472656 159.613281 344.949219 159.613281 C 350.425781 159.613281 354.882812 164.070312 354.882812 169.546875 C 354.882812 175.023438 350.425781 179.476562 344.949219 179.476562 C 339.472656 179.476562 335.015625 175.023438 335.015625 169.546875 Z M 271.496094 172.71875 L 271.496094 114.636719 L 353.933594 114.636719 L 353.933594 158.875 C 351.503906 156.828125 348.367188 155.589844 344.949219 155.589844 C 337.253906 155.589844 330.992188 161.851562 330.992188 169.546875 C 330.992188 170.636719 331.125 171.699219 331.359375 172.71875 Z M 220.921875 146.15625 L 238.226562 146.15625 C 242.070312 155.605469 248.332031 165.179688 258.515625 171.667969 C 242.78125 168.628906 229.304688 159.183594 220.921875 146.15625 Z M 211.8125 117.023438 L 232.152344 117.023438 C 232.289062 121.21875 233.023438 131.273438 236.726562 142.132812 L 218.558594 142.132812 C 214.527344 134.597656 212.125 126.074219 211.8125 117.023438 Z M 218.558594 87.886719 L 236.726562 87.886719 C 233.023438 98.75 232.289062 108.804688 232.152344 113 L 211.8125 113 C 212.125 103.949219 214.527344 95.421875 218.558594 87.886719 Z M 258.515625 58.351562 C 248.332031 64.839844 242.070312 74.414062 238.226562 83.863281 L 220.921875 83.863281 C 229.304688 70.839844 242.78125 61.390625 258.515625 58.351562 Z M 267.46875 83.863281 L 242.574219 83.863281 C 247.046875 73.628906 254.625 63.515625 267.46875 58.21875 Z M 267.46875 113 L 236.175781 113 C 236.3125 108.839844 237.066406 98.636719 240.964844 87.886719 L 267.46875 87.886719 Z M 240.964844 142.132812 C 237.066406 131.382812 236.3125 121.183594 236.175781 117.023438 L 267.46875 117.023438 L 267.46875 142.132812 Z M 267.46875 146.15625 L 267.46875 171.800781 C 254.625 166.503906 247.046875 156.394531 242.574219 146.15625 Z M 298 87.886719 C 301.285156 96.953125 302.335938 105.625 302.667969 110.613281 L 271.496094 110.613281 L 271.496094 87.886719 Z M 271.496094 58.21875 C 284.339844 63.515625 291.917969 73.628906 296.390625 83.863281 L 271.496094 83.863281 Z M 318.042969 83.863281 L 300.734375 83.863281 C 296.894531 74.414062 290.632812 64.839844 280.449219 58.351562 C 296.183594 61.390625 309.660156 70.839844 318.042969 83.863281 Z M 327.011719 110.613281 L 306.695312 110.613281 C 306.371094 105.632812 305.359375 97.050781 302.238281 87.886719 L 320.40625 87.886719 C 324.078125 94.757812 326.394531 102.449219 327.011719 110.613281 Z M 358.90625 169.546875 C 358.90625 167.765625 358.566406 166.0625 357.957031 164.496094 L 357.957031 112.625 C 357.957031 111.515625 357.054688 110.613281 355.945312 110.613281 L 331.050781 110.613281 C 328.785156 78.621094 302.042969 53.277344 269.480469 53.277344 C 235.441406 53.277344 207.75 80.972656 207.75 115.011719 C 207.75 149.050781 235.441406 176.742188 269.480469 176.742188 L 332.996094 176.742188 C 333.964844 178.34375 335.242188 179.730469 336.746094 180.828125 L 336.746094 195.824219 C 336.746094 196.535156 337.121094 197.195312 337.734375 197.558594 C 338.050781 197.742188 338.402344 197.835938 338.757812 197.835938 C 339.09375 197.835938 339.429688 197.753906 339.730469 197.585938 L 344.949219 194.707031 L 350.167969 197.585938 C 350.472656 197.753906 350.804688 197.835938 351.140625 197.835938 C 351.492188 197.835938 351.847656 197.742188 352.164062 197.558594 C 352.777344 197.195312 353.152344 196.535156 353.152344 195.824219 L 353.152344 180.828125 C 356.636719 178.285156 358.90625 174.175781 358.90625 169.546875 " fill-opacity="1" fill-rule="nonzero"/></g><g clip-path="url(#bfaa92014a)"><path fill="#fb452f" d="M 283.625 142.214844 L 341.800781 142.214844 C 342.910156 142.214844 343.8125 141.316406 343.8125 140.203125 C 343.8125 139.09375 342.910156 138.191406 341.800781 138.191406 L 283.625 138.191406 C 282.515625 138.191406 281.613281 139.09375 281.613281 140.203125 C 281.613281 141.316406 282.515625 142.214844 283.625 142.214844 " fill-opacity="1" fill-rule="nonzero"/></g><path fill="#fb452f" d="M 283.625 131.019531 L 341.800781 131.019531 C 342.910156 131.019531 343.8125 130.121094 343.8125 129.011719 C 343.8125 127.898438 342.910156 126.996094 341.800781 126.996094 L 283.625 126.996094 C 282.515625 126.996094 281.613281 127.898438 281.613281 129.011719 C 281.613281 130.121094 282.515625 131.019531 283.625 131.019531 " fill-opacity="1" fill-rule="nonzero"/><g clip-path="url(#baebd8c300)"><path fill="#fb452f" d="M 306.953125 224.738281 C 305.445312 224.738281 303.949219 224.171875 302.800781 223.023438 C 300.484375 220.730469 300.472656 216.992188 302.769531 214.6875 L 318.480469 198.890625 L 302.636719 183.046875 C 300.332031 180.742188 300.332031 177.015625 302.636719 174.710938 C 304.941406 172.402344 308.667969 172.402344 310.972656 174.710938 L 330.980469 194.714844 C 333.273438 197.007812 333.285156 200.734375 330.992188 203.039062 L 311.128906 223.003906 C 309.980469 224.160156 308.460938 224.738281 306.953125 224.738281 Z M 306.953125 224.738281 " fill-opacity="1" fill-rule="nonzero"/></g><g clip-path="url(#f15a5ce6d8)"><path fill="#fb452f" d="M 287.746094 215.210938 C 286.785156 215.210938 285.832031 214.847656 285.105469 214.117188 C 283.632812 212.660156 283.625 210.28125 285.082031 208.816406 L 295.074219 198.769531 L 285 188.695312 C 283.535156 187.230469 283.535156 184.859375 285 183.394531 C 286.464844 181.929688 288.835938 181.929688 290.300781 183.394531 L 303.023438 196.117188 C 304.484375 197.574219 304.488281 199.945312 303.03125 201.410156 L 290.398438 214.105469 C 289.667969 214.839844 288.703125 215.210938 287.746094 215.210938 Z M 287.746094 215.210938 " fill-opacity="1" fill-rule="nonzero"/></g></svg>